<svg width="828" height="45" viewBox="0 0 828 45" fill="none" xmlns="http://www.w3.org/2000/svg">
<path d="M20.994 0.475999C32.464 0.475999 41.764 10.21 41.764 22.176C41.764 34.142 32.464 43.938 20.994 43.938C9.524 43.938 0.224 34.142 0.224 22.176C0.224 10.21 9.524 0.475999 20.994 0.475999ZM20.994 41.334C31.038 41.334 39.47 32.592 39.47 22.176C39.47 11.822 31.038 3.08 20.994 3.08C11.012 3.08 2.518 11.822 2.518 22.176C2.518 32.592 11.012 41.334 20.994 41.334ZM76.1435 33.708H54.0715L49.9175 44H46.8175L65.1695 0.413999L83.6455 44H80.4835L76.1435 33.708ZM65.1695 7.42L55.0635 31.29H75.2135L65.1695 7.42ZM105.75 28.748L96.8844 44H93.9704V0.537998H96.5124L96.4504 39.908L119.08 0.537998H121.87L106.99 26.516L121.002 44H117.902L105.75 28.748ZM165.179 10.768L151.353 44.062L133.187 0.475999H135.667L151.229 37.49L165.179 4.692L178.943 37.49L194.629 0.475999H197.109L178.943 44.062L165.179 10.768ZM231.307 0.475999C242.777 0.475999 252.077 10.21 252.077 22.176C252.077 34.142 242.777 43.938 231.307 43.938C219.837 43.938 210.537 34.142 210.537 22.176C210.537 10.21 219.837 0.475999 231.307 0.475999ZM231.307 41.334C241.351 41.334 249.783 32.592 249.783 22.176C249.783 11.822 241.351 3.08 231.307 3.08C221.325 3.08 212.831 11.822 212.831 22.176C212.831 32.592 221.325 41.334 231.307 41.334ZM286.383 0.475999C297.853 0.475999 307.153 10.21 307.153 22.176C307.153 34.142 297.853 43.938 286.383 43.938C274.913 43.938 265.613 34.142 265.613 22.176C265.613 10.21 274.913 0.475999 286.383 0.475999ZM286.383 41.334C296.427 41.334 304.859 32.592 304.859 22.176C304.859 11.822 296.427 3.08 286.383 3.08C276.401 3.08 267.907 11.822 267.907 22.176C267.907 32.592 276.401 41.334 286.383 41.334ZM350.155 22.176C350.155 34.018 340.545 43.814 328.765 43.938H318.039V0.537998H328.765C340.545 0.723999 350.155 10.396 350.155 22.176ZM320.643 41.52H328.455C338.809 41.52 347.427 32.53 347.427 22.176C347.427 11.884 338.809 3.142 328.455 3.142H320.581L320.643 41.52ZM388.949 0.599997H391.677V41.582H411.641V44.062H388.949V0.599997ZM447.213 3.142H425.017V21.742H441.943V24.16H425.017V41.582H446.655V44.062H422.537V0.785998H447.213V3.142ZM492.261 44V33.088C488.665 39.598 481.969 43.938 474.343 43.938C462.935 43.938 453.635 34.266 453.635 22.362C453.635 10.396 462.935 0.661996 474.343 0.661996C478.497 0.661996 482.279 1.964 485.565 4.134L484.263 6.428C481.411 4.568 478.001 3.266 474.343 3.266C464.361 3.266 456.115 11.946 456.115 22.362C456.115 32.654 464.361 41.334 474.343 41.334C483.519 41.334 491.145 33.894 492.261 24.656H479.117V22.362H494.679V44H492.261ZM529.422 33.708H507.35L503.196 44H500.096L518.448 0.413999L536.924 44H533.762L529.422 33.708ZM518.448 7.42L508.342 31.29H528.492L518.448 7.42ZM547.919 0.599997H550.647V41.582H570.611V44.062H547.919V0.599997ZM647.597 44V33.088C644.001 39.598 637.305 43.938 629.679 43.938C618.271 43.938 608.971 34.266 608.971 22.362C608.971 10.396 618.271 0.661996 629.679 0.661996C633.833 0.661996 637.615 1.964 640.901 4.134L639.599 6.428C636.747 4.568 633.337 3.266 629.679 3.266C619.697 3.266 611.451 11.946 611.451 22.362C611.451 32.654 619.697 41.334 629.679 41.334C638.855 41.334 646.481 33.894 647.597 24.656H634.453V22.362H650.015V44H647.597ZM676.464 27.508C674.79 28.004 673.364 28.004 672.744 28.004L663.692 28.066V44.124H661.336V0.475999H672.744C680.184 0.599997 686.26 6.8 686.26 14.24C686.26 18.89 683.966 23.23 680.06 25.772L678.696 26.64L686.57 44.124H683.966L676.464 27.508ZM663.692 25.71H672.496C678.82 25.71 683.966 20.564 683.966 14.24C683.966 7.916 678.82 2.77 672.496 2.77H663.692V25.71ZM721.354 0.475999C732.824 0.475999 742.124 10.21 742.124 22.176C742.124 34.142 732.824 43.938 721.354 43.938C709.884 43.938 700.584 34.142 700.584 22.176C700.584 10.21 709.884 0.475999 721.354 0.475999ZM721.354 41.334C731.398 41.334 739.83 32.592 739.83 22.176C739.83 11.822 731.398 3.08 721.354 3.08C711.372 3.08 702.878 11.822 702.878 22.176C702.878 32.592 711.372 41.334 721.354 41.334ZM786.35 28.624C786.164 37.304 779.406 43.938 771.222 43.938C763.162 43.938 755.66 37.118 756.032 28.748V0.475999H758.698V28.81C758.698 35.692 764.278 41.334 771.222 41.334C778.104 41.334 783.746 35.692 783.746 28.872V0.475999H786.35V28.624ZM814.833 30.298C814.089 30.422 813.469 30.422 812.849 30.484H803.177V44.062H800.759V0.661996H812.849C820.909 0.785998 827.419 7.482 827.419 15.542C827.419 20.626 824.939 25.214 820.723 28.004L820.661 28.066C820.661 28.066 818.181 29.802 814.833 30.298ZM803.177 27.818H812.539C819.297 27.818 824.815 22.3 824.815 15.542C824.815 8.784 819.297 3.328 812.539 3.328H803.177V27.818Z" fill="#3E3332"/>
</svg>
