<svg width="61" height="257" viewBox="0 0 61 257" fill="none" xmlns="http://www.w3.org/2000/svg">
<path d="M52.5174 7.35196C52.5898 7.78655 52.5898 8.1487 52.626 8.51086L52.626 14.1606L60.5573 14.1606L60.5573 15.573L35.2061 15.573L35.2061 8.51086C35.2785 3.80277 39.1898 7.13514e-05 43.8979 7.11456e-05C46.8676 7.10158e-05 49.5476 1.44872 51.1774 3.91142L51.2136 3.94764C51.2136 3.94764 52.2276 5.39629 52.5174 7.35196ZM51.0687 14.1606L51.0687 8.69194C51.0687 4.74438 47.8455 1.52115 43.8979 1.52115C39.9504 1.52115 36.7633 4.74438 36.7633 8.69194L36.7633 14.1606L51.0687 14.1606Z" fill="#3E3332"/>
<path d="M51.5398 23.9896C56.61 24.0983 60.4851 28.0458 60.4851 32.8263C60.4851 37.5344 56.5014 41.9166 51.6122 41.6993L35.0977 41.6993L35.0977 40.142L51.6484 40.142C55.6684 40.142 58.9641 36.8825 58.9641 32.8263C58.9641 28.8063 55.6684 25.5107 51.6846 25.5107L35.0977 25.5107L35.0977 23.9896L51.5398 23.9896Z" fill="#3E3332"/>
<path d="M35.0977 61.9556C35.0977 55.2556 40.7836 49.8232 47.7733 49.8232C54.763 49.8232 60.4851 55.2556 60.4851 61.9556C60.4851 68.6556 54.763 74.088 47.7733 74.088C40.7836 74.088 35.0977 68.6556 35.0977 61.9556ZM58.9641 61.9556C58.9641 56.0886 53.8576 51.1632 47.7733 51.1632C41.7252 51.1632 36.6187 56.0886 36.6187 61.9556C36.6187 67.7864 41.7252 72.748 47.7733 72.748C53.8576 72.748 58.9641 67.7864 58.9641 61.9556Z" fill="#3E3332"/>
<path d="M50.8879 88.1774C51.1776 89.1553 51.1776 89.9882 51.1776 90.3504L51.2138 95.638L60.5938 95.638L60.5938 97.0142L35.0977 97.0142L35.0977 90.3504C35.1701 86.0045 38.7917 82.4553 43.1376 82.4553C45.8538 82.4553 48.389 83.7953 49.8738 86.0769L50.3809 86.8737L60.5938 82.2742L60.5938 83.7953L50.8879 88.1774ZM49.8376 95.638L49.8376 90.4953C49.8376 86.8012 46.8317 83.7953 43.1376 83.7953C39.4436 83.7953 36.4377 86.8012 36.4377 90.4953L36.4377 95.638L49.8376 95.638Z" fill="#3E3332"/>
<path d="M60.5211 105.039L54.1471 105.039C57.9498 107.14 60.4849 111.051 60.4849 115.506C60.4849 122.169 54.8352 127.602 47.8817 127.602C40.892 127.602 35.2061 122.169 35.2061 115.506C35.2061 113.079 35.9666 110.87 37.2342 108.951L38.5742 109.711C37.4877 111.377 36.7271 113.369 36.7271 115.506C36.7271 121.336 41.7974 126.153 47.8817 126.153C53.8936 126.153 58.9638 121.336 58.9638 115.506C58.9638 110.146 54.6179 105.691 49.2217 105.039L49.2217 112.717L47.8817 112.717L47.8817 103.627L60.5211 103.627L60.5211 105.039Z" fill="#3E3332"/>
<path d="M35.1699 163.264L35.1699 161.671L59.1088 161.671L59.1088 150.009L60.5574 150.009L60.5574 163.264L35.1699 163.264Z" fill="#3E3332"/>
<path d="M54.5086 174.069L54.5086 186.962L60.5205 189.389L60.5205 191.199L35.0605 180.479L60.5205 169.687L60.5205 171.534L54.5086 174.069ZM39.153 180.479L53.0962 186.383L53.0962 174.612L39.153 180.479Z" fill="#3E3332"/>
<path d="M60.5211 195.776L54.1471 195.776C57.9498 197.877 60.4849 201.788 60.4849 206.243C60.4849 212.906 54.8352 218.339 47.8817 218.339C40.892 218.339 35.2061 212.906 35.2061 206.243C35.2061 203.816 35.9666 201.607 37.2342 199.687L38.5742 200.448C37.4877 202.114 36.7271 204.106 36.7271 206.243C36.7271 212.073 41.7974 216.89 47.8817 216.89C53.8936 216.89 58.9638 212.073 58.9638 206.243C58.9638 200.883 54.6179 196.428 49.2217 195.776L49.2217 203.454L47.8817 203.454L47.8817 194.364L60.5211 194.364L60.5211 195.776Z" fill="#3E3332"/>
<path d="M36.6545 222.09L36.6545 235.055L47.5194 235.055L47.5194 225.168L48.9318 225.168L48.9318 235.055L59.1085 235.055L59.1085 222.416L60.5572 222.416L60.5572 236.504L35.2783 236.504L35.2783 222.09L36.6545 222.09Z" fill="#3E3332"/>
<path d="M35.1699 256.123L35.1699 254.53L59.1088 254.53L59.1088 242.868L60.5574 242.868L60.5574 256.123L35.1699 256.123Z" fill="#3E3332"/>
<path d="M13.3093 51.899C20.2266 51.899 25.9488 57.5125 26.0212 64.3935L26.0212 70.6589L0.669922 70.6589L0.669922 64.3935C0.77857 57.5125 6.42828 51.899 13.3093 51.899ZM24.6088 69.1379L24.6088 64.5746C24.6088 58.5265 19.3574 53.4925 13.3093 53.4925C7.29747 53.4925 2.191 58.5265 2.191 64.5746L2.191 69.1741L24.6088 69.1379Z" fill="#3E3332"/>
<path d="M0.633789 89.1502C0.633788 82.4502 6.31972 77.0178 13.3094 77.0178C20.2991 77.0178 26.0213 82.4502 26.0213 89.1502C26.0213 95.8502 20.2991 101.283 13.3094 101.283C6.31972 101.283 0.633789 95.8502 0.633789 89.1502ZM24.5002 89.1502C24.5002 83.2832 19.3937 78.3578 13.3094 78.3578C7.26133 78.3578 2.15486 83.2832 2.15486 89.1502C2.15487 94.981 7.26134 99.9426 13.3094 99.9426C19.3937 99.9426 24.5002 94.981 24.5002 89.1502Z" fill="#3E3332"/>
<path d="M0.633789 121.322C0.633788 114.622 6.31972 109.189 13.3094 109.189C20.2991 109.189 26.0213 114.622 26.0213 121.322C26.0213 128.022 20.2991 133.454 13.3094 133.454C6.31972 133.454 0.633789 128.022 0.633789 121.322ZM24.5002 121.322C24.5002 115.455 19.3937 110.529 13.3094 110.529C7.26133 110.529 2.15486 115.455 2.15486 121.322C2.15487 127.152 7.26134 132.114 13.3094 132.114C19.3937 132.114 24.5002 127.152 24.5002 121.322Z" fill="#3E3332"/>
<path d="M6.64566 159.949L26.0937 168.025L0.633789 178.637L0.633789 177.188L22.2548 168.098L3.09648 159.949L22.2548 151.909L0.633787 142.746L0.633787 141.298L26.0937 151.909L6.64566 159.949Z" fill="#3E3332"/>
<path d="M17.1482 194.663L26.0574 199.842L26.0574 201.544L0.669922 201.544L0.669922 200.059L23.6671 200.096L0.669921 186.877L0.669921 185.247L15.8445 193.939L26.0574 185.754L26.0574 187.565L17.1482 194.663Z" fill="#3E3332"/>
<path d="M20.0457 211.958L20.0457 224.85L26.0576 227.277L26.0576 229.088L0.597656 218.368L26.0576 207.575L26.0576 209.422L20.0457 211.958ZM4.69007 218.368L18.6333 224.271L18.6333 212.501L4.69007 218.368Z" fill="#3E3332"/>
<path d="M0.633789 244.172C0.633788 237.472 6.31972 232.04 13.3094 232.04C20.2991 232.04 26.0213 237.472 26.0213 244.172C26.0213 250.872 20.2991 256.305 13.3094 256.305C6.31972 256.305 0.633789 250.872 0.633789 244.172ZM24.5002 244.172C24.5002 238.305 19.3937 233.38 13.3094 233.38C7.26133 233.38 2.15486 238.305 2.15486 244.172C2.15487 250.003 7.26134 254.965 13.3094 254.965C19.3937 254.965 24.5002 250.003 24.5002 244.172Z" fill="#3E3332"/>
</svg>
