<svg width="39" height="39" viewBox="0 0 39 39" fill="none" xmlns="http://www.w3.org/2000/svg">
<circle cx="19.5" cy="19.5" r="19.5" fill="#C02B27"/>
<path d="M31.9309 24.7933V22.2328C31.0871 23.7604 29.5159 24.7788 27.7264 24.7788C25.0495 24.7788 22.8672 22.5092 22.8672 19.7159C22.8672 16.908 25.0495 14.6239 27.7264 14.6239C28.7012 14.6239 29.5886 14.9294 30.3597 15.4386L30.0542 15.9769C29.3849 15.5405 28.5848 15.2349 27.7264 15.2349C25.3841 15.2349 23.4491 17.2717 23.4491 19.7159C23.4491 22.1309 25.3841 24.1677 27.7264 24.1677C29.8796 24.1677 31.6691 22.4219 31.9309 20.2542H28.8466V19.7159H32.4983V24.7933H31.9309Z" fill="white"/>
<path d="M18.0566 14.6093H18.6968V24.2258H23.3814V24.8077H18.0566V14.6093Z" fill="white"/>
<path d="M11.7761 14.5797C14.4676 14.5797 16.6499 16.8638 16.6499 19.6717C16.6499 22.4795 14.4676 24.7782 11.7761 24.7782C9.08463 24.7782 6.90234 22.4795 6.90234 19.6717C6.90234 16.8638 9.08463 14.5797 11.7761 14.5797ZM11.7761 24.1672C14.133 24.1672 16.1116 22.1158 16.1116 19.6717C16.1116 17.2421 14.133 15.1907 11.7761 15.1907C9.43379 15.1907 7.44064 17.2421 7.44064 19.6717C7.44064 22.1158 9.43379 24.1672 11.7761 24.1672Z" fill="white"/>
</svg>
