<svg width="43" height="43" viewBox="0 0 43 43" fill="none" xmlns="http://www.w3.org/2000/svg">
<path d="M33.3916 26.5858V24.0584C32.5587 25.5662 31.0078 26.5714 29.2415 26.5714C26.5993 26.5714 24.4453 24.3312 24.4453 21.5741C24.4453 18.8027 26.5993 16.5481 29.2415 16.5481C30.2037 16.5481 31.0796 16.8497 31.8407 17.3523L31.5391 17.8836C30.8786 17.4528 30.0888 17.1513 29.2415 17.1513C26.9296 17.1513 25.0197 19.1617 25.0197 21.5741C25.0197 23.9579 26.9296 25.9683 29.2415 25.9683C31.3668 25.9683 33.1331 24.2451 33.3916 22.1055H30.3473V21.5741H33.9516V26.5858H33.3916Z" fill="#776F6F"/>
<path d="M19.6934 16.5338H20.3252V26.0257H24.9491V26.6001H19.6934V16.5338Z" fill="#776F6F"/>
<path d="M13.4981 16.5051C16.1547 16.5051 18.3087 18.7596 18.3087 21.531C18.3087 24.3025 16.1547 26.5714 13.4981 26.5714C10.8415 26.5714 8.6875 24.3025 8.6875 21.531C8.6875 18.7596 10.8415 16.5051 13.4981 16.5051ZM13.4981 25.9683C15.8244 25.9683 17.7774 23.9435 17.7774 21.531C17.7774 19.1329 15.8244 17.1082 13.4981 17.1082C11.1861 17.1082 9.21882 19.1329 9.21882 21.531C9.21882 23.9435 11.1861 25.9683 13.4981 25.9683Z" fill="#776F6F"/>
<path d="M42.5657 21.5C42.5657 9.86576 33.1342 0.434343 21.5 0.434343C9.86576 0.434343 0.434343 9.86576 0.434343 21.5C0.434343 33.1342 9.86576 42.5657 21.5 42.5657C33.1342 42.5657 42.5657 33.1342 42.5657 21.5ZM43 21.5C43 33.3741 33.3741 43 21.5 43C9.62588 43 0 33.3741 0 21.5C0 9.62588 9.62588 0 21.5 0C33.3741 0 43 9.62588 43 21.5Z" fill="#776F6F"/>
</svg>
