<svg width="65" height="48" viewBox="0 0 65 48" fill="none" xmlns="http://www.w3.org/2000/svg">
<path d="M33.0405 0C35.1741 0.0372996 37.2358 0.2736 39.2256 0.708901C42.8697 1.50595 46.2648 2.89937 49.4109 4.88916C55.4915 8.73467 60.1428 14.569 62.5809 21.3311C63.8478 24.8456 64.5001 28.4845 64.5378 32.2478C64.5379 32.251 64.5373 32.2541 64.5361 32.2571C64.5349 32.2601 64.5331 32.2627 64.5309 32.265C64.5287 32.2673 64.526 32.2691 64.523 32.2703C64.5201 32.2715 64.517 32.2722 64.5138 32.2722H56.237C56.2307 32.2722 56.2246 32.2696 56.2201 32.2651C56.2156 32.2606 56.213 32.2545 56.2129 32.2481C56.1694 29.227 55.595 26.3223 54.4898 23.5338C52.2111 17.7857 47.7102 13.004 42.003 10.4794C39.2604 9.26624 36.3888 8.60423 33.3884 8.49337C30.2008 8.37584 27.0264 8.92534 24.0761 10.0825C18.4121 12.3042 13.8433 16.6467 11.2293 22.1575C9.73648 25.3051 8.96194 28.758 8.91006 32.2472C8.90989 32.2541 8.90702 32.2607 8.90206 32.2656C8.89709 32.2704 8.89043 32.2731 8.88349 32.2731H0.615477C0.611059 32.2731 0.606684 32.2722 0.602606 32.2705C0.598528 32.2688 0.594827 32.2663 0.591717 32.2632C0.588607 32.2601 0.586151 32.2563 0.584488 32.2523C0.582826 32.2482 0.581991 32.2438 0.582033 32.2394C0.655173 26.7432 1.98619 21.5971 4.57507 16.8011C4.65425 16.6544 4.75594 16.4725 4.88014 16.2553C6.69781 13.0799 8.96288 10.2988 11.6753 7.91199C14.5978 5.34051 17.976 3.30727 21.6446 1.9501C24.7078 0.816944 27.8852 0.178371 31.177 0.0343823C31.4781 0.0212545 31.7793 0.00979375 32.0806 0H33.0405Z" fill="#FF503C"/>
<path d="M32.5612 10.873C37.139 10.873 41.5719 12.3746 45.2151 15.1208C47.4171 16.7803 49.2487 18.8092 50.7101 21.2074C50.8195 21.3868 50.9238 21.5651 51.0232 21.7422C52.848 24.9894 53.7949 28.4932 53.8638 32.2535C53.8641 32.266 53.8579 32.2723 53.8454 32.2723H45.7199C45.7119 32.2723 45.7042 32.2691 45.6985 32.2634C45.6928 32.2578 45.6895 32.2501 45.6893 32.242C45.6196 28.9991 44.4156 25.8934 42.2357 23.4801C39.7493 20.727 36.2729 19.1395 32.5615 19.1398C28.8501 19.1398 25.3737 20.7276 22.8872 23.4807C20.7077 25.8944 19.504 29 19.4343 32.2429C19.4342 32.251 19.4309 32.2587 19.4251 32.2644C19.4194 32.2701 19.4117 32.2732 19.4037 32.2732L11.2782 32.2739C11.2657 32.2739 11.2596 32.2676 11.2598 32.2551C11.3285 28.4947 12.2752 24.9908 14.0998 21.7435C14.1991 21.5664 14.3035 21.3881 14.4129 21.2087C15.8741 18.8103 17.7055 16.7812 19.9072 15.1215C23.5505 12.3752 27.9833 10.8734 32.5612 10.873Z" fill="#FF503C"/>
<path d="M32.5626 21.6184C34.8756 21.6184 37.0892 22.3761 38.9274 23.7598C39.872 24.4706 40.7265 25.3642 41.3936 26.3654C42.5709 28.1326 43.1927 30.0929 43.259 32.2463C43.2594 32.2628 43.2513 32.271 43.2349 32.271C39.6802 32.272 36.1228 32.2727 32.5629 32.2729C29.0032 32.2729 25.4459 32.2725 21.891 32.2719C21.8747 32.2717 21.8668 32.2634 21.8672 32.2469C21.9333 30.0935 22.5549 28.1332 23.732 26.366C24.399 25.3648 25.2535 24.4712 26.1981 23.7601C28.0363 22.3764 30.2499 21.6184 32.5626 21.6184Z" fill="#FF503C"/>
<path d="M24.9957 39.9685C25.4974 42.3381 24.7769 44.9118 22.8928 46.4946C21.1743 47.9383 18.7778 48.2887 16.6383 47.7796C13.9849 47.1479 12.0814 44.9946 11.7632 42.2887C11.4531 39.6522 12.5231 37.0085 14.9564 35.7523C16.267 35.0756 17.7732 34.8803 19.2664 35.0162C20.1909 35.1004 21.0546 35.3506 21.8572 35.7667C23.4951 36.6159 24.6106 38.1494 24.9957 39.9685ZM17.5876 38.0225C16.2635 38.3216 15.4209 39.36 15.1852 40.6765C14.9123 42.2015 15.4587 43.8994 16.8918 44.6586C17.3798 44.917 17.9115 45.0469 18.4868 45.0484C19.3968 45.0506 20.1598 44.7555 20.7758 44.1629C21.8185 43.1595 22.0673 41.4935 21.6291 40.1604C21.3071 39.1815 20.5551 38.3785 19.5583 38.0809C18.9182 37.8896 18.2613 37.8702 17.5876 38.0225Z" fill="white"/>
<path d="M58.1308 39.7041C58.1332 39.7049 58.1359 39.7049 58.1383 39.7039C58.1408 39.703 58.1428 39.7013 58.1442 39.6991L60.832 35.1716C60.8367 35.1635 60.8435 35.1568 60.8517 35.1521C60.8598 35.1475 60.8691 35.145 60.8785 35.145H64.5168C64.5389 35.145 64.544 35.1544 64.5321 35.1732C64.2633 35.5957 62.6778 38.0884 59.7755 42.651C59.7555 42.6827 59.7455 42.7216 59.7455 42.7679C59.7499 44.9567 59.7511 46.5907 59.7492 47.6699C59.7492 47.6738 59.7485 47.6776 59.747 47.6812C59.7455 47.6848 59.7433 47.6881 59.7405 47.6909C59.7378 47.6936 59.7345 47.6958 59.7309 47.6973C59.7273 47.6988 59.7234 47.6996 59.7195 47.6996H56.5248C56.5192 47.6996 56.5137 47.6973 56.5098 47.6933C56.5058 47.6894 56.5035 47.6839 56.5035 47.6783C56.5035 45.7237 56.5035 44.1413 56.5035 42.9311C56.5035 42.8125 56.4833 42.7059 56.4429 42.6113C56.431 42.5834 56.3761 42.4929 56.2782 42.34C54.7016 39.8755 53.1729 37.4843 51.6922 35.1663C51.6832 35.1521 51.6871 35.145 51.7038 35.145H55.3902C55.3975 35.145 55.4047 35.1469 55.4111 35.1505C55.4174 35.1542 55.4227 35.1594 55.4264 35.1656C56.7084 37.3253 57.6034 38.8325 58.1114 39.6872C58.1164 39.6958 58.1228 39.7014 58.1308 39.7041Z" fill="white"/>
<path d="M0.568359 38.0976V35.1464L10.8568 35.1451C10.8609 35.1451 10.8649 35.1468 10.8679 35.1497C10.8708 35.1526 10.8724 35.1566 10.8724 35.1608V38.072C10.8724 38.0891 10.8639 38.0976 10.8468 38.0976H7.43013C7.42759 38.0976 7.42507 38.0982 7.42272 38.0991C7.42037 38.1001 7.41823 38.1016 7.41643 38.1034C7.41463 38.1052 7.4132 38.1074 7.41223 38.1098C7.41126 38.1122 7.41076 38.1147 7.41076 38.1173V47.7225C7.41076 47.7373 7.40325 47.7447 7.38825 47.7447H4.04629C4.04231 47.7447 4.03849 47.7431 4.03568 47.7403C4.03287 47.7375 4.03128 47.7337 4.03128 47.7297V38.1176C4.03128 38.1125 4.02928 38.1076 4.0257 38.1039C4.02212 38.1003 4.01728 38.0983 4.01222 38.0983L0.568359 38.0976Z" fill="white"/>
<path d="M46.2788 35.145C47.3553 35.145 48.0285 35.1454 48.2983 35.1463C48.3106 35.1463 48.3188 35.152 48.323 35.1635L53.0453 47.6696C53.0528 47.6896 53.0458 47.6996 53.0243 47.6996H49.3529C49.336 47.6996 49.3249 47.6915 49.3195 47.6755L48.744 45.9867C48.742 45.9809 48.7383 45.9758 48.7332 45.9721C48.7282 45.9685 48.7221 45.9665 48.7159 45.9664C48.5083 45.966 47.696 45.9658 46.2788 45.9658C44.8618 45.9658 44.0496 45.966 43.842 45.9664C43.8358 45.9665 43.8297 45.9685 43.8247 45.9721C43.8197 45.9758 43.8159 45.9809 43.8139 45.9867L43.2385 47.6755C43.2331 47.6915 43.2219 47.6996 43.205 47.6996H39.5336C39.5122 47.6996 39.5052 47.6896 39.5127 47.6696L44.2346 35.1635C44.2388 35.152 44.247 35.1463 44.2593 35.1463C44.5292 35.1454 45.2023 35.145 46.2788 35.145ZM44.8088 43.0689C44.8082 43.0707 44.808 43.0727 44.8082 43.0746C44.8085 43.0766 44.8092 43.0784 44.8104 43.08C44.8115 43.0816 44.813 43.0829 44.8147 43.0838C44.8165 43.0847 44.8184 43.0852 44.8204 43.0851H47.7366C47.7386 43.0852 47.7405 43.0847 47.7423 43.0838C47.744 43.0829 47.7455 43.0816 47.7466 43.08C47.7478 43.0784 47.7485 43.0766 47.7488 43.0746C47.749 43.0727 47.7488 43.0707 47.7482 43.0689L46.2901 38.7917C46.2893 38.7893 46.2877 38.7872 46.2856 38.7857C46.2836 38.7842 46.2811 38.7834 46.2785 38.7834C46.2759 38.7834 46.2734 38.7842 46.2714 38.7857C46.2693 38.7872 46.2677 38.7893 46.2669 38.7917L44.8088 43.0689Z" fill="white"/>
<path d="M38.6646 44.1208C37.6159 46.3788 35.4364 47.7075 32.944 47.711C31.8321 47.7126 29.9091 47.7127 27.1749 47.7113C27.1674 47.7113 27.1601 47.7083 27.1548 47.7029C27.1495 47.6976 27.1465 47.6904 27.1465 47.6828V35.193C27.1465 35.1883 27.1484 35.1837 27.1517 35.1804C27.155 35.177 27.1596 35.1752 27.1643 35.1752C28.9282 35.1756 30.6929 35.1758 32.4582 35.1758C32.7358 35.1758 32.9441 35.1792 33.0831 35.1861C34.0545 35.2339 35.0432 35.4333 35.928 35.8459C37.1354 36.4088 38.0335 37.2604 38.6224 38.4009C39.5357 40.1697 39.4994 42.3229 38.6646 44.1208ZM34.5806 44.264C35.6389 43.4091 36.0306 41.8191 35.7814 40.5222C35.5351 39.2404 34.7237 38.2999 33.4031 38.1114C33.2643 38.0916 33.0565 38.0815 32.7796 38.0811C31.9188 38.0796 31.1661 38.0801 30.5216 38.0824C30.5184 38.0824 30.5154 38.0836 30.5132 38.0858C30.511 38.0881 30.5097 38.0911 30.5097 38.0942V44.8232C30.5097 44.8327 30.5144 44.8375 30.5238 44.8375C31.2272 44.8432 32.0471 44.8425 32.9834 44.8357C33.5818 44.8313 34.1142 44.6407 34.5806 44.264Z" fill="white"/>
</svg>
