<svg width="210" height="32" viewBox="0 0 210 32" fill="none" xmlns="http://www.w3.org/2000/svg">
<path d="M47.7986 8.50636C47.7981 8.54182 47.8098 8.54673 47.8338 8.52109L51.3621 4.8111C51.3674 4.80589 51.3745 4.80289 51.3818 4.80273C51.3892 4.80258 51.3962 4.80529 51.4014 4.81028L55.1368 8.48509C55.1391 8.48739 55.1419 8.48919 55.1449 8.4904C55.148 8.49161 55.1513 8.49219 55.1545 8.49211C55.1578 8.49204 55.1611 8.4913 55.164 8.48996C55.167 8.48861 55.1697 8.48668 55.172 8.48427L58.6586 4.81846C58.663 4.81376 58.6684 4.81 58.6744 4.80742C58.6804 4.80483 58.6868 4.80345 58.6933 4.80338C58.6999 4.8033 58.7064 4.80452 58.7125 4.80697C58.7186 4.80942 58.7242 4.81305 58.7289 4.81765L62.0961 8.12997C62.1168 8.15069 62.1272 8.17552 62.1272 8.20443V19.4465C62.1272 19.4743 62.1171 19.4975 62.0969 19.5161L55.8315 25.2946C55.8281 25.2978 55.8237 25.2996 55.8192 25.2997C55.8146 25.2999 55.8103 25.2983 55.8069 25.2954L51.5953 21.6542C51.5875 21.6474 51.5773 21.6439 51.567 21.6445C51.5567 21.6451 51.5472 21.6498 51.5405 21.6575L48.3419 25.2791C48.3245 25.2987 48.3057 25.2998 48.2855 25.2823L43.9389 21.5241C43.9209 21.5088 43.9119 21.4892 43.9119 21.4652V15.5549C43.9119 15.527 43.898 15.5131 43.8701 15.5131C43.5543 15.5137 43.3432 15.5118 43.2368 15.5074C42.4802 15.4747 41.9838 15.7973 41.7476 16.4754C41.687 16.6489 41.6352 16.6464 41.5921 16.468C41.1813 14.7702 41.6813 12.5502 43.8636 12.542C43.8762 12.542 43.8883 12.537 43.8972 12.5281C43.9061 12.5192 43.9111 12.5072 43.9111 12.4946C43.9116 10.9415 43.9119 9.20707 43.9119 7.29125C43.9119 6.77329 43.6018 6.38052 43.2254 5.90348C42.7573 5.30942 42.6133 4.63654 42.7933 3.88483C43.2687 1.89727 45.541 0.633879 47.3412 0.0136377C47.3881 -0.00272754 47.4206 -0.00436405 47.4386 0.00872812C47.4549 0.0207293 47.4702 0.0335487 47.4844 0.0471863C47.5079 0.0695521 47.5054 0.0889177 47.477 0.105283C46.356 0.7558 45.7088 1.54378 45.861 2.94792C45.9052 3.35487 46.0644 3.71818 46.3388 4.03784C46.563 4.29805 46.9296 4.6409 47.1317 4.9232C47.5136 5.45398 47.7247 6.04749 47.7651 6.70374C47.8016 7.29616 47.8128 7.89703 47.7986 8.50636ZM44.8668 12.5363C44.8735 12.5363 44.88 12.5337 44.8847 12.5291C44.8895 12.5245 44.8922 12.5183 44.8922 12.5118C44.8927 9.03142 44.8922 7.18978 44.8905 6.98686C44.8856 6.23406 44.5002 5.75946 44.0804 5.19896C43.8993 4.95675 43.806 4.78028 43.8006 4.66954C43.7515 3.61889 44.1115 2.62634 44.749 1.80072C44.9628 1.5236 44.9342 1.49551 44.663 1.71644C43.6787 2.51752 42.4816 4.18022 43.3694 5.45671C43.6416 5.84838 43.8221 6.10313 43.9111 6.22096C44.2007 6.60555 44.2482 6.90585 44.2474 7.42381C44.2463 9.65384 44.2463 11.3498 44.2474 12.5118C44.2474 12.5183 44.25 12.5245 44.2546 12.5291C44.2592 12.5337 44.2654 12.5363 44.2719 12.5363H44.8668ZM56.293 24.4379C56.2962 24.4349 56.2988 24.4313 56.3006 24.4272C56.3023 24.4232 56.3032 24.4188 56.3031 24.4144C56.303 24.41 56.302 24.4056 56.3001 24.4017C56.2982 24.3977 56.2955 24.3941 56.2922 24.3913L52.34 20.9742C52.3367 20.9713 52.334 20.9678 52.3322 20.9639C52.3304 20.9599 52.3294 20.9556 52.3293 20.9513V9.60447C52.3294 9.60038 52.3286 9.59632 52.327 9.59253C52.3255 9.58874 52.3232 9.58529 52.3203 9.58238L49.7428 7.04659C49.7398 7.0436 49.7363 7.04123 49.7324 7.03965C49.7285 7.03806 49.7243 7.03728 49.7201 7.03736C49.7159 7.03744 49.7118 7.03837 49.7079 7.04009C49.7041 7.04182 49.7006 7.04431 49.6978 7.04741L49.2592 7.50727C49.2564 7.51027 49.2542 7.51379 49.2528 7.51764C49.2513 7.5215 49.2507 7.52559 49.2508 7.5297C49.251 7.53381 49.2519 7.53785 49.2536 7.54158C49.2554 7.54532 49.2578 7.54867 49.2608 7.55146L51.678 9.85077C51.681 9.85361 51.6834 9.85703 51.6851 9.86082C51.6868 9.86462 51.6877 9.86871 51.6878 9.87286V21.2843C51.6879 21.2887 51.6889 21.293 51.6907 21.2969C51.6925 21.3009 51.6952 21.3044 51.6984 21.3072L55.7996 24.8544C55.8054 24.8595 55.8129 24.8622 55.8206 24.862C55.8283 24.8619 55.8357 24.8589 55.8413 24.8536L56.293 24.4379ZM56.572 7.49991C56.5673 7.50516 56.5649 7.51203 56.5652 7.51906C56.5655 7.52609 56.5685 7.53272 56.5736 7.53754L58.598 9.46291C58.6006 9.46546 58.6027 9.46852 58.6041 9.47189C58.6055 9.47527 58.6062 9.47889 58.6062 9.48255V22.204C58.6063 22.2092 58.6079 22.2143 58.6107 22.2186C58.6136 22.2229 58.6177 22.2262 58.6224 22.2283C58.6271 22.2304 58.6324 22.231 58.6375 22.2302C58.6426 22.2294 58.6474 22.2271 58.6512 22.2237L59.242 21.6795C59.2448 21.6771 59.247 21.674 59.2485 21.6707C59.2501 21.6673 59.2509 21.6636 59.251 21.6599V9.22562C59.251 9.22196 59.2503 9.21833 59.2489 9.21496C59.2475 9.21158 59.2454 9.20853 59.2428 9.20598L57.0392 7.03841C57.0367 7.03591 57.0336 7.03395 57.0303 7.03264C57.027 7.03133 57.0234 7.03069 57.0198 7.03077C57.0163 7.03084 57.0127 7.03163 57.0095 7.03308C57.0062 7.03453 57.0032 7.03662 57.0008 7.03922L56.572 7.49991ZM47.8109 8.99978C47.8041 9.00679 47.8003 9.01618 47.8003 9.02596V19.8123C47.8002 19.8177 47.8014 19.8231 47.8037 19.828C47.8059 19.833 47.8092 19.8374 47.8133 19.8409L50.5398 22.1991C50.5472 22.2055 50.5569 22.2087 50.5666 22.2081C50.5764 22.2075 50.5856 22.2031 50.5922 22.1959L51.34 21.3752C51.3464 21.3682 51.3499 21.3592 51.3499 21.3498V10.0529C51.3499 10.0478 51.3488 10.0429 51.3469 10.0382C51.3449 10.0336 51.342 10.0294 51.3384 10.0259L49.0596 7.78384C49.0524 7.7769 49.0428 7.77309 49.0328 7.77325C49.0228 7.7734 49.0133 7.7775 49.0064 7.78466L47.8109 8.99978ZM58.2707 9.64293C58.2707 9.63833 58.2697 9.63379 58.2679 9.62958C58.2661 9.62536 58.2634 9.62155 58.2601 9.61838L56.3593 7.81003C56.3527 7.80379 56.344 7.80037 56.335 7.80053C56.3259 7.80068 56.3173 7.80439 56.311 7.81084L55.2505 8.92613C55.2443 8.93248 55.2408 8.94098 55.2407 8.94986V19.8008C55.2406 19.8057 55.2416 19.8106 55.2436 19.8152C55.2456 19.8197 55.2485 19.8237 55.2522 19.827L58.2134 22.4422C58.2184 22.4466 58.2245 22.4495 58.231 22.4505C58.2375 22.4515 58.2442 22.4506 58.2503 22.448C58.2563 22.4453 58.2615 22.4409 58.2651 22.4354C58.2687 22.4299 58.2707 22.4234 58.2707 22.4168V9.64293ZM44.2457 15.2145V21.3097C44.2457 21.3233 44.2487 21.3368 44.2543 21.3492C44.26 21.3617 44.2682 21.3727 44.2785 21.3817L48.2683 24.8307C48.272 24.8339 48.2768 24.8355 48.2817 24.8352C48.2866 24.8349 48.2912 24.8327 48.2945 24.829L48.7347 24.3201C48.7467 24.3059 48.7456 24.2928 48.7314 24.2808L44.9232 21.0462C44.9025 21.0282 44.8922 21.0056 44.8922 20.9783V14.5975C44.8922 14.5735 44.8802 14.5615 44.8561 14.5615C44.6047 14.5604 44.1432 14.5593 43.4717 14.5582C43.0232 14.5571 42.7047 14.6013 42.5159 14.6908C42.1521 14.8632 41.9262 15.1697 41.8384 15.6105C41.8215 15.6934 41.8422 15.7041 41.9006 15.6424C42.1903 15.3353 42.5737 15.1796 43.0511 15.1752C43.5366 15.1714 43.9217 15.1711 44.2065 15.1744C44.2326 15.1749 44.2457 15.1883 44.2457 15.2145Z" fill="white"/>
<path d="M19.8427 12.628L22.4579 9.81646C22.4599 9.81417 22.4624 9.81231 22.4651 9.81099C22.4679 9.80966 22.4708 9.8089 22.4739 9.80875C22.4769 9.8086 22.48 9.80905 22.4829 9.8101C22.4857 9.81114 22.4884 9.81275 22.4906 9.81482L25.2612 12.2622C25.276 12.2753 25.2901 12.2745 25.3038 12.2598L25.7538 11.7762C25.763 11.7663 25.7757 11.7605 25.7892 11.7599C25.8026 11.7593 25.8158 11.7639 25.8258 11.7729L25.9944 11.921C26.0173 11.9418 26.0187 11.9638 25.9985 11.9873L25.4437 12.6149C25.4295 12.6307 25.4216 12.6511 25.4216 12.6722C25.4216 19.1964 25.4219 22.5369 25.4224 22.6934C25.4241 23.3922 25.3853 23.9096 25.3062 24.2457C24.7171 26.7438 22.3261 28.2609 19.936 28.7215C19.9259 28.7232 19.9156 28.7221 19.9064 28.7184C19.8971 28.7146 19.8892 28.7083 19.8836 28.7003C19.8547 28.6599 19.8574 28.6302 19.8918 28.6111C21.0696 27.9401 21.7798 26.9956 22.0226 25.7774C22.0853 25.4649 22.1164 24.9218 22.1158 24.1483C22.1137 21.0995 22.1139 17.729 22.1167 14.037C22.1167 14.0246 22.114 14.0123 22.109 14.0009C22.1039 13.9895 22.0965 13.9792 22.0872 13.9708L20.503 12.4971C20.4954 12.4899 20.4853 12.4861 20.4747 12.4864C20.4642 12.4867 20.4541 12.4911 20.4466 12.4987L19.8493 13.1419C19.8291 13.1637 19.819 13.1893 19.819 13.2188V21.6943C19.819 21.7183 19.828 21.7385 19.846 21.7549L20.7281 22.5339C20.7348 22.5398 20.7402 22.547 20.7441 22.555C20.748 22.563 20.7502 22.5718 20.7506 22.5807C20.7511 22.5896 20.7498 22.5985 20.7467 22.6069C20.7437 22.6153 20.739 22.623 20.733 22.6296L18.2594 25.2889C18.2539 25.2946 18.2464 25.298 18.2386 25.2983C18.2308 25.2986 18.2233 25.2958 18.2176 25.2906L15.4478 22.7147C15.4261 22.6945 15.4133 22.6665 15.4122 22.6367C15.4111 22.607 15.4219 22.5779 15.4421 22.556L16.4731 21.4472C16.4978 21.4209 16.5116 21.3861 16.5116 21.3498L16.5124 7.92791C16.5124 7.90009 16.5229 7.87344 16.5419 7.85345L19.7388 4.44621C19.7437 4.44076 19.7497 4.43748 19.7568 4.43639C19.7677 4.43367 19.7751 4.43257 19.7789 4.43312C19.7903 4.43508 19.8007 4.4419 19.8082 4.45238C19.8157 4.46287 19.8198 4.47633 19.8198 4.4904L19.819 12.6182C19.819 12.6209 19.8198 12.6236 19.8213 12.6259C19.8229 12.6282 19.825 12.6299 19.8276 12.631C19.8301 12.632 19.8329 12.6323 19.8356 12.6318C19.8383 12.6313 19.8408 12.6299 19.8427 12.628ZM16.8749 22.6656C16.8673 22.6588 16.8612 22.6505 16.8569 22.6412C16.8527 22.6319 16.8504 22.6218 16.8501 22.6116C16.8499 22.6013 16.8518 22.5911 16.8556 22.5815C16.8594 22.572 16.8652 22.5633 16.8724 22.556L17.4632 21.966C17.481 21.9481 17.491 21.9237 17.491 21.8981L17.4902 7.45005C17.4902 7.39168 17.47 7.38349 17.4297 7.4255L16.9117 7.96882C16.8697 8.01301 16.8487 8.06565 16.8487 8.12675L16.8495 21.5798C16.8495 21.5956 16.8464 21.6112 16.8404 21.6258C16.8344 21.6404 16.8255 21.6537 16.8143 21.6649L15.8872 22.5928C15.8807 22.5993 15.8756 22.6071 15.8723 22.6157C15.8689 22.6243 15.8673 22.6335 15.8676 22.6427C15.8679 22.652 15.8701 22.6611 15.874 22.6695C15.878 22.678 15.8836 22.6855 15.8905 22.6918L18.2307 24.7923C18.2343 24.7955 18.2384 24.798 18.2429 24.7996C18.2474 24.8012 18.2521 24.8019 18.2569 24.8017C18.2616 24.8014 18.2662 24.8003 18.2704 24.7982C18.2746 24.7962 18.2784 24.7933 18.2815 24.7898L18.6652 24.3496C18.6708 24.343 18.6737 24.3345 18.6732 24.326C18.6728 24.3174 18.669 24.3095 18.6628 24.3038L16.8749 22.6656ZM22.4456 13.8611C22.4532 15.556 22.4549 19.1261 22.4505 24.5713C22.4497 25.4109 22.3916 26.0467 22.0602 26.725C22.0237 26.7997 22.0384 26.812 22.1044 26.7618C22.8662 26.1899 23.1182 25.2456 23.1043 24.2866C23.0879 23.2354 23.0888 20.2766 23.1068 15.4101C23.1089 14.8297 23.104 14.2021 23.092 13.5273C23.0915 13.4994 23.0806 13.4763 23.0593 13.4577L21.1372 11.7966C21.1159 11.7786 21.096 11.7797 21.0775 11.7999L20.7027 12.2033C20.7002 12.2061 20.6982 12.2094 20.6969 12.2129C20.6956 12.2165 20.695 12.2202 20.6952 12.224C20.6953 12.2277 20.6962 12.2313 20.6978 12.2347C20.6994 12.238 20.7016 12.241 20.7043 12.2434L22.4235 13.8104C22.4305 13.8168 22.436 13.8247 22.4398 13.8334C22.4436 13.8421 22.4456 13.8516 22.4456 13.8611Z" fill="white"/>
<path d="M89.3076 12.6271L91.9227 9.8156C91.9247 9.81332 91.9272 9.81146 91.93 9.81013C91.9327 9.80881 91.9357 9.80805 91.9387 9.8079C91.9418 9.80774 91.9448 9.8082 91.9477 9.80924C91.9506 9.81029 91.9532 9.81189 91.9554 9.81397L94.7261 12.2614C94.7408 12.2745 94.755 12.2737 94.7686 12.2589L95.2187 11.7753C95.2279 11.7655 95.2406 11.7596 95.254 11.759C95.2675 11.7584 95.2806 11.7631 95.2907 11.7721L95.4592 11.9202C95.4822 11.9409 95.4835 11.963 95.4633 11.9864L94.9086 12.6141C94.8943 12.6298 94.8865 12.6502 94.8865 12.6713C94.8865 19.1956 94.8867 22.536 94.8873 22.6926C94.8889 23.3919 94.8502 23.9096 94.7711 24.2456C94.1819 26.7438 91.791 28.2608 89.4008 28.7215C89.3908 28.7232 89.3805 28.7221 89.3712 28.7183C89.3619 28.7146 89.3541 28.7083 89.3485 28.7002C89.3196 28.6599 89.3223 28.6301 89.3567 28.611C90.5344 27.9401 91.2447 26.9955 91.4874 25.7774C91.5501 25.4648 91.5812 24.9218 91.5807 24.1483C91.5785 21.0994 91.5788 17.7287 91.5815 14.0362C91.5815 14.0238 91.5789 14.0115 91.5738 14.0001C91.5687 13.9887 91.5613 13.9784 91.5521 13.9699L89.9679 12.4962C89.9603 12.4891 89.9501 12.4853 89.9396 12.4856C89.929 12.4859 89.9189 12.4903 89.9114 12.4979L89.3141 13.141C89.2939 13.1628 89.2838 13.1885 89.2838 13.2179V21.6943C89.2838 21.7183 89.2928 21.7385 89.3108 21.7548L90.1929 22.5338C90.1996 22.5397 90.205 22.5469 90.2089 22.555C90.2128 22.563 90.215 22.5718 90.2155 22.5807C90.2159 22.5896 90.2146 22.5985 90.2116 22.6069C90.2086 22.6153 90.2039 22.623 90.1978 22.6296L87.7242 25.2889C87.7187 25.2946 87.7113 25.2979 87.7035 25.2982C87.6957 25.2986 87.6881 25.2958 87.6825 25.2906L84.9127 22.7147C84.8909 22.6945 84.8781 22.6665 84.877 22.6367C84.876 22.607 84.8867 22.5779 84.907 22.5559L85.938 21.4472C85.9627 21.4209 85.9764 21.386 85.9764 21.3498V7.92706C85.9764 7.89923 85.9869 7.87258 86.0059 7.8526L89.2028 4.44536C89.2077 4.4399 89.2137 4.43663 89.2208 4.43554C89.2317 4.43281 89.2391 4.43172 89.2429 4.43227C89.2543 4.43423 89.2647 4.44105 89.2722 4.45153C89.2797 4.46201 89.2838 4.47547 89.2838 4.48954V12.6173C89.2838 12.6201 89.2847 12.6228 89.2862 12.625C89.2877 12.6273 89.2899 12.6291 89.2924 12.6301C89.295 12.6312 89.2978 12.6315 89.3004 12.6309C89.3031 12.6304 89.3056 12.6291 89.3076 12.6271ZM87.7095 24.7857C87.712 24.788 87.7149 24.7897 87.718 24.7909C87.7212 24.792 87.7245 24.7925 87.7278 24.7924C87.7312 24.7922 87.7345 24.7914 87.7375 24.79C87.7405 24.7885 87.7433 24.7865 87.7455 24.784L88.1276 24.3504C88.1299 24.3479 88.1317 24.345 88.1328 24.3419C88.134 24.3387 88.1345 24.3354 88.1343 24.332C88.1342 24.3287 88.1333 24.3254 88.1319 24.3224C88.1305 24.3193 88.1285 24.3166 88.126 24.3144L86.3086 22.6255C86.3061 22.6232 86.304 22.6204 86.3026 22.6172C86.3012 22.6141 86.3004 22.6107 86.3003 22.6072C86.3002 22.6038 86.3009 22.6004 86.3022 22.5972C86.3034 22.594 86.3054 22.5911 86.3078 22.5887L86.9485 21.9381C86.9509 21.9358 86.9527 21.933 86.954 21.9299C86.9553 21.9268 86.9559 21.9235 86.9559 21.9201V7.41892C86.9559 7.41378 86.9544 7.40875 86.9515 7.40449C86.9486 7.40024 86.9445 7.39696 86.9397 7.3951C86.9349 7.39323 86.9297 7.39287 86.9247 7.39406C86.9197 7.39524 86.9151 7.39792 86.9117 7.40173L86.3201 8.0367C86.3158 8.04141 86.3135 8.04754 86.3135 8.05389V21.6092C86.3136 21.6125 86.3129 21.6158 86.3117 21.6189C86.3104 21.622 86.3085 21.6248 86.3062 21.6272L85.3145 22.6353C85.3121 22.6378 85.3102 22.6407 85.309 22.6439C85.3077 22.6472 85.3072 22.6506 85.3073 22.6541C85.3075 22.6575 85.3083 22.6609 85.3098 22.664C85.3114 22.6671 85.3135 22.6699 85.3161 22.6721L87.7095 24.7857ZM91.9096 13.8627C91.9167 15.5582 91.9178 19.129 91.9129 24.5754C91.9121 25.4157 91.854 26.0515 91.5226 26.7299C91.486 26.8046 91.5008 26.8169 91.5668 26.7667C92.3286 26.1947 92.5806 25.2505 92.5667 24.2906C92.5509 23.2394 92.5522 20.2801 92.5708 15.4125C92.573 14.8315 92.5681 14.2037 92.5561 13.5289C92.5555 13.501 92.5446 13.4779 92.5233 13.4593L90.6012 11.7974C90.58 11.7794 90.56 11.7805 90.5415 11.8007L90.1659 12.2041C90.1634 12.2069 90.1614 12.2102 90.1601 12.2137C90.1588 12.2173 90.1582 12.221 90.1584 12.2247C90.1585 12.2285 90.1594 12.2321 90.161 12.2354C90.1626 12.2388 90.1648 12.2418 90.1676 12.2442L91.8875 13.812C91.8945 13.8184 91.9 13.8263 91.9038 13.835C91.9076 13.8437 91.9096 13.8532 91.9096 13.8627Z" fill="white"/>
<path d="M99.5888 9.49874C99.5859 9.50181 99.5825 9.50428 99.5787 9.50603C99.5749 9.50777 99.5708 9.50875 99.5666 9.5089C99.5624 9.50906 99.5582 9.50838 99.5543 9.50692C99.5504 9.50546 99.5467 9.50324 99.5437 9.50039L97.0981 7.2278C97.095 7.22495 97.0925 7.22152 97.0908 7.21771C97.089 7.2139 97.0881 7.20978 97.0879 7.20559C97.0878 7.2014 97.0884 7.19723 97.0899 7.1933C97.0914 7.18937 97.0936 7.18577 97.0964 7.1827L99.3389 4.76947C99.3418 4.7664 99.3452 4.76392 99.349 4.76217C99.3528 4.76043 99.357 4.75945 99.3611 4.7593C99.3653 4.75915 99.3695 4.75982 99.3734 4.76128C99.3774 4.76274 99.381 4.76496 99.384 4.76781L101.83 7.0404C101.833 7.04326 101.835 7.04668 101.837 7.0505C101.839 7.05431 101.84 7.05842 101.84 7.06261C101.84 7.0668 101.839 7.07098 101.838 7.07491C101.836 7.07883 101.834 7.08243 101.831 7.0855L99.5888 9.49874ZM99.9729 8.56921C99.9763 8.56558 99.9789 8.56132 99.9806 8.55668C99.9823 8.55204 99.9831 8.54711 99.9829 8.54217C99.9827 8.53723 99.9815 8.53238 99.9794 8.52789C99.9774 8.5234 99.9744 8.51937 99.9708 8.51601L98.0356 6.73031C98.0283 6.72354 98.0186 6.71997 98.0086 6.72037C97.9986 6.72077 97.9892 6.72511 97.9825 6.73245L97.5785 7.17023C97.5751 7.17386 97.5725 7.17812 97.5708 7.18276C97.5691 7.1874 97.5683 7.19233 97.5685 7.19727C97.5687 7.20221 97.5699 7.20706 97.572 7.21155C97.574 7.21604 97.577 7.22007 97.5806 7.22342L99.5158 9.00912C99.5231 9.01589 99.5328 9.01947 99.5428 9.01907C99.5528 9.01867 99.5622 9.01432 99.5689 9.00699L99.9729 8.56921Z" fill="white"/>
<path d="M12.6115 21.1444C14.0901 20.3147 15.1457 18.9351 15.6661 17.3379C15.6748 17.3111 15.6934 17.2989 15.7217 17.301C15.7817 17.3059 15.809 17.3384 15.8036 17.3984C15.4419 21.3572 12.7719 25.4165 8.39748 25.4247C7.40029 25.4269 6.44183 25.2444 5.52211 24.8773C2.07396 23.501 0.673914 19.7452 0.967669 16.2749C1.25979 12.8252 3.90523 10.4563 6.62103 8.64302C6.62403 8.64111 6.62639 8.63835 6.62782 8.6351C6.62925 8.63185 6.62969 8.62825 6.62907 8.62475C6.62846 8.62125 6.62683 8.61801 6.62438 8.61544C6.62193 8.61286 6.61877 8.61107 6.6153 8.61029C5.50983 8.32308 4.19325 8.34927 3.19497 8.96296C2.27689 9.52647 1.78566 10.3458 1.72129 11.421C1.71911 11.4548 1.7011 11.4717 1.66728 11.4717H1.58627C1.57285 11.4718 1.55991 11.4668 1.55004 11.4576C1.54018 11.4485 1.53412 11.436 1.53309 11.4227C1.31216 8.21671 3.01005 4.4879 6.82642 4.81765C7.32828 4.86075 7.88524 5.02249 8.4973 5.30288C10.4047 6.17597 12.5902 7.58419 14.7431 6.38053C15.2199 6.11378 15.5821 5.73438 15.8297 5.24233C15.8401 5.22215 15.8565 5.2126 15.8788 5.21369C15.8859 5.21424 15.8933 5.21642 15.9009 5.22024C15.9195 5.2306 15.9285 5.24615 15.9279 5.26688C15.9132 7.15379 15.2807 8.79931 13.4568 9.5742C13.28 9.64948 12.9956 9.73731 12.6033 9.83768C12.5761 9.84478 12.5624 9.86223 12.5624 9.89005V21.1158C12.5624 21.1534 12.5788 21.163 12.6115 21.1444ZM2.32844 9.26981C3.67938 7.95896 5.53111 7.89431 7.26418 8.47446C7.66404 8.60811 8.30474 8.83531 9.18628 9.15607C11.5715 10.0242 14.5999 9.7264 15.446 6.90176C15.4689 6.82594 15.4869 6.74357 15.5 6.65465C15.5011 6.64974 15.4983 6.64156 15.4918 6.6301C15.4885 6.6241 15.4839 6.61892 15.4779 6.61456C15.4588 6.60037 15.4432 6.60364 15.4312 6.62437C14.0967 8.98015 11.6517 9.21253 9.29511 8.39509C8.33447 8.06206 7.32637 7.61038 6.32482 7.39599C4.73494 7.0556 3.09924 7.74294 2.30553 9.18226C2.28752 9.21499 2.28207 9.2409 2.28916 9.25999C2.29058 9.26382 2.29291 9.26726 2.29594 9.26999C2.29896 9.27273 2.30259 9.27467 2.3065 9.27564C2.3104 9.27662 2.31445 9.2766 2.31828 9.27558C2.32211 9.27456 2.3256 9.27258 2.32844 9.26981ZM6.06298 12.3857L5.93287 12.146C5.92033 12.1231 5.92551 12.1054 5.94842 12.0928L10.1567 9.80741C10.1889 9.78995 10.187 9.77741 10.151 9.76977C9.83243 9.6994 9.50567 9.6053 9.17073 9.48747C8.75015 9.33909 8.03608 9.08788 7.02853 8.73385C6.96961 8.71312 6.91833 8.72512 6.87469 8.76985C6.52175 9.13152 6.17672 9.51965 5.83959 9.93424C4.81295 11.1976 4.20444 12.619 4.01405 14.1982C3.73094 16.5572 4.15725 18.9572 5.97133 20.6256C5.99806 20.6496 6.02725 20.6532 6.05889 20.6363L6.86978 20.196C6.88888 20.1857 6.89842 20.1696 6.89842 20.1478V12.0298C6.89841 12.0242 6.89695 12.0188 6.89419 12.014C6.89142 12.0091 6.88744 12.0051 6.88265 12.0023C6.87785 11.9995 6.87241 11.998 6.86685 11.9979C6.86129 11.9979 6.85582 11.9993 6.85096 12.002L6.11535 12.4013C6.11089 12.4037 6.106 12.4053 6.10095 12.4058C6.0959 12.4063 6.09079 12.4059 6.08592 12.4044C6.08105 12.403 6.07652 12.4006 6.07258 12.3974C6.06864 12.3942 6.06538 12.3902 6.06298 12.3857ZM10.3089 18.7608L6.34691 20.912C6.34336 20.9139 6.34038 20.9167 6.33825 20.9202C6.33613 20.9236 6.33493 20.9275 6.33476 20.9316C6.3346 20.9357 6.33548 20.9398 6.33732 20.9436C6.33916 20.9473 6.3419 20.9505 6.34528 20.9529C7.29664 21.6135 8.35547 21.9316 9.52177 21.907C10.4862 21.8863 11.3803 21.6951 12.204 21.3334C12.2188 21.3274 12.2261 21.3162 12.2261 21.2999V9.94078C12.2261 9.93609 12.2252 9.93144 12.2233 9.92714C12.2214 9.92284 12.2186 9.91899 12.2152 9.91583C12.2117 9.91266 12.2076 9.91026 12.2031 9.90879C12.1987 9.90731 12.194 9.90678 12.1893 9.90724C11.5723 9.96561 10.963 9.93697 10.3613 9.82132C10.3389 9.81695 10.3278 9.82623 10.3278 9.84914V18.7289C10.3277 18.7356 10.326 18.742 10.3226 18.7477C10.3193 18.7533 10.3146 18.7578 10.3089 18.7608ZM9.69196 24.379C7.89261 24.649 5.96888 24.0877 4.56147 22.9536C2.44217 21.2467 1.61328 18.4482 1.9054 15.8028C2.11078 13.9372 3.05096 12.5069 4.15316 11.043C4.1717 11.0179 4.16543 11.007 4.13434 11.0103L4.0476 11.0184C4.04072 11.0195 4.03469 11.0224 4.03042 11.0266C2.24334 12.7597 1.24015 14.69 1.26879 17.2127C1.28515 18.6364 1.61082 20.1699 2.29652 21.4169C3.47264 23.5575 5.28808 24.7663 7.74287 25.0434C9.24738 25.2131 10.6038 24.9065 11.8121 24.1237C12.8431 23.4555 13.6583 22.5851 14.2579 21.5126C14.2597 21.5093 14.2608 21.5056 14.2612 21.502C14.2616 21.4983 14.2613 21.4947 14.2603 21.4914C14.2478 21.4499 14.2219 21.4488 14.1826 21.4881C12.938 22.7564 11.506 24.1065 9.69196 24.379ZM7.24946 11.7819C7.24522 11.7842 7.2417 11.7877 7.23925 11.7918C7.23681 11.796 7.23553 11.8008 7.23555 11.8056V19.9653C7.23553 19.97 7.23674 19.9746 7.23906 19.9787C7.24139 19.9828 7.24474 19.9862 7.2488 19.9886C7.25285 19.991 7.25746 19.9923 7.26217 19.9924C7.26688 19.9925 7.27152 19.9913 7.27564 19.989L7.8026 19.7026C7.80683 19.7003 7.81036 19.6968 7.8128 19.6927C7.81525 19.6885 7.81653 19.6837 7.81651 19.6789V11.5192C7.81653 11.5145 7.81532 11.5099 7.81299 11.5058C7.81067 11.5017 7.80731 11.4983 7.80326 11.4959C7.79921 11.4935 7.7946 11.4922 7.78989 11.4921C7.78518 11.492 7.78054 11.4932 7.77642 11.4955L7.24946 11.7819Z" fill="white"/>
<path d="M172.458 10.1969C172.458 10.1978 172.458 10.1987 172.459 10.1994C172.459 10.2001 172.46 10.2007 172.461 10.201C172.462 10.2014 172.463 10.2015 172.463 10.2013C172.464 10.2012 172.465 10.2007 172.466 10.2001L173.116 9.48661C173.125 9.47788 173.129 9.46724 173.129 9.4547V5.97627C173.129 5.95936 173.138 5.95091 173.155 5.95091H173.437C173.456 5.95091 173.466 5.96045 173.466 5.97954V9.09139C173.466 9.14321 173.484 9.15031 173.519 9.11267L177.521 4.80943C177.523 4.80697 177.526 4.80497 177.529 4.80355C177.532 4.80214 177.535 4.80133 177.538 4.80117C177.542 4.80102 177.545 4.80153 177.548 4.80267C177.551 4.8038 177.554 4.80555 177.556 4.8078L180.968 7.918C180.977 7.92655 180.985 7.93676 180.99 7.94802C180.995 7.95928 180.997 7.97134 180.997 7.98346V21.2066C180.997 21.2447 180.982 21.2753 180.952 21.2982L175.673 25.2807C175.654 25.2949 175.636 25.2935 175.619 25.2766C175.323 24.9727 175.118 24.7633 175.003 24.6482C174.599 24.2412 174.098 23.9646 173.501 23.8184C173.497 23.8175 173.493 23.8174 173.489 23.8182C173.485 23.8191 173.481 23.8208 173.478 23.8234C173.475 23.8259 173.472 23.8291 173.47 23.8328C173.468 23.8365 173.467 23.8405 173.467 23.8446V29.8359C173.467 29.8413 173.466 29.8466 173.463 29.8511C173.46 29.8556 173.456 29.8592 173.451 29.8613C173.446 29.8635 173.441 29.8642 173.435 29.8633C173.43 29.8624 173.425 29.86 173.422 29.8564L172.24 28.7787C172.203 28.7455 172.167 28.7457 172.131 28.7796C170.536 30.2562 169.376 31.3246 168.651 31.9847C168.626 32.0071 168.603 32.0049 168.581 31.9781C168.573 31.9692 168.569 31.9582 168.569 31.9471V23.7759C168.569 23.7719 168.568 23.768 168.567 23.7644C168.565 23.7608 168.562 23.7576 168.559 23.7552C168.556 23.7527 168.552 23.751 168.548 23.7502C168.544 23.7494 168.54 23.7495 168.537 23.7505C167.303 24.0604 166.235 24.6694 165.332 25.5777C165.306 25.605 165.277 25.6235 165.246 25.6334C165.241 25.6348 165.236 25.6352 165.231 25.6343C165.227 25.6335 165.222 25.6316 165.219 25.6287C165.215 25.6258 165.212 25.622 165.21 25.6177C165.208 25.6134 165.207 25.6086 165.207 25.6039C165.25 25.0126 165.374 24.4275 165.581 23.8487C166.109 22.3737 167.095 21.3702 168.539 20.8383C168.548 20.835 168.555 20.8291 168.56 20.8214C168.566 20.8136 168.568 20.8044 168.568 20.795V14.9207C168.568 14.8934 168.555 14.8792 168.528 14.8781C168.111 14.8563 167.806 14.8601 167.611 14.8896C166.903 14.996 166.468 15.4787 166.16 16.0752C166.09 16.21 166.037 16.2037 166.002 16.0564C165.905 15.6549 165.863 15.2093 165.877 14.7194C165.921 13.2244 166.983 12.0674 168.53 12.1124C168.556 12.1135 168.568 12.101 168.568 12.0748V8.83036C168.568 8.82338 168.567 8.81649 168.564 8.81015C168.561 8.8038 168.557 8.79815 168.552 8.79354L167.338 7.68644C167.331 7.68025 167.322 7.67696 167.313 7.67727C167.304 7.67757 167.295 7.68145 167.289 7.68807L166.722 8.26413C166.709 8.27777 166.695 8.27777 166.682 8.26413L166.5 8.08575C166.485 8.07102 166.485 8.05602 166.499 8.04074L169.559 4.82334C169.574 4.80752 169.589 4.80616 169.604 4.81925L172.424 7.39023C172.435 7.4 172.443 7.4118 172.449 7.4249C172.455 7.43799 172.458 7.4521 172.458 7.46632V10.1969ZM167.554 7.39432C167.549 7.39975 167.546 7.40693 167.547 7.41429C167.547 7.42166 167.55 7.4286 167.555 7.43359L168.897 8.65689C168.899 8.6595 168.902 8.66266 168.903 8.66618C168.905 8.6697 168.906 8.6735 168.906 8.67735V12.083C168.906 12.0903 168.909 12.0974 168.914 12.1026C168.919 12.1078 168.926 12.1108 168.933 12.1108H169.522C169.529 12.1108 169.536 12.1078 169.541 12.1026C169.547 12.0974 169.55 12.0903 169.55 12.083V8.31895C169.55 8.3151 169.549 8.3113 169.547 8.30778C169.546 8.30426 169.543 8.3011 169.541 8.2985L168.036 6.92627C168.03 6.92129 168.023 6.91866 168.016 6.91897C168.008 6.91927 168.002 6.92249 167.997 6.92791L167.554 7.39432ZM175.564 7.43769C175.559 7.44311 175.556 7.4503 175.556 7.45766C175.557 7.46503 175.56 7.47197 175.565 7.47696L177.47 9.21413C177.472 9.21673 177.475 9.21989 177.476 9.22341C177.478 9.22694 177.479 9.23074 177.479 9.23459V23.4101C177.479 23.4152 177.48 23.4202 177.483 23.4245C177.486 23.4288 177.489 23.4323 177.494 23.4346C177.498 23.4369 177.504 23.4379 177.509 23.4375C177.514 23.437 177.519 23.4352 177.523 23.4322L178.111 22.9879C178.115 22.9854 178.117 22.9821 178.119 22.9782C178.121 22.9744 178.122 22.9701 178.122 22.9658V8.86146C178.122 8.85761 178.122 8.85381 178.12 8.85029C178.119 8.84677 178.116 8.8436 178.113 8.841L176.053 6.96228C176.048 6.95729 176.04 6.95466 176.033 6.95497C176.026 6.95528 176.019 6.95849 176.014 6.96391L175.564 7.43769ZM177.07 22.105C177.119 22.1568 177.143 22.1473 177.143 22.0764V9.3966C177.143 9.38218 177.14 9.36788 177.134 9.35463C177.128 9.34139 177.119 9.32948 177.109 9.31968L175.358 7.72408C175.35 7.71655 175.339 7.71259 175.328 7.71305C175.317 7.71351 175.306 7.71835 175.299 7.72653L173.494 9.7059C173.476 9.725 173.467 9.74763 173.467 9.77382V20.475C173.467 20.482 173.47 20.4887 173.475 20.4939C173.48 20.499 173.486 20.5022 173.494 20.5029C174.889 20.6313 176.094 21.0609 177.07 22.105ZM173.084 29.066C173.088 29.0698 173.093 29.0723 173.098 29.0733C173.104 29.0743 173.109 29.0737 173.114 29.0715C173.12 29.0693 173.124 29.0657 173.127 29.0611C173.13 29.0565 173.132 29.0511 173.132 29.0455V10.1167C173.132 10.1108 173.13 10.1051 173.127 10.1003C173.124 10.0954 173.119 10.0917 173.114 10.0896C173.108 10.0874 173.102 10.087 173.097 10.0883C173.091 10.0897 173.086 10.0927 173.082 10.097L172.466 10.7598C172.461 10.7652 172.458 10.7722 172.459 10.7795V28.4727C172.459 28.4766 172.459 28.4803 172.461 28.4839C172.462 28.4874 172.465 28.4905 172.467 28.4932L173.084 29.066ZM168.906 14.5795V31.1992C168.906 31.1997 168.906 31.2001 168.906 31.2005C168.906 31.2009 168.907 31.2012 168.907 31.2014C168.908 31.2016 168.908 31.2016 168.909 31.2015C168.909 31.2014 168.91 31.2012 168.911 31.2008L169.527 30.6321C169.542 30.6179 169.55 30.6005 169.55 30.5797V13.8774C169.55 13.8496 169.536 13.8354 169.508 13.8348C169.218 13.8272 168.696 13.8228 167.941 13.8218C166.866 13.8201 166.29 14.3356 166.215 15.3683C166.208 15.4725 166.23 15.4793 166.282 15.3887C166.584 14.8639 167.054 14.5811 167.693 14.5402C168.016 14.5195 168.405 14.5167 168.861 14.532C168.891 14.5331 168.906 14.5489 168.906 14.5795ZM168.541 23.3889C168.56 23.385 168.569 23.3739 168.569 23.3553V22.6238C168.569 22.6085 168.562 22.6025 168.547 22.6058C167.362 22.8807 166.475 23.5389 165.886 24.5802C165.811 24.7123 165.832 24.7294 165.948 24.6318C166.689 24.0083 167.554 23.594 168.541 23.3889ZM175.646 24.7856C175.659 24.8015 175.674 24.8031 175.691 24.7905L176.343 24.2988C176.364 24.2829 176.366 24.2644 176.35 24.2431C175.639 23.2863 174.684 22.7452 173.483 22.6197C173.473 22.6186 173.468 22.6232 173.468 22.6336V23.3905C173.468 23.4052 173.475 23.4145 173.489 23.4183C173.994 23.5432 174.333 23.6603 174.507 23.7694C174.941 24.0421 175.321 24.3809 175.646 24.7856Z" fill="white"/>
<path d="M134.81 21.9381L134.991 22.1173C135.001 22.127 135.007 22.1401 135.007 22.1538C135.007 22.1675 135.002 22.1808 134.993 22.1909L132.123 25.2774C132.114 25.2871 132.102 25.2931 132.088 25.294C132.075 25.2949 132.062 25.2907 132.051 25.2823L129.345 23.1107C129.335 23.1022 129.321 23.0982 129.308 23.0994C129.294 23.1007 129.281 23.107 129.272 23.1172L128.757 23.7015C128.752 23.7068 128.747 23.7112 128.74 23.7143C128.734 23.7174 128.727 23.7192 128.72 23.7196C128.713 23.7199 128.706 23.7189 128.699 23.7165C128.692 23.7141 128.686 23.7104 128.681 23.7055L128.499 23.5362C128.494 23.5314 128.49 23.5258 128.487 23.5194C128.484 23.5131 128.482 23.5062 128.482 23.4992C128.482 23.4922 128.483 23.4852 128.485 23.4787C128.487 23.4721 128.491 23.466 128.496 23.4609L129.128 22.7817C129.138 22.7717 129.143 22.7585 129.142 22.7449V12.0993C129.142 12.0852 129.137 12.0717 129.127 12.0617C129.117 12.0518 129.103 12.0462 129.089 12.0462H127.354C127.344 12.0461 127.334 12.0434 127.326 12.0383C127.318 12.0333 127.311 12.0261 127.307 12.0175C127.302 12.0089 127.3 11.9993 127.301 11.9896C127.301 11.9799 127.305 11.9706 127.31 11.9627L128.372 10.417C128.376 10.41 128.383 10.4042 128.39 10.4002C128.398 10.3963 128.406 10.3941 128.415 10.3941H129.087C129.094 10.3941 129.101 10.3927 129.107 10.39C129.113 10.3874 129.119 10.3834 129.124 10.3785C129.129 10.3736 129.133 10.3677 129.136 10.3612C129.138 10.3548 129.14 10.3479 129.14 10.3409V8.38116C129.14 8.36756 129.145 8.35438 129.154 8.34434L132.354 4.90355C132.361 4.89563 132.371 4.89007 132.381 4.88763C132.392 4.88518 132.403 4.88596 132.413 4.88986C132.423 4.89375 132.431 4.90058 132.437 4.90946C132.443 4.91833 132.446 4.92882 132.446 4.93956V10.3409C132.446 10.3479 132.448 10.3548 132.451 10.3612C132.453 10.3677 132.457 10.3736 132.462 10.3785C132.467 10.3834 132.473 10.3874 132.479 10.39C132.486 10.3927 132.493 10.3941 132.5 10.3941H134.909C134.919 10.394 134.929 10.3966 134.937 10.4016C134.945 10.4066 134.952 10.4138 134.957 10.4224C134.961 10.431 134.964 10.4407 134.963 10.4504C134.962 10.4602 134.959 10.4695 134.954 10.4775L133.892 12.0232C133.887 12.0303 133.88 12.036 133.873 12.04C133.865 12.044 133.857 12.0461 133.848 12.0462H132.501C132.487 12.0462 132.474 12.0518 132.464 12.0617C132.454 12.0717 132.448 12.0852 132.448 12.0993V21.3048C132.448 21.313 132.45 21.3212 132.454 21.3286C132.457 21.3359 132.463 21.3424 132.469 21.3473L134.102 22.5813C134.113 22.5893 134.126 22.5931 134.139 22.5917C134.153 22.5903 134.165 22.584 134.174 22.5739L134.733 21.9406C134.737 21.9352 134.743 21.9309 134.75 21.9278C134.756 21.9248 134.763 21.9231 134.771 21.9229C134.778 21.9226 134.785 21.9239 134.792 21.9265C134.798 21.9291 134.804 21.9331 134.81 21.9381ZM130.091 10.3916C130.098 10.3916 130.105 10.3887 130.11 10.3835C130.116 10.3783 130.119 10.3712 130.119 10.3638V7.89511C130.119 7.88952 130.117 7.88406 130.114 7.87944C130.11 7.87482 130.106 7.87126 130.101 7.86923C130.096 7.8672 130.09 7.86678 130.084 7.86804C130.079 7.86931 130.074 7.87218 130.07 7.8763L129.486 8.51618C129.481 8.5213 129.479 8.52802 129.479 8.53499V10.3638C129.479 10.3712 129.482 10.3783 129.487 10.3835C129.492 10.3887 129.499 10.3916 129.506 10.3916H130.091ZM132.497 24.3978C132.501 24.3939 132.504 24.3893 132.505 24.3843C132.507 24.3793 132.508 24.374 132.508 24.3687C132.507 24.3634 132.506 24.3582 132.503 24.3535C132.501 24.3488 132.497 24.3446 132.493 24.3413L130.132 22.4462C130.128 22.4426 130.124 22.438 130.122 22.4328C130.119 22.4276 130.118 22.4218 130.118 22.416V12.0862C130.118 12.076 130.114 12.0663 130.106 12.0591C130.099 12.0518 130.089 12.0478 130.079 12.0478H129.514C129.504 12.0478 129.494 12.0518 129.487 12.0591C129.479 12.0663 129.475 12.076 129.475 12.0862V22.7711C129.475 22.7769 129.477 22.7827 129.479 22.7879C129.482 22.7932 129.485 22.7978 129.49 22.8014L132.033 24.8446C132.041 24.8507 132.051 24.8536 132.06 24.8529C132.07 24.8521 132.079 24.8477 132.086 24.8405L132.497 24.3978Z" fill="white"/>
<path d="M209.011 22.5861C209.033 22.6041 209.054 22.6028 209.073 22.582L209.653 21.9454C209.677 21.9193 209.701 21.9187 209.725 21.9438L209.905 22.1238C209.924 22.1429 209.924 22.1623 209.905 22.1819L207.048 25.279C207.032 25.2976 207.014 25.2989 206.994 25.2831L204.241 23.1286C204.231 23.1211 204.219 23.1175 204.207 23.1186C204.195 23.1197 204.184 23.1253 204.176 23.1344L203.641 23.7268C203.639 23.7292 203.636 23.7311 203.633 23.7325C203.63 23.7338 203.627 23.7346 203.623 23.7346C203.62 23.7347 203.617 23.7341 203.614 23.7329C203.611 23.7317 203.608 23.7299 203.606 23.7276L203.406 23.5247C203.389 23.5067 203.388 23.4887 203.405 23.4707L204.011 22.8112C204.039 22.7793 204.055 22.7382 204.055 22.6958L204.053 12.0715C204.053 12.0643 204.05 12.0575 204.045 12.0524C204.04 12.0473 204.033 12.0445 204.026 12.0445L202.293 12.0428C202.282 12.0429 202.271 12.04 202.261 12.0342C202.251 12.0285 202.243 12.0202 202.238 12.0103C202.233 12.0004 202.23 11.9892 202.231 11.9779C202.231 11.9666 202.235 11.9557 202.241 11.9463L203.264 10.4268C203.281 10.4028 203.303 10.3908 203.332 10.3908H203.999C204.036 10.3908 204.054 10.3728 204.054 10.3368L204.052 8.38849C204.052 8.3574 204.063 8.33067 204.084 8.30831L207.235 4.95016C207.32 4.86015 207.362 4.87679 207.362 5.00008V10.3466C207.362 10.376 207.376 10.3908 207.406 10.3908L209.791 10.3916C209.803 10.3915 209.815 10.3947 209.825 10.4008C209.836 10.407 209.844 10.4158 209.85 10.4264C209.856 10.437 209.858 10.449 209.858 10.461C209.857 10.473 209.853 10.4847 209.847 10.4947L208.823 12.0142C208.809 12.0349 208.789 12.0453 208.765 12.0453L207.395 12.0445C207.386 12.0445 207.378 12.0481 207.371 12.0545C207.365 12.061 207.362 12.0697 207.362 12.0788L207.361 21.2761C207.361 21.3094 207.374 21.3361 207.401 21.3563L209.011 22.5861ZM205.007 10.3924C205.01 10.3924 205.014 10.3917 205.017 10.3904C205.02 10.389 205.023 10.387 205.026 10.3845C205.028 10.382 205.03 10.379 205.031 10.3757C205.033 10.3725 205.034 10.369 205.034 10.3654V7.87954C205.034 7.87399 205.032 7.86856 205.029 7.86398C205.026 7.85939 205.021 7.85588 205.016 7.85391C205.011 7.85194 205.005 7.85162 205 7.85299C204.995 7.85435 204.99 7.85733 204.986 7.86153L204.399 8.5276C204.394 8.53238 204.392 8.53847 204.392 8.54478V10.3654C204.392 10.369 204.393 10.3725 204.394 10.3757C204.395 10.379 204.397 10.382 204.4 10.3845C204.402 10.387 204.405 10.389 204.409 10.3904C204.412 10.3917 204.415 10.3924 204.419 10.3924H205.007ZM205.035 22.4037L205.034 12.0723C205.034 12.0659 205.031 12.0598 205.026 12.0552C205.022 12.0506 205.016 12.048 205.009 12.0478L204.41 12.0453C204.4 12.0453 204.395 12.0505 204.395 12.0608L204.388 22.7932C204.388 22.8018 204.39 22.8104 204.394 22.8183C204.398 22.8263 204.404 22.8333 204.411 22.839L206.965 24.8216C206.985 24.8374 207.004 24.8361 207.021 24.8175L207.429 24.3822C207.446 24.3648 207.444 24.3484 207.425 24.3331L205.077 22.4896C205.064 22.4794 205.053 22.4664 205.046 22.4515C205.039 22.4366 205.035 22.4203 205.035 22.4037Z" fill="white"/>
<path d="M63.1128 22.9232L62.914 22.7269C62.9079 22.721 62.9045 22.713 62.9043 22.7045C62.9041 22.6961 62.9073 22.6879 62.9132 22.6818L63.4369 22.1189C63.4421 22.113 63.445 22.1055 63.445 22.0976V13.9486C63.445 13.9435 63.4461 13.9384 63.4484 13.9339C63.4507 13.9293 63.454 13.9254 63.4581 13.9224L69.1925 9.73615C69.1981 9.73208 69.2049 9.72996 69.2119 9.73011C69.2188 9.73026 69.2255 9.73266 69.231 9.73696L72.4631 12.3309C72.4694 12.3359 72.4774 12.3384 72.4854 12.3377C72.4935 12.3371 72.501 12.3335 72.5065 12.3276L73.0588 11.7335C73.0617 11.7304 73.0652 11.7279 73.0691 11.7262C73.073 11.7244 73.0773 11.7235 73.0815 11.7234C73.0858 11.7233 73.09 11.7241 73.094 11.7257C73.098 11.7273 73.1016 11.7297 73.1046 11.7327L73.3043 11.9291C73.3103 11.935 73.3138 11.943 73.314 11.9514C73.3141 11.9599 73.3109 11.968 73.3051 11.9741L72.666 12.6614C72.6608 12.6673 72.6579 12.6748 72.6578 12.6827V21.1231C72.6577 21.1275 72.6586 21.1319 72.6603 21.136C72.662 21.14 72.6645 21.1437 72.6677 21.1468L74.2559 22.6238C74.259 22.6267 74.2626 22.629 74.2666 22.6306C74.2706 22.6321 74.2749 22.6328 74.2792 22.6326C74.2834 22.6325 74.2876 22.6315 74.2915 22.6297C74.2954 22.6279 74.2989 22.6253 74.3017 22.6221L74.7763 22.1115C74.7819 22.1055 74.7897 22.1018 74.7979 22.1014C74.8062 22.1009 74.8143 22.1037 74.8205 22.1091L75.0218 22.2834C75.025 22.2862 75.0277 22.2896 75.0295 22.2934C75.0314 22.2973 75.0325 22.3015 75.0327 22.3057C75.033 22.31 75.0323 22.3143 75.0309 22.3183C75.0294 22.3224 75.0272 22.326 75.0243 22.3292L72.2749 25.2856C72.2691 25.2917 72.2612 25.2954 72.2527 25.2957C72.2443 25.296 72.2361 25.2929 72.2299 25.2872L69.375 22.6835C69.3688 22.678 69.3608 22.6751 69.3526 22.6754C69.3443 22.6757 69.3365 22.6792 69.3308 22.6851L66.7737 25.2847C66.768 25.2907 66.7602 25.2941 66.752 25.2944C66.7437 25.2948 66.7357 25.2919 66.7295 25.2864L63.5858 22.5084C63.5795 22.5027 63.5712 22.4998 63.5628 22.5003C63.5543 22.5008 63.5464 22.5045 63.5408 22.5108L63.1587 22.9224C63.1557 22.9255 63.1522 22.928 63.1483 22.9298C63.1444 22.9315 63.1402 22.9325 63.1359 22.9325C63.1316 22.9326 63.1274 22.9318 63.1234 22.9302C63.1195 22.9286 63.1159 22.9263 63.1128 22.9232ZM72.6873 24.356C72.6901 24.353 72.6923 24.3495 72.6937 24.3456C72.6952 24.3418 72.6959 24.3377 72.6957 24.3336C72.6956 24.3295 72.6946 24.3254 72.6929 24.3217C72.6911 24.318 72.6887 24.3146 72.6857 24.3118L70.3397 22.1729C70.3366 22.17 70.3341 22.1664 70.3324 22.1625C70.3307 22.1585 70.3299 22.1543 70.3299 22.15V13.397C70.3298 13.3925 70.3288 13.388 70.3268 13.3839C70.3248 13.3798 70.322 13.3762 70.3184 13.3733L67.7393 11.3031C67.7341 11.299 67.7278 11.2965 67.7211 11.2963C67.7145 11.296 67.708 11.2978 67.7025 11.3015L67.164 11.6754C67.1601 11.6782 67.1568 11.6818 67.1544 11.6861C67.1521 11.6904 67.1508 11.6951 67.1507 11.7C67.1505 11.7048 67.1515 11.7096 67.1535 11.714C67.1556 11.7185 67.1586 11.7223 67.1624 11.7253L69.6761 13.7448C69.6796 13.7477 69.6825 13.7513 69.6845 13.7554C69.6864 13.7595 69.6875 13.764 69.6876 13.7685V22.465C69.6875 22.4693 69.6884 22.4735 69.6901 22.4775C69.6918 22.4814 69.6942 22.485 69.6974 22.4879L72.2332 24.7995C72.2362 24.8023 72.2398 24.8044 72.2437 24.8058C72.2475 24.8072 72.2517 24.8077 72.2558 24.8075C72.2599 24.8073 72.2639 24.8062 72.2676 24.8044C72.2713 24.8027 72.2746 24.8001 72.2774 24.7971L72.6873 24.356ZM66.8777 11.8964C66.8659 11.887 66.8517 11.8811 66.8368 11.8794C66.8218 11.8777 66.8067 11.8803 66.7932 11.8868C66.7796 11.8932 66.7681 11.9034 66.7601 11.9161C66.752 11.9288 66.7477 11.9435 66.7475 11.9585V20.8318C66.7476 20.8433 66.7501 20.8546 66.7549 20.8651C66.7597 20.8755 66.7667 20.8848 66.7754 20.8923L68.7768 22.6229C68.7923 22.6362 68.8123 22.6431 68.8326 22.6422C68.853 22.6413 68.8723 22.6326 68.8865 22.618L69.3259 22.1721C69.3407 22.157 69.3489 22.1367 69.3488 22.1156V13.9191C69.3487 13.9071 69.3459 13.8953 69.3407 13.8846C69.3355 13.8738 69.3279 13.8644 69.3185 13.8569L66.8777 11.8964ZM66.7091 24.82C66.7145 24.8247 66.7215 24.8272 66.7286 24.8269C66.7358 24.8266 66.7426 24.8235 66.7475 24.8183L67.1812 24.3781C67.184 24.3754 67.1861 24.3721 67.1875 24.3685C67.1889 24.365 67.1895 24.3611 67.1894 24.3573C67.1892 24.3534 67.1883 24.3497 67.1866 24.3462C67.1849 24.3428 67.1825 24.3397 67.1796 24.3372L64.4261 21.9053C64.4233 21.9027 64.421 21.8996 64.4195 21.896C64.4179 21.8925 64.4171 21.8887 64.4171 21.8849V13.6916C64.4172 13.6865 64.4159 13.6814 64.4132 13.6769C64.4106 13.6725 64.4067 13.6689 64.4021 13.6665C64.3975 13.6641 64.3924 13.6631 64.3872 13.6635C64.3821 13.6638 64.3771 13.6657 64.373 13.6687L63.7756 14.1057C63.7721 14.1082 63.7693 14.1115 63.7673 14.1154C63.7653 14.1192 63.7642 14.1234 63.7642 14.1278V22.2064C63.7642 22.2103 63.765 22.2141 63.7665 22.2176C63.7681 22.2211 63.7703 22.2243 63.7732 22.2269L66.7091 24.82Z" fill="white"/>
<path d="M97.1954 23.5059L96.9876 23.312C96.9814 23.3061 96.9777 23.298 96.9774 23.2894C96.9771 23.2809 96.9802 23.2725 96.9859 23.2662L97.6626 22.5232C97.6678 22.5173 97.6707 22.5098 97.6708 22.5019V13.6835C97.6709 13.6791 97.67 13.6748 97.6683 13.6707C97.6667 13.6666 97.6642 13.6629 97.661 13.6598L96.4123 12.4725C96.4092 12.4694 96.4054 12.467 96.4013 12.4653C96.3971 12.4637 96.3927 12.463 96.3883 12.4631C96.3838 12.4633 96.3795 12.4643 96.3754 12.4662C96.3714 12.4681 96.3678 12.4708 96.3649 12.4742L95.9173 12.9651C95.9144 12.9683 95.9108 12.9709 95.9069 12.9727C95.9029 12.9745 95.8987 12.9755 95.8943 12.9757C95.89 12.9759 95.8856 12.9751 95.8816 12.9736C95.8775 12.9721 95.8738 12.9697 95.8706 12.9667L95.6743 12.7835C95.6681 12.7776 95.6644 12.7694 95.6641 12.7609C95.6638 12.7523 95.6668 12.744 95.6726 12.7376L98.3844 9.76325C98.3872 9.76 98.3907 9.75734 98.3946 9.75545C98.3986 9.75356 98.4028 9.75247 98.4072 9.75224C98.4115 9.75201 98.4158 9.75265 98.4199 9.75412C98.424 9.75559 98.4278 9.75786 98.431 9.7608L100.822 11.9415C100.825 11.9444 100.829 11.9467 100.833 11.9481C100.837 11.9496 100.841 11.9502 100.846 11.95C100.85 11.9498 100.854 11.9487 100.858 11.9468C100.862 11.9449 100.866 11.9423 100.869 11.939L101.445 11.3065C101.451 11.3004 101.459 11.2966 101.467 11.2958C101.475 11.2951 101.483 11.2974 101.49 11.3024L101.716 11.4734C101.72 11.4762 101.723 11.4797 101.725 11.4837C101.727 11.4877 101.729 11.4921 101.729 11.4967C101.729 11.5012 101.729 11.5058 101.727 11.5101C101.726 11.5144 101.723 11.5184 101.72 11.5217L100.985 12.313C100.979 12.3191 100.976 12.3273 100.976 12.3359V21.2541C100.976 21.2586 100.977 21.263 100.979 21.2671C100.98 21.2711 100.983 21.2748 100.986 21.2778L102.427 22.6173C102.434 22.6231 102.442 22.6262 102.451 22.6259C102.459 22.6256 102.467 22.6219 102.473 22.6157L103.094 21.9635C103.1 21.9573 103.108 21.9536 103.117 21.9533C103.125 21.953 103.134 21.9561 103.14 21.9619L103.345 22.1534C103.352 22.1593 103.355 22.1674 103.356 22.1759C103.356 22.1845 103.353 22.1929 103.347 22.1992L100.485 25.2767C100.479 25.2829 100.471 25.2865 100.462 25.2868C100.454 25.2871 100.445 25.2841 100.439 25.2783L97.8394 22.9094C97.8331 22.9036 97.8247 22.9006 97.8161 22.9009C97.8076 22.9012 97.7995 22.9048 97.7936 22.9111L97.2412 23.5043C97.2353 23.5105 97.2272 23.5142 97.2187 23.5145C97.2101 23.5148 97.2017 23.5117 97.1954 23.5059ZM100.876 24.3635C100.883 24.3558 100.886 24.3458 100.886 24.3356C100.885 24.3253 100.881 24.3157 100.873 24.3087L98.665 22.2949C98.661 22.2913 98.6577 22.2869 98.6555 22.282C98.6532 22.277 98.652 22.2717 98.6519 22.2663V13.1893C98.6518 13.1839 98.6506 13.1786 98.6484 13.1736C98.6461 13.1687 98.6429 13.1643 98.6388 13.1607L97.0841 11.7443C97.0803 11.7408 97.0758 11.7381 97.0709 11.7364C97.066 11.7347 97.0608 11.734 97.0556 11.7343C97.0505 11.7346 97.0454 11.7359 97.0407 11.7382C97.0361 11.7405 97.0319 11.7437 97.0285 11.7475L96.6529 12.1722C96.6461 12.1799 96.6425 12.1899 96.643 12.2001C96.6434 12.2104 96.6479 12.22 96.6554 12.227L97.9949 13.5019C97.9987 13.5056 98.0018 13.51 98.004 13.5149C98.0061 13.5199 98.0071 13.5252 98.0071 13.5305V22.5789C98.0072 22.5843 98.0084 22.5896 98.0107 22.5945C98.0129 22.5995 98.0162 22.6039 98.0202 22.6075L100.425 24.8004C100.433 24.8073 100.443 24.8108 100.453 24.8104C100.463 24.8099 100.473 24.8055 100.48 24.798L100.876 24.3635Z" fill="white"/>
<path d="M126.077 12.2867L126.573 11.7433C126.577 11.7396 126.581 11.7366 126.585 11.7345C126.59 11.7324 126.595 11.7313 126.6 11.7311C126.605 11.7309 126.61 11.7318 126.615 11.7336C126.619 11.7355 126.624 11.7382 126.627 11.7417L126.819 11.9299C126.824 11.9355 126.828 11.943 126.828 11.9509C126.828 11.9588 126.826 11.9665 126.82 11.9725L126.228 12.6426C126.211 12.6616 126.202 12.6861 126.202 12.7113C126.202 16.7394 126.202 20.1968 126.203 23.0836C126.203 23.6586 126.339 24.1635 126.611 24.5982C126.829 24.9473 126.942 25.1306 126.949 25.1481C127.302 26.0163 126.926 26.7543 126.33 27.386C125.985 27.7521 125.631 28.0791 125.269 28.3671C124.401 29.0577 123.332 29.8659 122.063 30.7916C122.054 30.7987 122.042 30.8019 122.03 30.8006C122.018 30.7992 122.007 30.7934 121.999 30.7843C121.634 30.3577 121.223 29.9889 120.768 29.678C119.412 28.7533 117.367 29.5561 116.078 30.2606C116.056 30.2731 116.034 30.278 116.013 30.2753C115.986 30.2726 115.964 30.2644 115.947 30.2508C115.941 30.246 115.936 30.2401 115.933 30.2333C115.929 30.2265 115.927 30.2191 115.926 30.2114C115.925 30.2038 115.926 30.1961 115.929 30.1887C115.931 30.1814 115.935 30.1747 115.94 30.1689L120.109 25.3469C120.128 25.3251 120.126 25.3049 120.103 25.2864L117.169 22.9306C117.148 22.9137 117.129 22.9151 117.111 22.9347L116.598 23.4977C116.589 23.5079 116.576 23.5142 116.562 23.5151C116.549 23.516 116.535 23.5115 116.525 23.5026L116.344 23.3455C116.34 23.3419 116.336 23.3376 116.334 23.3327C116.331 23.3278 116.33 23.3224 116.33 23.3169C116.329 23.3114 116.33 23.3059 116.332 23.3006C116.334 23.2954 116.336 23.2906 116.34 23.2865L116.959 22.6082C116.977 22.5893 116.987 22.5641 116.987 22.5378V13.9616C116.987 13.9306 116.999 13.906 117.024 13.888L122.775 9.77215C122.802 9.75306 122.828 9.75388 122.853 9.77461L125.991 12.294C126.022 12.3186 126.051 12.3161 126.077 12.2867ZM123.23 13.6941C123.238 15.4637 123.235 18.5965 123.223 23.0926C123.222 23.8847 123.227 24.667 123.856 25.108C124.438 25.5179 125.072 25.9197 125.351 26.5719C125.465 26.8378 125.438 27.1209 125.409 27.4564C125.402 27.5339 125.426 27.5445 125.479 27.4883C125.917 27.0244 125.82 26.2863 125.481 25.8076C125.209 25.4255 124.879 25.1923 124.539 24.8969C124.011 24.4354 123.877 23.7718 123.877 23.109C123.875 19.8594 123.874 16.6117 123.875 13.366C123.875 13.3398 123.865 13.3182 123.844 13.3013L121.312 11.2679C121.301 11.2587 121.291 11.2573 121.282 11.2638L120.746 11.6362C120.744 11.6374 120.743 11.6389 120.742 11.6406C120.741 11.6423 120.741 11.6442 120.741 11.6461C120.74 11.648 120.741 11.6498 120.742 11.6515C120.742 11.6532 120.743 11.6546 120.745 11.6558L123.196 13.6245C123.219 13.6425 123.23 13.6657 123.23 13.6941ZM120.294 21.2761C120.294 21.285 120.296 21.2939 120.3 21.302C120.303 21.31 120.309 21.3171 120.316 21.3227L122.196 22.8316C122.207 22.841 122.222 22.8455 122.238 22.8441C122.253 22.8428 122.267 22.8356 122.277 22.8242L122.88 22.1402C122.89 22.1295 122.895 22.1159 122.895 22.1017V13.9085C122.895 13.8995 122.893 13.8907 122.89 13.8826C122.886 13.8745 122.88 13.8674 122.873 13.8618L120.39 11.8677C120.381 11.8608 120.371 11.8564 120.36 11.8552C120.349 11.8539 120.337 11.8558 120.327 11.8606C120.317 11.8654 120.309 11.8729 120.303 11.8822C120.297 11.8916 120.294 11.9025 120.294 11.9135V21.2761ZM120.798 24.518C120.8 24.5154 120.802 24.5124 120.802 24.5092C120.803 24.506 120.804 24.5027 120.803 24.4994C120.803 24.4961 120.801 24.4929 120.8 24.4901C120.798 24.4872 120.796 24.4848 120.793 24.4828L117.976 22.3529C117.973 22.3506 117.97 22.3477 117.969 22.3443C117.967 22.3408 117.966 22.3371 117.966 22.3333V13.7129C117.966 13.7083 117.965 13.7039 117.962 13.7C117.96 13.6961 117.957 13.693 117.952 13.6909C117.948 13.6889 117.944 13.688 117.939 13.6884C117.935 13.6889 117.93 13.6905 117.927 13.6933L117.332 14.1278C117.329 14.13 117.326 14.133 117.325 14.1364C117.323 14.1398 117.322 14.1436 117.322 14.1474V22.6066C117.322 22.6102 117.323 22.6137 117.324 22.617C117.326 22.6202 117.328 22.6231 117.331 22.6254L120.344 25.0442C120.349 25.0483 120.355 25.0502 120.362 25.0496C120.368 25.049 120.374 25.0459 120.378 25.0409L120.798 24.518ZM124.128 28.8098C124.132 28.813 124.137 28.8149 124.143 28.815C124.148 28.8152 124.153 28.8136 124.157 28.8106C124.978 28.1904 125.562 27.0571 124.713 26.184C124.125 25.5801 123.153 25.3273 122.99 24.3527C122.9 23.8078 122.871 23.2666 122.903 22.7293C122.908 22.6589 122.887 22.6505 122.84 22.7039L117.829 28.5005C117.824 28.5065 117.821 28.5122 117.822 28.5177C117.823 28.5248 117.826 28.5305 117.832 28.5349C117.843 28.5425 117.855 28.5428 117.866 28.5357C119.042 27.8287 120.201 27.4368 121.602 27.571C122.565 27.6634 123.414 28.1871 124.128 28.8098ZM117.36 29.4039C118.076 29.0711 118.801 28.9102 119.534 28.9211C120.571 28.9358 121.422 29.579 122.054 30.3498C122.06 30.3574 122.067 30.3582 122.074 30.3522L122.659 29.8858C122.67 29.8765 122.671 29.8662 122.662 29.8547C122.025 29.0937 121.076 28.4506 120.069 28.462C119.092 28.473 118.186 28.7602 117.351 29.3237C117.342 29.3291 117.338 29.3368 117.338 29.3466V29.39C117.338 29.3926 117.339 29.3951 117.34 29.3974C117.342 29.3996 117.343 29.4015 117.346 29.4029C117.348 29.4043 117.35 29.4051 117.353 29.4053C117.356 29.4054 117.358 29.405 117.36 29.4039Z" fill="white"/>
<path d="M26.5668 22.7122L26.3688 22.5175C26.3629 22.5115 26.3595 22.5035 26.3594 22.4952C26.3592 22.4868 26.3623 22.4787 26.3679 22.4725L27.0365 21.7532C27.0423 21.7471 27.0456 21.7388 27.0455 21.7303V14.0239C27.0455 14.0189 27.0466 14.0139 27.0489 14.0093C27.0512 14.0048 27.0545 14.0008 27.0585 13.9978L32.8044 9.80254C32.8081 9.79985 32.8123 9.79797 32.8167 9.797C32.8212 9.79604 32.8258 9.79602 32.8303 9.79694C32.8347 9.79787 32.839 9.79972 32.8427 9.80237C32.8464 9.80503 32.8495 9.80843 32.8518 9.81236L35.8557 14.6663C35.8601 14.6734 35.8617 14.6819 35.86 14.6902C35.8583 14.6984 35.8535 14.7057 35.8467 14.7105L30.3046 18.7568C30.3005 18.7598 30.2972 18.7638 30.295 18.7683C30.2927 18.7729 30.2915 18.7779 30.2915 18.783V20.3008C30.2915 20.3057 30.2926 20.3105 30.2948 20.3149C30.2969 20.3193 30.3 20.3231 30.3038 20.3262L33.2233 22.6705C33.2298 22.6756 33.2379 22.6781 33.2461 22.6775C33.2542 22.6769 33.2619 22.6732 33.2675 22.6672L34.9466 20.8622C34.9525 20.8559 34.9606 20.8523 34.9692 20.852C34.9777 20.8517 34.9861 20.8547 34.9924 20.8605L35.1945 21.0479C35.2007 21.0538 35.2044 21.0619 35.2047 21.0705C35.205 21.079 35.2019 21.0874 35.1961 21.0937L31.2677 25.3176C31.2621 25.3236 31.2544 25.3272 31.2462 25.3278C31.238 25.3284 31.2299 25.3259 31.2235 25.3209L27.2189 22.1051C27.2125 22.1 27.2044 22.0975 27.1962 22.0981C27.188 22.0987 27.1804 22.1024 27.1747 22.1084L26.6134 22.7114C26.6104 22.7146 26.6068 22.7171 26.6029 22.7188C26.5989 22.7206 26.5946 22.7215 26.5903 22.7216C26.5859 22.7217 26.5816 22.7209 26.5776 22.7193C26.5735 22.7177 26.5699 22.7153 26.5668 22.7122ZM30.6278 11.8138C30.6219 11.8181 30.6179 11.8245 30.6165 11.8316C30.6152 11.8387 30.6166 11.8461 30.6204 11.8523L33.2683 16.1318C33.2704 16.1352 33.2731 16.1382 33.2764 16.1405C33.2797 16.1428 33.2834 16.1444 33.2874 16.1452C33.2913 16.1459 33.2954 16.1459 33.2993 16.145C33.3032 16.1441 33.3069 16.1424 33.3101 16.14L33.8125 15.7718C33.8184 15.7675 33.8224 15.7611 33.8238 15.754C33.8251 15.7468 33.8237 15.7394 33.8198 15.7333L31.1719 11.4546C31.1699 11.4512 31.1671 11.4482 31.1638 11.4459C31.1606 11.4436 31.1568 11.442 31.1529 11.4412C31.149 11.4405 31.1449 11.4405 31.141 11.4414C31.1371 11.4423 31.1334 11.444 31.1302 11.4464L30.6278 11.8138ZM30.361 12.0675C30.3567 12.0606 30.3503 12.0553 30.3427 12.0523C30.3351 12.0494 30.3267 12.049 30.3189 12.0512C30.3111 12.0534 30.3042 12.0581 30.2992 12.0646C30.2943 12.0711 30.2916 12.079 30.2915 12.0871V18.2805C30.2914 18.2875 30.2932 18.2944 30.2968 18.3004C30.3004 18.3064 30.3055 18.3113 30.3118 18.3145C30.318 18.3178 30.3249 18.3192 30.3319 18.3187C30.3389 18.3182 30.3456 18.3157 30.3512 18.3116L32.9909 16.3838C32.9985 16.3782 33.0037 16.37 33.0056 16.3608C33.0074 16.3515 33.0057 16.3419 33.0008 16.3339L30.361 12.0675ZM31.6359 24.388C31.6382 24.3855 31.6401 24.3825 31.6412 24.3793C31.6424 24.376 31.6428 24.3725 31.6426 24.3691C31.6424 24.3656 31.6415 24.3623 31.6399 24.3592C31.6383 24.3561 31.6361 24.3534 31.6334 24.3512L28.0347 21.4611C28.0317 21.4588 28.0293 21.4558 28.0276 21.4524C28.0259 21.449 28.025 21.4453 28.0249 21.4415V13.7498C28.0249 13.7452 28.0236 13.7406 28.0211 13.7367C28.0187 13.7327 28.0152 13.7295 28.0111 13.7274C28.0069 13.7253 28.0023 13.7244 27.9977 13.7247C27.993 13.7251 27.9886 13.7267 27.9848 13.7294L27.394 14.1524C27.3908 14.1547 27.3881 14.1578 27.3863 14.1614C27.3844 14.1649 27.3834 14.1689 27.3834 14.1729V21.7941C27.3835 21.7979 27.3844 21.8017 27.3861 21.8051C27.3878 21.8085 27.3902 21.8115 27.3932 21.8138L31.1744 24.8512C31.1794 24.8552 31.1857 24.8571 31.1921 24.8567C31.1984 24.8562 31.2044 24.8534 31.2088 24.8487L31.6359 24.388Z" fill="white"/>
<path d="M108.3 12.8325L111.128 9.82461C111.136 9.8165 111.147 9.81174 111.159 9.81129C111.17 9.81083 111.181 9.81471 111.19 9.82215L113.879 12.1967C113.882 12.2003 113.887 12.2032 113.892 12.2053C113.896 12.2074 113.901 12.2086 113.906 12.2088C113.911 12.209 113.916 12.2083 113.92 12.2066C113.924 12.205 113.928 12.2025 113.931 12.1992L114.47 11.6191C114.478 11.61 114.49 11.6046 114.502 11.604C114.514 11.6034 114.526 11.6076 114.536 11.6158L114.752 11.8073C114.756 11.8104 114.759 11.8142 114.761 11.8186C114.763 11.8229 114.764 11.8276 114.764 11.8324C114.764 11.8372 114.764 11.8421 114.762 11.8466C114.76 11.8511 114.757 11.8553 114.754 11.8588L114.073 12.5748C114.055 12.5931 114.045 12.6178 114.045 12.6435V21.3097C114.045 21.3247 114.049 21.3396 114.055 21.3534C114.061 21.3671 114.07 21.3796 114.081 21.3899L115.394 22.6107C115.398 22.6146 115.403 22.6176 115.408 22.6196C115.413 22.6215 115.419 22.6224 115.425 22.6222C115.43 22.622 115.436 22.6206 115.441 22.6182C115.446 22.6158 115.451 22.6125 115.455 22.6083L116.065 21.9398C116.083 21.9196 116.102 21.9188 116.121 21.9373L116.316 22.1173C116.32 22.1209 116.323 22.1251 116.325 22.1298C116.327 22.1346 116.328 22.1396 116.329 22.1448C116.329 22.15 116.328 22.1551 116.326 22.16C116.324 22.1648 116.321 22.1692 116.318 22.173L113.425 25.284C113.419 25.2905 113.411 25.2944 113.402 25.2949C113.393 25.2953 113.385 25.2923 113.379 25.2865L110.761 22.9004C110.755 22.8947 110.75 22.8878 110.746 22.88C110.743 22.8723 110.741 22.8639 110.741 22.8554V14.0427C110.741 13.9827 110.719 13.9325 110.675 13.8922L109.143 12.4962C109.139 12.4927 109.135 12.4899 109.13 12.4881C109.125 12.4863 109.12 12.4855 109.115 12.4857C109.109 12.486 109.104 12.4872 109.1 12.4894C109.095 12.4917 109.091 12.4948 109.088 12.4987L108.288 13.3759C108.269 13.3959 108.259 13.4222 108.259 13.4495V21.619C108.259 21.6329 108.262 21.6467 108.267 21.6595C108.273 21.6724 108.281 21.6839 108.291 21.6935L109.175 22.5158C109.188 22.5272 109.198 22.541 109.205 22.5563C109.212 22.5717 109.215 22.5882 109.216 22.605C109.216 22.6219 109.214 22.6387 109.208 22.6544C109.202 22.6701 109.193 22.6845 109.181 22.6967L106.711 25.293C106.709 25.2958 106.705 25.2974 106.701 25.2976C106.698 25.2977 106.694 25.2964 106.691 25.2938L103.875 22.7278C103.867 22.7197 103.86 22.71 103.855 22.6993C103.85 22.6885 103.847 22.6769 103.847 22.6651C103.846 22.6533 103.848 22.6416 103.852 22.6306C103.856 22.6196 103.862 22.6095 103.87 22.6009L104.932 21.4586C104.947 21.4434 104.955 21.4233 104.955 21.4022V13.767C104.955 13.7554 104.952 13.744 104.948 13.7334C104.943 13.7228 104.936 13.7134 104.928 13.7056L103.54 12.4406C103.533 12.4345 103.524 12.4312 103.515 12.4315C103.506 12.4318 103.498 12.4357 103.492 12.4422L102.955 13.0314C102.941 13.0461 102.927 13.0466 102.913 13.033L102.716 12.8456C102.699 12.8304 102.699 12.8143 102.714 12.7973L105.443 9.80415C105.446 9.80124 105.449 9.79886 105.452 9.79716C105.456 9.79546 105.46 9.79447 105.463 9.79424C105.467 9.79401 105.471 9.79455 105.475 9.79583C105.479 9.79711 105.482 9.79911 105.485 9.8017L108.228 12.2237C108.249 12.2428 108.26 12.2666 108.26 12.2949V12.8162C108.26 12.8554 108.273 12.8609 108.3 12.8325ZM107.16 24.3201C107.163 24.3164 107.166 24.312 107.168 24.3072C107.17 24.3024 107.17 24.2973 107.17 24.2922C107.17 24.2871 107.169 24.2821 107.166 24.2774C107.164 24.2728 107.161 24.2687 107.157 24.2653L105.338 22.6582C105.335 22.6548 105.331 22.6507 105.329 22.646C105.327 22.6414 105.326 22.6364 105.326 22.6313C105.325 22.6262 105.326 22.6211 105.328 22.6163C105.33 22.6115 105.332 22.6071 105.336 22.6034L105.923 21.9709C105.93 21.9638 105.934 21.9544 105.934 21.9447V13.3055C105.934 13.3003 105.933 13.2951 105.931 13.2903C105.929 13.2855 105.926 13.2812 105.922 13.2777L104.224 11.6984C104.216 11.6915 104.207 11.6879 104.197 11.6882C104.186 11.6885 104.177 11.6927 104.17 11.7001L103.79 12.1084C103.783 12.1158 103.78 12.1256 103.78 12.1357C103.78 12.1458 103.785 12.1554 103.792 12.1624L105.278 13.5436C105.282 13.5472 105.285 13.5515 105.287 13.5562C105.289 13.561 105.29 13.5662 105.29 13.5714V21.5945C105.29 21.6042 105.286 21.6136 105.279 21.6207L104.359 22.6107C104.352 22.6182 104.348 22.628 104.349 22.6381C104.349 22.6482 104.353 22.6578 104.361 22.6648L106.66 24.8021C106.667 24.8089 106.677 24.8126 106.687 24.8123C106.697 24.812 106.707 24.8077 106.714 24.8004L107.16 24.3201ZM109.859 11.7352C109.851 11.7277 109.84 11.7238 109.829 11.7242C109.818 11.7247 109.807 11.7295 109.8 11.7377L109.369 12.191C109.365 12.1951 109.362 12.1999 109.36 12.2051C109.358 12.2104 109.357 12.216 109.357 12.2216C109.357 12.2273 109.359 12.2328 109.361 12.238C109.363 12.2431 109.367 12.2477 109.371 12.2516L111.062 13.7932C111.066 13.7971 111.07 13.8019 111.072 13.8073C111.075 13.8126 111.076 13.8184 111.076 13.8243V22.6656C111.076 22.6712 111.077 22.6768 111.079 22.682C111.082 22.6872 111.085 22.6919 111.089 22.6958L113.33 24.8282C113.334 24.8321 113.339 24.8352 113.344 24.8372C113.35 24.8393 113.355 24.8402 113.361 24.8401C113.367 24.8399 113.372 24.8387 113.377 24.8363C113.382 24.834 113.387 24.8307 113.391 24.8266L113.828 24.3659C113.832 24.3619 113.835 24.3571 113.837 24.3518C113.839 24.3465 113.84 24.3409 113.84 24.3353C113.839 24.3297 113.838 24.3241 113.836 24.319C113.834 24.3138 113.83 24.3092 113.826 24.3054L111.736 22.4005C111.732 22.3965 111.729 22.3917 111.726 22.3864C111.724 22.381 111.722 22.3752 111.722 22.3694V13.4536C111.722 13.4477 111.721 13.4419 111.719 13.4366C111.716 13.4312 111.713 13.4264 111.709 13.4225L109.859 11.7352Z" fill="white"/>
<path d="M135.487 22.8889L135.282 22.6941C135.275 22.6882 135.272 22.6801 135.272 22.6716C135.271 22.663 135.274 22.6546 135.28 22.6483L135.806 22.0723C135.812 22.0662 135.814 22.0583 135.814 22.0502V13.6826C135.814 13.6773 135.816 13.6721 135.818 13.6674C135.82 13.6627 135.824 13.6587 135.828 13.6556L141.244 9.77953C141.25 9.7752 141.257 9.77293 141.265 9.77308C141.272 9.77323 141.279 9.77578 141.284 9.78035L144.8 12.6033C144.806 12.6084 144.814 12.6109 144.822 12.6103C144.831 12.6097 144.838 12.6061 144.844 12.6001L145.404 12.0109C145.407 12.0078 145.411 12.0054 145.415 12.0037C145.419 12.002 145.423 12.0012 145.428 12.0012C145.432 12.0012 145.436 12.002 145.44 12.0037C145.444 12.0054 145.448 12.0078 145.451 12.0109L145.647 12.2024C145.653 12.2083 145.656 12.2162 145.656 12.2246C145.657 12.2329 145.654 12.2411 145.648 12.2474L145.039 12.9372C145.034 12.9431 145.031 12.9506 145.031 12.9585V21.5158C145.031 21.5209 145.03 21.5259 145.028 21.5305C145.026 21.535 145.022 21.539 145.018 21.542L139.859 25.3077C139.853 25.3119 139.846 25.3142 139.839 25.3142C139.832 25.3142 139.825 25.3119 139.82 25.3077L135.992 22.4143C135.985 22.4092 135.977 22.4068 135.968 22.4077C135.96 22.4086 135.952 22.4127 135.947 22.4192L135.534 22.8872C135.531 22.8904 135.527 22.893 135.523 22.8949C135.519 22.8967 135.515 22.8977 135.511 22.8978C135.506 22.898 135.502 22.8973 135.498 22.8957C135.494 22.8942 135.49 22.8919 135.487 22.8889ZM142.061 13.807L142.062 23.2686C142.062 23.2698 142.062 23.2709 142.063 23.272C142.064 23.273 142.065 23.2738 142.066 23.2743C142.067 23.2748 142.068 23.275 142.069 23.2749C142.07 23.2747 142.071 23.2742 142.072 23.2735L142.69 22.8054C142.695 22.8021 142.698 22.7979 142.7 22.7931C142.703 22.7882 142.704 22.7829 142.704 22.7776L142.705 13.4363C142.705 13.4091 142.694 13.387 142.671 13.3701L139.873 11.2025C139.862 11.1943 139.851 11.1943 139.84 11.2025L139.285 11.6116C139.278 11.6165 139.278 11.6214 139.285 11.6263L142.024 13.7334C142.049 13.7519 142.061 13.7765 142.061 13.807ZM141.682 23.0108C141.686 23.0137 141.69 23.0155 141.695 23.016C141.7 23.0165 141.704 23.0157 141.709 23.0136C141.713 23.0116 141.716 23.0084 141.719 23.0044C141.722 23.0005 141.723 22.9959 141.723 22.9912V13.9797C141.723 13.9759 141.722 13.9721 141.72 13.9687C141.719 13.9653 141.716 13.9624 141.713 13.96L139.163 11.9111C139.159 11.9082 139.154 11.9064 139.15 11.9059C139.145 11.9054 139.14 11.9063 139.136 11.9084C139.132 11.9106 139.128 11.9139 139.125 11.918C139.123 11.9221 139.122 11.9268 139.122 11.9316V21.0633C139.122 21.0671 139.123 21.0709 139.124 21.0743C139.126 21.0777 139.129 21.0807 139.132 21.083L141.682 23.0108ZM136.795 21.7302L136.794 13.4102C136.794 13.4088 136.793 13.4074 136.793 13.4062C136.792 13.4051 136.791 13.4041 136.79 13.4035C136.788 13.4028 136.787 13.4025 136.786 13.4025C136.784 13.4025 136.783 13.4029 136.782 13.4036L136.171 13.8381C136.158 13.8474 136.151 13.8602 136.151 13.8766L136.152 22.051C136.152 22.0634 136.155 22.0757 136.161 22.087C136.166 22.0982 136.174 22.108 136.184 22.1156L139.81 24.8944C139.815 24.8982 139.821 24.9002 139.827 24.9002C139.833 24.9002 139.839 24.8982 139.844 24.8944L140.386 24.4951C140.389 24.4932 140.391 24.4907 140.392 24.4878C140.394 24.4849 140.395 24.4816 140.395 24.4784C140.395 24.4751 140.394 24.4718 140.392 24.4689C140.391 24.466 140.389 24.4635 140.386 24.4616L136.813 21.7679C136.808 21.7633 136.803 21.7575 136.8 21.751C136.796 21.7445 136.795 21.7374 136.795 21.7302Z" fill="white"/>
<path d="M151.583 12.8153C151.583 12.8546 151.596 12.86 151.624 12.8317L154.451 9.82294C154.459 9.81483 154.47 9.81007 154.482 9.80961C154.493 9.80916 154.504 9.81304 154.513 9.82048L157.202 12.1959C157.206 12.1995 157.211 12.2024 157.215 12.2045C157.22 12.2065 157.225 12.2077 157.23 12.2079C157.235 12.2082 157.24 12.2074 157.244 12.2058C157.248 12.2041 157.252 12.2016 157.255 12.1983L157.794 11.6174C157.802 11.6083 157.814 11.6029 157.826 11.6023C157.838 11.6017 157.85 11.6059 157.859 11.6141L158.076 11.8056C158.08 11.8087 158.083 11.8126 158.085 11.8169C158.087 11.8212 158.088 11.8259 158.088 11.8308C158.088 11.8356 158.088 11.8404 158.086 11.8449C158.084 11.8495 158.081 11.8536 158.078 11.8571L157.397 12.5739C157.379 12.5923 157.369 12.6169 157.369 12.6427V21.3097C157.369 21.3247 157.372 21.3395 157.379 21.3533C157.385 21.3671 157.393 21.3796 157.405 21.3899L158.719 22.6107C158.723 22.6146 158.728 22.6176 158.733 22.6195C158.738 22.6215 158.744 22.6224 158.749 22.6222C158.755 22.6219 158.761 22.6206 158.766 22.6182C158.771 22.6158 158.775 22.6124 158.779 22.6083L159.39 21.9397C159.408 21.9196 159.426 21.9187 159.446 21.9373L159.641 22.1173C159.645 22.1208 159.648 22.1251 159.65 22.1298C159.652 22.1345 159.653 22.1396 159.653 22.1448C159.653 22.15 159.653 22.1551 159.651 22.1599C159.649 22.1648 159.646 22.1692 159.642 22.1729L156.749 25.284C156.743 25.2905 156.735 25.2944 156.726 25.2948C156.717 25.2953 156.709 25.2923 156.702 25.2864L154.085 22.9004C154.079 22.8947 154.074 22.8878 154.07 22.88C154.067 22.8723 154.065 22.8639 154.065 22.8554L154.064 14.0419C154.064 13.9819 154.042 13.9317 153.998 13.8913L152.466 12.4954C152.462 12.4918 152.458 12.4891 152.453 12.4873C152.448 12.4855 152.443 12.4846 152.438 12.4849C152.433 12.4851 152.428 12.4864 152.423 12.4886C152.418 12.4908 152.414 12.494 152.411 12.4978L151.611 13.375C151.592 13.395 151.582 13.4214 151.582 13.4486L151.583 21.619C151.583 21.6329 151.586 21.6467 151.591 21.6595C151.597 21.6723 151.605 21.6839 151.615 21.6934L152.499 22.5158C152.511 22.5272 152.521 22.541 152.528 22.5563C152.535 22.5716 152.539 22.5882 152.54 22.605C152.54 22.6218 152.538 22.6386 152.532 22.6543C152.526 22.6701 152.516 22.6845 152.505 22.6966L150.035 25.2938C150.033 25.2966 150.029 25.2982 150.025 25.2983C150.021 25.2985 150.018 25.2972 150.015 25.2946L147.198 22.7285C147.19 22.7205 147.183 22.7108 147.178 22.7C147.173 22.6893 147.17 22.6777 147.17 22.6659C147.169 22.6541 147.171 22.6424 147.175 22.6314C147.179 22.6204 147.185 22.6103 147.193 22.6017L148.256 21.4586C148.27 21.4434 148.278 21.4232 148.278 21.4021V13.7661C148.278 13.7545 148.275 13.7431 148.271 13.7325C148.266 13.722 148.259 13.7125 148.251 13.7048L146.862 12.4397C146.855 12.4336 146.847 12.4303 146.838 12.4306C146.829 12.4309 146.82 12.4348 146.814 12.4414L146.277 13.0305C146.263 13.0452 146.249 13.0458 146.235 13.0322L146.038 12.8448C146.022 12.8295 146.021 12.8134 146.036 12.7965L148.765 9.8033C148.768 9.80039 148.771 9.79801 148.775 9.79631C148.778 9.79461 148.782 9.79361 148.786 9.79339C148.79 9.79316 148.793 9.7937 148.797 9.79498C148.801 9.79626 148.804 9.79825 148.807 9.80084L151.551 12.2229C151.572 12.242 151.583 12.2657 151.583 12.2941V12.8153ZM148.645 22.6074L149.225 22.0077C149.247 21.9853 149.258 21.9586 149.258 21.9275L149.257 13.3161C149.257 13.2861 149.246 13.261 149.224 13.2408L147.536 11.7025C147.519 11.6872 147.503 11.6878 147.487 11.7041L147.113 12.101C147.091 12.1244 147.092 12.1473 147.116 12.1697L148.583 13.5182C148.592 13.5267 148.6 13.5371 148.605 13.5486C148.61 13.5602 148.612 13.5727 148.612 13.5853L148.613 21.5912C148.613 21.6179 148.604 21.6408 148.585 21.6599L147.681 22.5943C147.675 22.6007 147.67 22.6083 147.667 22.6166C147.664 22.6248 147.662 22.6336 147.663 22.6425C147.663 22.6513 147.665 22.66 147.669 22.6681C147.673 22.6761 147.678 22.6833 147.684 22.6893L149.995 24.7897C150.003 24.7965 150.012 24.8001 150.022 24.7998C150.032 24.7995 150.042 24.7953 150.048 24.7881L150.488 24.3209C150.491 24.3176 150.493 24.3137 150.495 24.3094C150.497 24.3051 150.497 24.3006 150.497 24.296C150.497 24.2914 150.496 24.2869 150.494 24.2828C150.492 24.2786 150.49 24.2749 150.486 24.2718L148.646 22.6434C148.643 22.6413 148.641 22.6386 148.64 22.6355C148.639 22.6325 148.638 22.6292 148.638 22.6259C148.638 22.6225 148.638 22.6191 148.64 22.616C148.641 22.6128 148.643 22.6099 148.645 22.6074ZM154.349 13.7481C154.364 13.7618 154.377 13.7785 154.385 13.7971C154.393 13.8157 154.397 13.8358 154.397 13.8561L154.398 22.6672C154.398 22.6772 154.4 22.6872 154.404 22.6965C154.409 22.7058 154.414 22.7142 154.422 22.7212L156.674 24.8225C156.689 24.8361 156.703 24.8356 156.716 24.8208L157.162 24.3462C157.178 24.3299 157.177 24.3143 157.161 24.2996L155.072 22.4209C155.062 22.4118 155.054 22.4008 155.048 22.3886C155.043 22.3763 155.04 22.363 155.04 22.3497L155.049 13.4773C155.049 13.4473 155.038 13.4222 155.015 13.402L153.18 11.7442C153.155 11.7218 153.132 11.7229 153.109 11.7475L152.685 12.1983C152.664 12.2207 152.665 12.242 152.687 12.2622L154.349 13.7481Z" fill="white"/>
<path d="M182.66 22.4234C182.635 22.4048 182.612 22.4073 182.592 22.4307L182.189 22.889C182.186 22.8925 182.182 22.8955 182.178 22.8975C182.174 22.8995 182.169 22.9007 182.164 22.9008C182.159 22.901 182.154 22.9001 182.15 22.8984C182.145 22.8966 182.141 22.894 182.138 22.8906L181.95 22.7024C181.929 22.6817 181.928 22.6601 181.948 22.6377L182.442 22.0911C182.46 22.0711 182.47 22.0455 182.47 22.0191V13.7138C182.47 13.6849 182.482 13.662 182.505 13.6451L187.87 9.79596C187.875 9.79189 187.882 9.78978 187.889 9.78992C187.896 9.79007 187.903 9.79247 187.909 9.79678L191.48 12.5813C191.495 12.5933 191.51 12.5922 191.523 12.5781L192.057 12.0135C192.06 12.01 192.064 12.0072 192.068 12.0052C192.073 12.0033 192.078 12.0022 192.082 12.0022C192.087 12.0021 192.092 12.003 192.096 12.0048C192.101 12.0066 192.105 12.0092 192.108 12.0126L192.305 12.2066C192.322 12.2229 192.322 12.2396 192.306 12.2565L191.714 12.9045C191.696 12.9242 191.687 12.9471 191.687 12.9733V21.4693C191.687 21.4949 191.676 21.5154 191.656 21.5306L186.542 25.3126C186.533 25.3193 186.523 25.3229 186.512 25.3229C186.501 25.3229 186.49 25.3193 186.481 25.3126L182.66 22.4234ZM185.992 11.5781C185.988 11.5806 185.986 11.5838 185.984 11.5875C185.982 11.5913 185.981 11.5954 185.98 11.5996C185.98 11.6038 185.981 11.608 185.983 11.6118C185.985 11.6156 185.988 11.6189 185.991 11.6215L188.706 13.8005C188.709 13.8031 188.712 13.8064 188.713 13.81C188.715 13.8137 188.716 13.8178 188.716 13.8218V23.2277C188.716 23.2327 188.717 23.2376 188.72 23.2419C188.723 23.2461 188.726 23.2495 188.731 23.2518C188.735 23.254 188.74 23.2549 188.745 23.2544C188.75 23.2539 188.755 23.252 188.759 23.249L189.348 22.8047C189.352 22.8022 189.354 22.799 189.356 22.7953C189.358 22.7916 189.359 22.7875 189.359 22.7834V13.4487C189.359 13.4446 189.358 13.4406 189.356 13.4369C189.355 13.4332 189.352 13.43 189.349 13.4274L186.551 11.1813C186.547 11.1774 186.541 11.1752 186.535 11.175C186.529 11.1749 186.523 11.1768 186.518 11.1805L185.992 11.5781ZM188.339 23.0133C188.343 23.0161 188.347 23.0177 188.352 23.0181C188.356 23.0185 188.361 23.0177 188.365 23.0156C188.369 23.0136 188.373 23.0105 188.375 23.0066C188.377 23.0027 188.379 22.9982 188.379 22.9937V13.9797C188.379 13.9761 188.378 13.9726 188.376 13.9693C188.375 13.9661 188.372 13.9632 188.37 13.9609L185.817 11.9112C185.814 11.9082 185.809 11.9063 185.805 11.9058C185.8 11.9052 185.795 11.906 185.791 11.9081C185.787 11.9102 185.783 11.9134 185.781 11.9174C185.778 11.9215 185.777 11.9261 185.777 11.9308V21.0642C185.777 21.068 185.778 21.0718 185.78 21.0752C185.782 21.0786 185.784 21.0816 185.787 21.0839L188.339 23.0133ZM187.033 24.5009C187.036 24.4985 187.039 24.4954 187.04 24.4919C187.042 24.4883 187.043 24.4843 187.043 24.4803C187.043 24.4762 187.043 24.4722 187.041 24.4686C187.039 24.4649 187.037 24.4617 187.033 24.4592L183.46 21.7589C183.457 21.7565 183.454 21.7533 183.452 21.7496C183.45 21.7459 183.449 21.7418 183.449 21.7377V13.4413C183.449 13.4365 183.448 13.4317 183.446 13.4275C183.443 13.4234 183.439 13.42 183.435 13.4178C183.431 13.4156 183.426 13.4146 183.421 13.415C183.416 13.4154 183.412 13.4172 183.408 13.42L182.819 13.8504C182.815 13.8529 182.813 13.8561 182.811 13.8598C182.809 13.8635 182.808 13.8676 182.808 13.8717V22.0977C182.808 22.1018 182.809 22.1059 182.811 22.1096C182.813 22.1133 182.815 22.1165 182.819 22.119L186.477 24.8847C186.482 24.888 186.487 24.8898 186.493 24.8898C186.498 24.8898 186.504 24.888 186.508 24.8847L187.033 24.5009Z" fill="white"/>
<path d="M78.1025 19.111C78.1254 19.0778 78.1167 19.0611 78.0763 19.0611H75.597C75.5887 19.0611 75.5808 19.0579 75.575 19.052C75.5692 19.0462 75.5659 19.0383 75.5659 19.03V13.4045C75.5659 13.3767 75.5774 13.3549 75.6003 13.339L80.6399 9.84015C80.6623 9.82434 80.6844 9.82461 80.7062 9.84097C81.0881 10.1268 81.3859 10.3131 81.5998 10.3998C82.5416 10.782 83.8655 10.5324 84.6601 9.95389C84.6988 9.92553 84.7282 9.91353 84.7484 9.91789C84.7697 9.9228 84.7893 9.93153 84.8073 9.94407C84.8324 9.96153 84.8362 9.9828 84.8188 10.0079L81.1906 15.2898C81.1883 15.293 81.187 15.2968 81.1868 15.3007C81.1865 15.3047 81.1874 15.3086 81.1892 15.3121C81.1911 15.3156 81.1939 15.3185 81.1973 15.3205C81.2008 15.3225 81.2047 15.3234 81.2086 15.3233H84.2959C84.2996 15.3233 84.3032 15.324 84.3066 15.3254C84.3099 15.3268 84.313 15.3289 84.3156 15.3315C84.3182 15.3341 84.3202 15.3371 84.3216 15.3405C84.323 15.3439 84.3237 15.3475 84.3237 15.3511L84.3229 21.8481C84.3229 21.883 84.3085 21.9106 84.2796 21.9308L79.4674 25.2726C79.4554 25.2807 79.4442 25.2799 79.4338 25.2701C79.1982 25.0492 79.0765 24.9354 79.0689 24.9289C78.0174 24.0026 76.4676 23.762 75.2059 24.4338C74.8409 24.628 74.4975 24.8656 74.1757 25.1465C74.1549 25.1645 74.1309 25.1725 74.1037 25.1703C74.072 25.167 74.0439 25.1585 74.0194 25.1449C73.9894 25.1274 73.9842 25.1045 74.0038 25.0762L78.1025 19.111ZM79.0321 11.3539C79.0285 11.3564 79.0255 11.3596 79.0233 11.3633C79.021 11.367 79.0196 11.3712 79.0189 11.3754C79.0183 11.3797 79.0186 11.3841 79.0197 11.3883C79.0209 11.3925 79.0228 11.3964 79.0255 11.3998C79.6277 12.164 80.3871 12.4799 81.3575 12.3563C81.9914 12.2756 82.5746 12.011 83.107 11.5626C83.2265 11.4617 83.2117 11.4355 83.0628 11.484C81.8812 11.8694 80.6457 11.9333 79.7873 10.8851C79.7682 10.8616 79.7458 10.8586 79.7202 10.8761L79.0321 11.3539ZM81.5286 12.6754C80.5216 12.8364 79.6749 12.5726 78.9887 11.8842C78.9123 11.8073 78.8741 11.8231 78.8741 11.9316V16.2856C78.8741 16.3172 78.8899 16.3331 78.9216 16.3331H79.9919C80.0224 16.3331 80.0461 16.3205 80.0631 16.2954C80.8813 15.1029 81.8471 13.6939 82.9605 12.0683C82.9605 12.0677 82.9616 12.062 82.9638 12.0511C82.9649 12.0435 82.963 12.0358 82.9581 12.0282C82.9568 12.026 82.9551 12.0241 82.9531 12.0226C82.9511 12.0211 82.9487 12.02 82.9463 12.0195C82.9438 12.0189 82.9412 12.0189 82.9387 12.0194C82.9363 12.0199 82.9339 12.021 82.9319 12.0225C82.409 12.3997 82.0768 12.5879 81.5286 12.6754ZM78.3635 18.6905C78.3673 18.6904 78.3711 18.6895 78.3745 18.6878C78.3779 18.6861 78.3808 18.6836 78.3832 18.6806L78.852 18.0596C78.8549 18.0559 78.8567 18.0514 78.8572 18.0467C78.8577 18.042 78.8569 18.0373 78.8549 18.0331C78.8528 18.0288 78.8496 18.0252 78.8457 18.0227C78.8417 18.0201 78.8371 18.0187 78.8324 18.0187H76.5715C76.5648 18.0187 76.5584 18.016 76.5536 18.0112C76.5488 18.0065 76.5462 18 76.5462 17.9933V13.1377C76.5461 13.1331 76.5448 13.1286 76.5424 13.1246C76.54 13.1207 76.5365 13.1175 76.5323 13.1153C76.5282 13.1132 76.5236 13.1123 76.5189 13.1126C76.5143 13.113 76.5099 13.1146 76.5061 13.1173L75.9145 13.5411C75.9112 13.5435 75.9086 13.5465 75.9067 13.5501C75.9049 13.5537 75.9039 13.5576 75.9038 13.5616V18.6651C75.9038 18.6718 75.9065 18.6783 75.9113 18.683C75.916 18.6878 75.9225 18.6905 75.9292 18.6905H78.3635ZM81.3535 17.7053V23.5779C81.3532 23.5791 81.3534 23.5804 81.354 23.5815C81.3545 23.5826 81.3554 23.5835 81.3565 23.584C81.3576 23.5846 81.3589 23.5848 81.3601 23.5846C81.3613 23.5843 81.3624 23.5837 81.3633 23.5828L81.9835 23.1402C81.9922 23.1342 81.9966 23.1257 81.9966 23.1148V17.0294C81.9966 17.0269 81.9961 17.0245 81.9952 17.0222C81.9942 17.0199 81.9928 17.0178 81.9911 17.0161C81.9893 17.0143 81.9873 17.013 81.985 17.012C81.9827 17.0111 81.9803 17.0106 81.9778 17.0106H80.0221C80.0107 17.0106 80.0017 17.0152 79.9951 17.0245L79.5525 17.6447C79.5519 17.6454 79.5515 17.6463 79.5514 17.6472C79.5514 17.6482 79.5516 17.6491 79.5521 17.65C79.5526 17.6508 79.5534 17.6515 79.5543 17.6521C79.5553 17.6526 79.5563 17.6529 79.5574 17.6529H81.3019C81.3368 17.6529 81.354 17.6704 81.3535 17.7053ZM79.6245 22.3816C80.1476 22.5742 80.5919 22.884 80.9574 23.3112C80.9619 23.3164 80.9679 23.32 80.9745 23.3217C80.9812 23.3234 80.9881 23.323 80.9946 23.3206C81.001 23.3182 81.0065 23.3139 81.0104 23.3083C81.0143 23.3026 81.0164 23.2959 81.0163 23.2891L81.0171 18.0645C81.0171 18.0339 81.0019 18.0187 80.9713 18.0187H79.3422C79.3298 18.0187 79.3176 18.0218 79.3066 18.0276C79.2956 18.0334 79.2862 18.0419 79.2792 18.0522L75.7246 23.1852C75.7186 23.1933 75.7181 23.2021 75.723 23.2114C75.7257 23.2179 75.7301 23.2234 75.7361 23.2277C75.7508 23.2397 75.7661 23.2405 75.7819 23.2302C76.9348 22.398 78.249 21.8743 79.6245 22.3816ZM75.696 23.8995C77.0494 23.3742 78.5321 23.825 79.5017 24.8552C79.5061 24.8602 79.5123 24.8632 79.5191 24.8638C79.5259 24.8644 79.5328 24.8625 79.5386 24.8585L80.1932 24.3806C80.2095 24.3686 80.2112 24.3547 80.1981 24.3389C79.4644 23.4514 78.522 23.066 77.371 23.1827C76.7518 23.2454 76.1799 23.4585 75.6551 23.8218C75.45 23.9636 75.4636 23.9895 75.696 23.8995Z" fill="white"/>
<path d="M195.696 19.0611H193.216C193.208 19.0611 193.2 19.0578 193.194 19.052C193.189 19.0461 193.185 19.0382 193.185 19.03V13.4061C193.185 13.3783 193.197 13.3564 193.22 13.3406L198.258 9.84174C198.28 9.82592 198.302 9.82619 198.324 9.84256C198.706 10.1284 199.003 10.3147 199.217 10.4014C200.159 10.7836 201.483 10.5332 202.276 9.95466C202.315 9.9263 202.344 9.91429 202.365 9.91866C202.386 9.92357 202.406 9.9323 202.424 9.94484C202.449 9.9623 202.452 9.98357 202.435 10.0087L198.808 15.2897C198.806 15.293 198.805 15.2968 198.805 15.3007C198.804 15.3046 198.805 15.3086 198.807 15.3121C198.809 15.3155 198.812 15.3184 198.815 15.3204C198.819 15.3224 198.822 15.3234 198.826 15.3233H201.913C201.92 15.3233 201.927 15.3262 201.933 15.3314C201.938 15.3366 201.941 15.3437 201.941 15.3511V21.8464C201.941 21.8814 201.926 21.9089 201.897 21.9291L197.087 25.2709C197.075 25.2791 197.064 25.2782 197.053 25.2684C196.818 25.0475 196.696 24.9337 196.688 24.9272C195.637 24.0009 194.088 23.7612 192.826 24.433C192.462 24.6272 192.119 24.8645 191.797 25.1449C191.776 25.1629 191.752 25.1708 191.725 25.1686C191.693 25.1653 191.665 25.1569 191.64 25.1432C191.61 25.1263 191.605 25.1037 191.625 25.0753L195.722 19.111C195.745 19.0777 195.736 19.0611 195.696 19.0611ZM196.65 11.3547C196.646 11.3572 196.643 11.3604 196.641 11.3641C196.639 11.3678 196.637 11.3719 196.637 11.3762C196.636 11.3805 196.636 11.3849 196.638 11.389C196.639 11.3932 196.641 11.3971 196.643 11.4005C197.247 12.1656 198.007 12.4806 198.979 12.3563C199.614 12.275 200.197 12.0096 200.73 11.5601C200.85 11.4592 200.835 11.433 200.686 11.4815C199.503 11.8686 198.266 11.9332 197.406 10.885C197.387 10.8616 197.364 10.8586 197.339 10.876L196.65 11.3547ZM199.146 12.6754C198.139 12.8363 197.293 12.5726 196.606 11.8841C196.53 11.8072 196.492 11.823 196.492 11.9316L196.491 16.2855C196.491 16.3172 196.507 16.333 196.539 16.333H197.61C197.64 16.333 197.664 16.3205 197.681 16.2954C198.499 15.1029 199.465 13.6938 200.579 12.0682C200.579 12.0677 200.58 12.062 200.582 12.051C200.584 12.0434 200.582 12.0358 200.577 12.0281C200.575 12.0259 200.574 12.024 200.572 12.0225C200.57 12.021 200.567 12.02 200.565 12.0194C200.562 12.0189 200.56 12.0189 200.557 12.0194C200.555 12.0199 200.553 12.0209 200.551 12.0224C200.027 12.3996 199.695 12.5878 199.146 12.6754ZM194.192 18.0186C194.185 18.0186 194.178 18.0159 194.173 18.011C194.168 18.006 194.165 17.9994 194.165 17.9924L194.166 13.1058C194.166 13.1041 194.165 13.1024 194.165 13.1009C194.164 13.0995 194.163 13.0982 194.161 13.0974C194.16 13.0965 194.158 13.0961 194.156 13.0961C194.155 13.0962 194.153 13.0967 194.152 13.0976L193.539 13.5354C193.527 13.543 193.522 13.5539 193.522 13.5681L193.521 18.6585C193.521 18.667 193.524 18.6751 193.53 18.6811C193.536 18.6871 193.544 18.6904 193.553 18.6904H195.977C195.995 18.6904 196.008 18.6836 196.018 18.67L196.483 18.0284C196.484 18.0276 196.484 18.0267 196.484 18.0257C196.484 18.0247 196.484 18.0237 196.483 18.0228C196.483 18.0219 196.482 18.0211 196.482 18.0205C196.481 18.0199 196.48 18.0195 196.479 18.0194L194.192 18.0186ZM197.181 17.6119C197.178 17.6158 197.176 17.6204 197.176 17.6251C197.175 17.6299 197.176 17.6347 197.178 17.639C197.181 17.6433 197.184 17.647 197.188 17.6496C197.192 17.6521 197.197 17.6536 197.201 17.6537H198.946C198.953 17.6537 198.96 17.6564 198.964 17.6613C198.969 17.6663 198.972 17.6729 198.972 17.6799V23.5411C198.972 23.5459 198.973 23.5507 198.976 23.5549C198.978 23.559 198.982 23.5624 198.986 23.5646C198.991 23.5668 198.996 23.5678 199 23.5674C199.005 23.567 199.01 23.5652 199.014 23.5623L199.605 23.1401C199.608 23.1377 199.611 23.1345 199.612 23.1308C199.614 23.1271 199.615 23.123 199.615 23.1188V17.0367C199.615 17.0298 199.612 17.0231 199.608 17.0182C199.603 17.0133 199.596 17.0105 199.589 17.0105H197.648C197.644 17.0105 197.64 17.0114 197.636 17.0133C197.633 17.0151 197.629 17.0178 197.627 17.0212L197.181 17.6119ZM197.242 22.3824C197.766 22.575 198.211 22.8848 198.576 23.312C198.581 23.3171 198.586 23.3208 198.593 23.3225C198.6 23.3242 198.607 23.3238 198.613 23.3214C198.62 23.319 198.625 23.3147 198.629 23.309C198.633 23.3034 198.635 23.2967 198.635 23.2899V18.0644C198.635 18.0339 198.62 18.0186 198.589 18.0186H196.959C196.947 18.0186 196.935 18.0217 196.924 18.0276C196.913 18.0334 196.903 18.0418 196.896 18.0522L193.342 23.1876C193.336 23.1958 193.336 23.2045 193.341 23.2138C193.344 23.2203 193.348 23.2258 193.354 23.2301C193.369 23.2421 193.384 23.2427 193.4 23.2318C194.553 22.3996 195.867 21.8759 197.242 22.3824ZM193.317 23.8986C194.67 23.3741 196.151 23.825 197.12 24.8544C197.124 24.8593 197.13 24.8624 197.137 24.863C197.144 24.8636 197.151 24.8617 197.156 24.8576L197.811 24.3798C197.827 24.3678 197.829 24.3539 197.816 24.338C197.083 23.4511 196.141 23.0659 194.99 23.1827C194.372 23.2454 193.8 23.4581 193.276 23.8209C193.071 23.9627 193.085 23.9887 193.317 23.8986Z" fill="white"/>
</svg>
