<svg width="226" height="20" viewBox="0 0 226 20" fill="none" xmlns="http://www.w3.org/2000/svg">
<path d="M164.788 0.5C168.332 0.830092 169.287 5.45663 169.491 8.22783C169.667 10.605 169.538 13.0102 168.882 15.2771C168.3 17.2918 167.018 19.4002 164.667 19.5H164.44C162.148 19.38 160.862 17.3662 160.269 15.3813C159.567 13.0269 159.422 10.5201 159.611 8.10262C159.793 5.76571 160.455 2.44465 162.591 1.0735C163.089 0.753625 163.616 0.562458 164.171 0.5H164.788ZM162.498 10.0079C162.497 11.8002 162.524 13.666 162.698 15.5249C162.764 16.2323 162.882 16.8788 163.052 17.4643C163.274 18.233 163.672 18.7838 164.543 18.7846C165.413 18.7846 165.811 18.2357 166.036 17.4669C166.206 16.8814 166.325 16.235 166.392 15.5275C166.569 13.6687 166.598 11.8028 166.599 10.0105C166.6 8.2182 166.575 6.35235 166.401 4.4935C166.334 3.78603 166.216 3.13928 166.047 2.55322C165.824 1.78447 165.426 1.23461 164.556 1.23373C163.685 1.23373 163.286 1.78272 163.062 2.55147C162.892 3.13694 162.773 3.78341 162.706 4.49087C162.529 6.34972 162.5 8.21557 162.498 10.0079Z" fill="white"/>
<path d="M93.5629 0.656786V6.80683C93.5629 6.81379 93.5601 6.82048 93.555 6.8254C93.5499 6.83033 93.543 6.8331 93.5358 6.8331H93.063C93.0484 6.8331 93.0402 6.8258 93.0385 6.81121C92.9532 5.90177 92.8038 5.0192 92.5902 4.16347C92.2653 2.86236 91.4624 0.981624 89.7577 1.25656C89.0829 1.36513 88.6489 1.79883 88.4557 2.55766C88.0004 4.34909 89.0178 5.91111 90.2042 7.14217C91.4808 8.46692 92.5867 9.48434 93.443 10.8853C94.1966 12.1181 94.5281 13.4717 94.4376 14.9462C94.3124 16.9977 93.0542 19.0307 90.8968 19.4002C89.882 19.5736 89.0896 19.3967 88.2587 18.7637C87.9919 18.56 87.7958 18.4406 87.6703 18.4056C87.0994 18.2453 86.8061 18.8206 86.6529 19.3188C86.6441 19.3462 86.6255 19.36 86.5969 19.36H86.3605C86.3243 19.36 86.3062 19.3419 86.3062 19.3057V13.1836C86.3062 13.1691 86.3135 13.1618 86.3281 13.1618H86.8044C86.8195 13.1618 86.8277 13.1693 86.8289 13.1845C86.9681 15.0583 87.7316 18.7663 90.1893 18.7576C91.3416 18.7532 91.993 17.7717 92.1909 16.735C92.4454 15.4041 92.1679 14.1488 91.3582 12.9691C89.2822 9.94402 85.0366 7.7183 86.4445 3.25462C86.9786 1.56301 88.4312 0.474666 90.241 0.536832C90.7395 0.55376 91.1933 0.714574 91.6025 1.01927C92.0062 1.32047 92.5718 1.82043 92.9956 1.22941C93.1018 1.08115 93.1768 0.892899 93.2206 0.664666C93.2247 0.645987 93.2363 0.636648 93.2556 0.636648H93.5428C93.5562 0.636648 93.5629 0.64336 93.5629 0.656786Z" fill="white"/>
<path d="M67.2192 18.6987C67.5712 18.7153 67.9241 18.7066 68.2769 18.7075C70.2137 18.7092 70.8765 16.6621 71.1523 15.1071C71.2644 14.472 71.3479 13.8381 71.4027 13.2054C71.4051 13.1756 71.4211 13.1607 71.4509 13.1607H71.8896C71.9152 13.1607 71.9281 13.1738 71.9281 13.2001V19.3431C71.9281 19.348 71.9262 19.3527 71.9227 19.3561C71.9193 19.3596 71.9146 19.3615 71.9097 19.3615H57.5485C57.5211 19.3615 57.5074 19.3478 57.5074 19.3204V18.9097C57.5074 18.8817 57.5214 18.8651 57.5494 18.8598C57.693 18.8359 57.9484 18.7863 58.3155 18.711C59.1552 18.5402 59.2069 18.0665 59.0615 17.2995C58.8747 16.3195 58.6792 15.3336 58.4749 14.3418C58.4696 14.3173 58.4547 14.3051 58.4302 14.3051H55.216C55.2098 14.3051 55.2037 14.3073 55.1988 14.3113C55.1939 14.3152 55.1904 14.3207 55.1888 14.327C55.0166 15.1734 54.8658 15.9713 54.7362 16.7208C54.662 17.1492 54.634 17.519 54.6521 17.8301C54.702 18.697 55.2992 18.7512 55.9944 18.8589C56.0071 18.8612 56.0187 18.8679 56.027 18.8778C56.0353 18.8877 56.0399 18.9003 56.0399 18.9132V19.3116C56.0399 19.3455 56.0233 19.3624 55.99 19.3624H52.1909C52.1807 19.3624 52.1709 19.3582 52.1636 19.3509C52.1564 19.3435 52.1523 19.3334 52.1523 19.323V18.9264C52.1523 18.8948 52.1672 18.8744 52.197 18.8651C52.7915 18.6786 53.2617 18.5744 53.4964 17.9124C53.6709 17.4186 53.811 16.9143 53.9166 16.3994C54.1116 15.4503 55.2154 10.1875 57.2281 0.611073C57.2301 0.601185 57.2354 0.592298 57.2433 0.585915C57.2511 0.579533 57.2609 0.576048 57.271 0.57605H58.2761C58.2894 0.575992 58.3023 0.580574 58.3127 0.589025C58.323 0.597476 58.3302 0.609281 58.333 0.622456C60.4099 10.3524 61.6071 15.9284 61.9246 17.3503C62.0612 17.9641 62.1987 18.6287 62.8606 18.7565C63.6014 18.9001 64.4183 18.6917 64.4192 17.775C64.4285 9.5218 64.4294 4.40815 64.4218 2.43402C64.4183 1.42623 63.9201 1.33605 63.0892 1.13554C63.0553 1.12737 63.0384 1.10577 63.0384 1.07075V0.676742C63.0384 0.645805 63.0535 0.630336 63.0839 0.630336H68.6508C68.6794 0.630336 68.6937 0.644637 68.6937 0.673239V1.1049C68.6937 1.13233 68.6803 1.14926 68.6534 1.15568C68.2428 1.24937 67.742 1.29752 67.4784 1.51729C67.2765 1.68599 67.1752 1.92356 67.1746 2.23001C67.1693 6.86998 67.1688 12.3432 67.1728 18.6497C67.1728 18.6806 67.1883 18.697 67.2192 18.6987ZM56.8227 13.5705C57.3159 13.5687 57.8071 13.5655 58.2963 13.5608C58.299 13.5608 58.3018 13.5601 58.3043 13.5588C58.3067 13.5576 58.3089 13.5558 58.3107 13.5537C58.3124 13.5515 58.3137 13.549 58.3144 13.5463C58.3151 13.5436 58.3152 13.5408 58.3146 13.5381C57.8185 11.0427 57.3177 8.547 56.8122 6.05102C56.8092 6.03818 56.8037 6.03205 56.7955 6.03264C56.7903 6.03264 56.7865 6.03877 56.7841 6.05102C56.295 8.5505 55.8105 11.0494 55.3307 13.5477C55.3302 13.5504 55.3303 13.5532 55.3309 13.5559C55.3316 13.5586 55.3329 13.5612 55.3346 13.5633C55.3364 13.5655 55.3386 13.5672 55.3411 13.5685C55.3436 13.5697 55.3463 13.5704 55.3491 13.5705C55.8388 13.5722 56.33 13.5722 56.8227 13.5705Z" fill="white"/>
<path d="M217.068 18.6463C217.068 18.6772 217.083 18.6936 217.114 18.6953C217.466 18.712 217.818 18.7032 218.171 18.7041C220.106 18.7059 220.769 16.6605 221.045 15.1064C221.157 14.4719 221.24 13.8385 221.295 13.2064C221.297 13.1766 221.313 13.1617 221.343 13.1617H221.781C221.807 13.1617 221.819 13.1748 221.819 13.2011V19.3389C221.819 19.3438 221.818 19.3484 221.814 19.3519C221.811 19.3553 221.806 19.3573 221.801 19.3573L207.451 19.3564C207.424 19.3564 207.41 19.3427 207.41 19.3153V18.9055C207.41 18.8775 207.424 18.8608 207.452 18.8556C207.595 18.8316 207.85 18.782 208.217 18.7067C209.056 18.536 209.108 18.0623 208.963 17.2962C208.776 16.3167 208.581 15.3317 208.377 14.3411C208.372 14.3166 208.357 14.3043 208.332 14.3043L205.12 14.3035C205.114 14.3035 205.108 14.3057 205.103 14.3096C205.098 14.3136 205.095 14.3191 205.093 14.3253C204.921 15.1712 204.77 15.9685 204.641 16.7174C204.567 17.1459 204.539 17.5154 204.557 17.8259C204.607 18.6927 205.204 18.747 205.898 18.8538C205.911 18.8561 205.922 18.8628 205.931 18.8727C205.939 18.8826 205.944 18.8952 205.944 18.9081V19.3065C205.944 19.3404 205.927 19.3573 205.894 19.3573H202.097C202.087 19.3573 202.077 19.3531 202.07 19.3457C202.063 19.3384 202.059 19.3283 202.059 19.3179V18.9212C202.059 18.8897 202.073 18.8693 202.103 18.86C202.698 18.6735 203.167 18.5693 203.402 17.9082C203.576 17.415 203.716 16.9109 203.822 16.3961C204.017 15.4481 205.12 10.1897 207.132 0.620839C207.134 0.610951 207.139 0.602063 207.147 0.595681C207.155 0.589299 207.165 0.585814 207.175 0.585816H208.179C208.192 0.585757 208.205 0.590352 208.216 0.598817C208.226 0.607281 208.233 0.619089 208.236 0.632222C210.31 10.3546 211.506 15.9262 211.824 17.347C211.96 17.9607 212.098 18.6244 212.759 18.7523C213.499 18.8959 214.316 18.6875 214.317 17.7716C214.327 9.52486 214.328 4.41529 214.32 2.44291C214.317 1.436 213.818 1.34582 212.988 1.14531C212.955 1.13714 212.938 1.11554 212.938 1.08052V0.686507C212.938 0.65557 212.953 0.640102 212.983 0.640102L218.546 0.640977C218.574 0.640977 218.589 0.655278 218.589 0.68388V1.11466C218.589 1.1421 218.575 1.15903 218.548 1.16545C218.139 1.25913 217.638 1.30729 217.374 1.52706C217.172 1.69575 217.071 1.93303 217.07 2.2389C217.065 6.87537 217.064 12.3445 217.068 18.6463ZM206.732 13.5706C207.221 13.5688 207.709 13.5659 208.195 13.5618C208.197 13.5619 208.2 13.5614 208.203 13.5602C208.205 13.559 208.207 13.5573 208.209 13.5551C208.211 13.5529 208.212 13.5504 208.213 13.5476C208.213 13.5448 208.214 13.5419 208.213 13.5391C207.721 11.0618 207.224 8.5842 206.723 6.10632C206.72 6.09406 206.715 6.08793 206.707 6.08793C206.702 6.08793 206.698 6.09406 206.696 6.10632C206.209 8.58712 205.728 11.0676 205.251 13.5478C205.25 13.5507 205.251 13.5536 205.251 13.5563C205.252 13.5591 205.253 13.5617 205.255 13.5639C205.257 13.566 205.259 13.5678 205.261 13.5689C205.264 13.5701 205.267 13.5707 205.269 13.5706C205.755 13.5724 206.242 13.5724 206.732 13.5706Z" fill="white"/>
<path d="M0.902344 6.83292V0.636475L10.7097 0.638226C10.717 0.638226 10.7243 0.639675 10.7311 0.642491C10.7379 0.645307 10.7441 0.649435 10.7493 0.654639C10.7545 0.659842 10.7586 0.66602 10.7614 0.672818C10.7643 0.679617 10.7657 0.686904 10.7657 0.694263V6.80053C10.7657 6.82212 10.7549 6.83292 10.7333 6.83292H10.2754C10.2561 6.83292 10.2459 6.82358 10.2447 6.80491C10.1502 5.36283 9.88225 1.56546 7.97174 1.30016C7.82581 1.27973 7.58532 1.27769 7.25027 1.29403C7.22108 1.29578 7.20649 1.31096 7.20649 1.33956C7.20649 9.9383 7.2059 15.3205 7.20474 17.4861C7.20474 18.0123 7.28704 18.5114 7.88418 18.6514C8.33773 18.7577 8.64097 18.8271 8.79391 18.8598C8.82251 18.8657 8.83681 18.8832 8.83681 18.9124V19.3046C8.83681 19.3414 8.81871 19.3598 8.78252 19.3598H2.99059C2.98479 19.3598 2.97922 19.3574 2.97511 19.3531C2.97101 19.3488 2.9687 19.3431 2.9687 19.337V18.8782C2.9687 18.8584 2.97833 18.8473 2.9976 18.8449C3.86208 18.7375 4.32964 18.4801 4.40027 18.0727C4.44113 17.8375 4.46156 17.6565 4.46156 17.5298C4.46156 15.4174 4.46156 10.0212 4.46156 1.34131C4.46156 1.31154 4.44638 1.29578 4.41603 1.29403C4.1446 1.28002 3.9225 1.28061 3.74972 1.29578C1.77354 1.46477 1.55465 5.35057 1.41806 6.78652C1.41514 6.8157 1.39909 6.8303 1.3699 6.8303L0.902344 6.83292Z" fill="white"/>
<path d="M17.5448 9.38274C18.3597 9.38274 19.0292 9.38245 19.5534 9.38187C19.5826 9.38187 19.5972 9.36728 19.5972 9.33809C19.5972 7.24313 19.5969 4.97568 19.5963 2.53574C19.5963 1.95699 19.5105 1.49293 18.8801 1.31782C18.5882 1.23726 18.3638 1.17802 18.2068 1.14007C18.1921 1.13654 18.179 1.12823 18.1696 1.11648C18.1602 1.10473 18.1551 1.09022 18.1551 1.07528V0.686526C18.1551 0.65267 18.1723 0.635742 18.2068 0.635742H23.708C23.7197 0.635742 23.7255 0.641579 23.7255 0.653254V1.12431C23.7255 1.14299 23.7162 1.1535 23.6975 1.15583C23.0257 1.24222 22.6033 1.45586 22.4306 1.79676C22.3716 1.9135 22.3418 2.23542 22.3412 2.76252C22.3407 5.60288 22.3407 10.5245 22.3412 17.5273C22.3412 18.0641 22.4883 18.5526 23.0741 18.6989C23.4162 18.7841 23.6178 18.8366 23.6791 18.8565C23.7118 18.867 23.7282 18.8895 23.7282 18.9239V19.31C23.7282 19.3427 23.7118 19.3591 23.6791 19.3591H18.2033C18.1723 19.3591 18.1569 19.3436 18.1569 19.3126V18.9081C18.1569 18.8969 18.1608 18.886 18.1679 18.8772C18.1751 18.8685 18.1851 18.8624 18.1963 18.86C18.6224 18.7683 18.8629 18.7132 18.9177 18.6945C19.444 18.5141 19.5972 18.0413 19.5972 17.53C19.5978 15.7467 19.5978 13.2887 19.5972 10.1559C19.5972 10.151 19.5962 10.1463 19.5944 10.1418C19.5925 10.1373 19.5898 10.1333 19.5864 10.1299C19.583 10.1265 19.579 10.1237 19.5745 10.1219C19.57 10.1201 19.5652 10.1191 19.5604 10.1191C19.3906 10.1191 18.7187 10.1191 17.5448 10.1191C16.371 10.1197 15.6991 10.12 15.5293 10.12C15.5197 10.12 15.5104 10.1237 15.5036 10.1304C15.4967 10.1371 15.4927 10.1463 15.4925 10.1559C15.4925 13.2887 15.4931 15.7467 15.4942 17.53C15.4942 18.0413 15.6475 18.5141 16.1737 18.6945C16.2286 18.7132 16.4691 18.7683 16.8952 18.86C16.9063 18.8624 16.9163 18.8685 16.9235 18.8772C16.9307 18.886 16.9346 18.8969 16.9346 18.9081V19.3126C16.9346 19.3436 16.9191 19.3591 16.8882 19.3591L11.4123 19.3599C11.3796 19.3599 11.3633 19.3436 11.3633 19.3109V18.9248C11.3633 18.8903 11.3796 18.8679 11.4123 18.8573C11.4736 18.8375 11.6753 18.785 12.0173 18.6997C12.6031 18.5535 12.7502 18.065 12.7502 17.5282C12.7496 10.5254 12.7487 5.60376 12.7476 2.76339C12.747 2.23629 12.7172 1.91437 12.6583 1.79763C12.4855 1.45674 12.0632 1.2431 11.3913 1.15671C11.3726 1.15437 11.3633 1.14387 11.3633 1.12519V0.654129C11.3633 0.642455 11.3691 0.636618 11.3808 0.636618L16.882 0.635742C16.9165 0.635742 16.9337 0.65267 16.9337 0.686526V1.07528C16.9337 1.09022 16.9286 1.10473 16.9192 1.11648C16.9098 1.12823 16.8967 1.13654 16.882 1.14007C16.725 1.17802 16.5006 1.23726 16.2087 1.31782C15.5783 1.49293 15.4925 1.95699 15.4925 2.53574C15.4925 4.97568 15.4925 7.24313 15.4925 9.33809C15.4925 9.36728 15.5071 9.38187 15.5363 9.38187C16.0605 9.38245 16.73 9.38274 17.5448 9.38274Z" fill="white"/>
<path d="M28.4981 9.29504C29.4507 9.30292 30.1529 9.32481 30.5382 8.465C30.8884 7.68486 31.0092 6.76638 31.1073 5.93721C31.112 5.89927 31.1333 5.8803 31.1712 5.8803H31.5889C31.6186 5.8803 31.6335 5.89547 31.6335 5.92583V13.3936C31.6335 13.4205 31.6198 13.4339 31.5924 13.4339H31.1537C31.143 13.4339 31.1327 13.4298 31.1249 13.4225C31.1171 13.4152 31.1123 13.4052 31.1117 13.3945C31.0443 12.532 30.9716 11.6179 30.6695 10.8133C30.4804 10.3119 30.1167 10.0413 29.5785 10.0016C29.2044 9.97361 28.8448 9.96106 28.4998 9.96398C28.4695 9.96398 28.4543 9.97945 28.4543 10.0104V18.6479C28.4543 18.68 28.4706 18.6967 28.5033 18.6978C28.7894 18.7048 29.3045 18.7084 30.0487 18.7084C30.5828 18.7089 30.9809 18.6561 31.243 18.5499C32.4741 18.0525 32.9259 16.6166 33.1386 15.3803C33.2857 14.5228 33.3888 13.7926 33.4477 13.1896C33.4495 13.1709 33.4597 13.1616 33.4784 13.1616H33.9398C33.9602 13.1616 33.9704 13.1715 33.9704 13.1914V19.3283C33.9704 19.3323 33.9696 19.3363 33.9681 19.34C33.9666 19.3437 33.9643 19.3471 33.9615 19.3499C33.9586 19.3528 33.9552 19.355 33.9515 19.3566C33.9478 19.3581 33.9438 19.3589 33.9398 19.3589H24.3759C24.3414 19.3589 24.3242 19.3417 24.3242 19.3072V18.9124C24.3242 18.8849 24.3374 18.8674 24.3636 18.8598C25.1753 18.6348 25.7085 18.5893 25.7094 17.5736C25.7117 11.7002 25.7111 6.60031 25.7076 2.2738C25.707 1.93058 25.5772 1.66119 25.318 1.46564C25.0956 1.29841 24.5869 1.19509 24.375 1.13818C24.3417 1.12884 24.3251 1.11308 24.3251 1.0909L24.3242 0.678502C24.3242 0.650484 24.3382 0.636475 24.3662 0.636475H33.6438C33.6582 0.636475 33.672 0.642194 33.6822 0.652375C33.6924 0.662555 33.6981 0.676363 33.6981 0.69076V6.80578C33.6981 6.82387 33.6888 6.83292 33.6701 6.83292H33.1947C33.1824 6.83292 33.1757 6.82709 33.1745 6.81541C33.0817 5.77056 32.9329 4.80742 32.728 3.92601C32.439 2.67832 31.8078 1.30541 30.3228 1.28703C30.122 1.28469 29.5146 1.28674 28.5007 1.29316C28.4698 1.29374 28.4543 1.3095 28.4543 1.34044V9.25039C28.4543 9.27957 28.4689 9.29446 28.4981 9.29504Z" fill="white"/>
<path d="M46.4067 7.10011L44.0873 19.3731C44.0821 19.3993 44.066 19.4125 44.0392 19.4125H43.0165C42.9827 19.4125 42.9622 19.3958 42.9552 19.3625C42.7941 18.6096 41.6427 13.1749 39.5011 3.05846C39.417 2.66095 39.2985 2.27453 39.1456 1.8992C39.0183 1.58749 38.7948 1.38261 38.4749 1.28454C38.1784 1.19407 38.0044 1.14474 37.9531 1.13657C37.9245 1.1319 37.9102 1.11527 37.9102 1.08666V0.680397C37.9102 0.668553 37.9149 0.657195 37.9232 0.648821C37.9316 0.640447 37.943 0.635742 37.9548 0.635742H43.2415C43.2476 0.635742 43.2534 0.638141 43.2576 0.64241C43.2619 0.646679 43.2643 0.65247 43.2643 0.658507V1.1103C43.2643 1.12957 43.2544 1.14007 43.2345 1.14182C42.5037 1.19494 42.1427 1.50811 42.1514 2.08132C42.1561 2.38368 42.1745 2.61542 42.2066 2.77652C42.6648 5.07695 43.3843 8.62916 44.3649 13.4332C44.3812 13.5155 44.3973 13.5155 44.4131 13.4332C44.9419 10.6523 45.4486 7.98124 45.9331 5.41989C45.9634 5.26053 45.9634 5.10497 45.9331 4.9532C45.7323 3.9387 45.5137 2.92158 45.2772 1.90182C45.1582 1.38786 44.8263 1.22413 44.3474 1.14708C44.2943 1.13832 44.2677 1.10709 44.2677 1.05339V0.71542C44.2677 0.662301 44.2943 0.635742 44.3474 0.635742H49.4958C49.5069 0.635742 49.5124 0.641288 49.5124 0.652378V1.10943C49.5124 1.12227 49.506 1.12957 49.4931 1.13132C48.9135 1.21975 48.3313 1.25565 48.2402 1.89219C48.1958 2.20623 48.2148 2.55909 48.2971 2.95076C48.3181 3.04941 49.0057 6.56864 50.36 13.5085C50.3781 13.6018 50.3967 13.6018 50.416 13.5085C51.2437 9.42944 51.8829 6.28058 52.3335 4.06187C52.4292 3.58964 52.4987 3.12471 52.5419 2.66708C52.5971 2.07344 52.5471 1.42026 51.8581 1.26265C51.6112 1.20603 51.3949 1.16313 51.2093 1.13394C51.1836 1.12986 51.1707 1.11497 51.1707 1.08929V0.671641C51.1707 0.647708 51.183 0.635742 51.2075 0.635742H54.9445C54.9847 0.635742 55.0049 0.655589 55.0049 0.695281V1.07528C55.0049 1.10622 54.9897 1.12577 54.9594 1.13394C54.8654 1.15963 54.673 1.21187 54.3824 1.29067C53.9997 1.39487 53.7913 1.81339 53.6565 2.21003C53.5368 2.55967 53.4111 3.05554 53.2791 3.69763C53.191 4.12608 52.0918 9.35589 49.9817 19.3871C49.9803 19.394 49.9765 19.4002 49.9709 19.4046C49.9653 19.4091 49.9583 19.4116 49.9511 19.4116H49.0177C49.0119 19.4116 49.0064 19.4096 49.0019 19.4061C48.9975 19.4026 48.9944 19.3978 48.9932 19.3923L46.4453 7.09924C46.4318 7.03503 46.419 7.03532 46.4067 7.10011Z" fill="white"/>
<path d="M76.7084 18.6971C77.2618 18.7257 77.7428 18.7161 78.1514 18.6682C80.371 18.4082 80.7404 14.8744 80.8893 13.1976C80.8902 13.1878 80.8948 13.1786 80.9023 13.172C80.9097 13.1653 80.9195 13.1617 80.9296 13.1617H81.3805C81.3898 13.1617 81.3987 13.1653 81.4053 13.1717C81.4118 13.1781 81.4155 13.1868 81.4155 13.1959V19.3284C81.4155 19.3494 81.4053 19.3599 81.3849 19.3599H72.5766C72.5451 19.3599 72.5293 19.3439 72.5293 19.3118V18.9125C72.5293 18.8827 72.5439 18.8638 72.5731 18.8556C73.151 18.7032 73.671 18.6358 73.833 18.1385C73.8949 17.9482 73.9258 17.7387 73.9258 17.5098C73.9183 9.70204 73.9089 4.61699 73.8978 2.25468C73.8934 1.38173 73.228 1.31519 72.5766 1.13745C72.5451 1.12869 72.5293 1.10768 72.5293 1.07441V0.675143C72.5293 0.648876 72.5424 0.635742 72.5687 0.635742H78.1514C78.1706 0.635742 78.1803 0.645374 78.1803 0.664636V1.14883C78.1803 1.16692 78.1712 1.17714 78.1531 1.17947C77.2554 1.27229 76.7758 1.51628 76.7145 1.91146C76.6661 2.22433 76.6422 2.49809 76.6427 2.73275C76.6562 13.0167 76.6632 18.3224 76.6638 18.6498C76.6638 18.6796 76.6786 18.6954 76.7084 18.6971Z" fill="white"/>
<path d="M99.3627 0.635742C102.239 0.635742 103.872 0.63691 104.261 0.639244C104.265 0.639245 104.27 0.640157 104.274 0.641929C104.279 0.6437 104.282 0.646294 104.286 0.649558C104.289 0.652822 104.292 0.65669 104.293 0.660934C104.295 0.665177 104.296 0.669711 104.296 0.674268V6.8033C104.296 6.82314 104.286 6.83307 104.266 6.83307H103.807C103.785 6.83307 103.773 6.82198 103.771 6.79979C103.689 5.4339 103.398 1.55159 101.536 1.30731C101.33 1.27987 101.079 1.27579 100.784 1.29505C100.752 1.2968 100.736 1.31373 100.736 1.34583C100.721 3.00651 100.728 8.45959 100.756 17.7051C100.757 18.2462 101.015 18.5786 101.53 18.7024C101.767 18.759 101.986 18.8115 102.186 18.86C102.216 18.867 102.231 18.886 102.231 18.9169L102.232 19.3004C102.232 19.3348 102.214 19.3532 102.178 19.3556C102.145 19.3579 101.207 19.3593 99.3644 19.3599C97.5211 19.3599 96.583 19.3588 96.5503 19.3564C96.5141 19.3535 96.4961 19.3348 96.4961 19.3004L96.4969 18.9169C96.4969 18.886 96.5118 18.867 96.5416 18.86C96.7424 18.8115 96.9613 18.759 97.1983 18.7024C97.7125 18.5786 97.9705 18.2462 97.9723 17.7051C97.9991 8.45959 98.0047 3.00651 97.9889 1.34583C97.9889 1.31373 97.9732 1.2968 97.9416 1.29505C97.6463 1.27579 97.3956 1.27987 97.1895 1.30731C95.3272 1.55247 95.0373 5.43477 94.955 6.80067C94.9533 6.82285 94.9413 6.83394 94.9191 6.83394H94.4603C94.4405 6.83394 94.4306 6.82402 94.4306 6.80417L94.4297 0.675143C94.4296 0.670587 94.4304 0.666053 94.4321 0.661809C94.4338 0.657566 94.4364 0.653698 94.4396 0.650434C94.4429 0.64717 94.4468 0.644575 94.4511 0.642804C94.4554 0.641033 94.46 0.64012 94.4647 0.64012C94.8535 0.637201 96.4861 0.635742 99.3627 0.635742Z" fill="white"/>
<path d="M111.271 9.80411C111.377 9.83855 111.529 9.87883 111.727 9.92494C112.857 10.1888 113.556 10.8907 113.824 12.0307C113.946 12.5473 114.022 12.9754 114.052 13.3152C114.149 14.4271 114.255 15.8616 114.368 17.6186C114.384 17.8647 114.417 18.4364 114.726 18.4574C114.904 18.4691 115.031 18.3798 115.108 18.1895C115.322 17.651 115.314 16.8411 115.298 16.3149C115.297 16.2985 115.305 16.2904 115.322 16.2904H115.841C115.854 16.2904 115.861 16.2971 115.862 16.3105C115.89 16.8493 115.867 17.3635 115.794 17.8533C115.728 18.3022 115.56 18.6746 115.292 18.9705C114.681 19.6465 113.167 19.6106 112.485 19.0292C112.208 18.7928 112.007 18.5237 111.883 18.2219C111.607 17.5547 111.452 16.8213 111.415 16.0216C111.317 13.8204 111.262 12.4708 111.253 11.9729C111.243 11.4645 111.161 11.034 111.007 10.6814C110.892 10.4193 110.683 10.2533 110.378 10.1832C110.16 10.1336 109.715 10.1281 109.042 10.1666C109.013 10.1683 108.998 10.1838 108.998 10.213C108.993 12.4078 108.994 14.7818 109 17.3349C109.001 18.0477 109.041 18.5467 109.781 18.7262C110.126 18.8103 110.311 18.8549 110.337 18.8602C110.366 18.866 110.381 18.8844 110.381 18.9153V19.3155C110.381 19.3453 110.366 19.3601 110.337 19.3601H104.923C104.902 19.3601 104.892 19.3496 104.892 19.3286V18.8821C104.892 18.8611 104.902 18.8491 104.922 18.8462C105.709 18.7143 106.138 18.4641 106.21 18.0958C106.256 17.8582 106.279 17.6405 106.279 17.4426C106.275 12.7682 106.274 7.79933 106.278 2.53596C106.279 1.47564 105.907 1.3837 104.935 1.14204C104.906 1.13504 104.891 1.11636 104.891 1.08601V0.680614C104.891 0.651428 104.905 0.636835 104.934 0.636835C108.008 0.6345 109.718 0.633625 110.064 0.634208C112.447 0.634208 114.516 2.11568 114.776 4.58568C115.045 7.14586 113.696 9.03098 111.271 9.77259C111.237 9.7831 111.237 9.7936 111.271 9.80411ZM109.036 9.4924C110.333 9.53093 111.341 9.49591 111.682 8.00655C111.816 7.4135 111.888 6.76499 111.895 6.06102C111.909 4.72402 111.993 1.37845 109.954 1.29614C109.652 1.2833 109.347 1.28213 109.038 1.29264C109.01 1.29381 108.996 1.30869 108.996 1.3373V9.45125C108.996 9.47752 109.009 9.49124 109.036 9.4924Z" fill="white"/>
<path d="M120.164 10.0044V18.6638C120.164 18.6907 120.178 18.7044 120.205 18.705C120.897 18.7085 121.53 18.7073 122.104 18.7015C124.001 18.6831 124.606 16.8225 124.869 15.2806C124.984 14.6018 125.081 13.9066 125.158 13.195C125.161 13.1728 125.173 13.1617 125.195 13.1617H125.653C125.671 13.1617 125.68 13.1708 125.68 13.1889V19.3275C125.68 19.3491 125.669 19.3599 125.648 19.3599H116.055C116.041 19.3599 116.034 19.3529 116.034 19.3389V18.874C116.034 18.8582 116.042 18.8492 116.058 18.8468C117.089 18.6761 117.423 18.402 117.423 17.5081C117.419 8.94846 117.417 4.05253 117.417 2.8203C117.417 2.16625 117.451 1.64353 116.874 1.37473C116.596 1.24602 116.112 1.19348 115.809 1.13219C115.777 1.12636 115.762 1.10739 115.762 1.07528V0.674268C115.762 0.648584 115.775 0.635742 115.801 0.635742H125.389C125.394 0.635742 125.398 0.637587 125.402 0.640871C125.405 0.644155 125.407 0.648609 125.407 0.653254V6.79892C125.407 6.82227 125.395 6.83394 125.371 6.83394H124.932C124.904 6.83394 124.889 6.81993 124.886 6.79191C124.776 5.79288 124.65 4.81574 124.414 3.84473C124.187 2.91574 123.729 1.8239 122.804 1.43076C122.575 1.33328 122.222 1.28454 121.745 1.28454C121.064 1.28571 120.55 1.28951 120.204 1.29593C120.177 1.29651 120.164 1.31023 120.164 1.33708V9.24966C120.164 9.27592 120.177 9.28935 120.204 9.28993C120.748 9.29927 121.098 9.28935 121.252 9.26016C121.715 9.17261 122.045 8.91081 122.242 8.47477C122.598 7.68588 122.716 6.7744 122.818 5.92597C122.821 5.89562 122.838 5.88044 122.868 5.88044H123.311C123.32 5.88044 123.328 5.88385 123.334 5.88993C123.34 5.896 123.343 5.90424 123.343 5.91284V13.4165C123.343 13.4282 123.337 13.434 123.325 13.434H122.849C122.831 13.434 122.821 13.425 122.82 13.4069C122.74 12.5436 122.665 11.71 122.431 10.95C122.244 10.3406 121.838 10.0216 121.211 9.99302C120.812 9.97434 120.477 9.96383 120.207 9.9615C120.178 9.9615 120.164 9.9758 120.164 10.0044Z" fill="white"/>
<path d="M130.406 9.25068C130.406 9.27986 130.421 9.29475 130.45 9.29533C131.403 9.30321 132.105 9.3251 132.49 8.46528C132.84 7.68427 132.961 6.76579 133.059 5.93662C133.064 5.89868 133.085 5.87971 133.123 5.87971H133.541C133.571 5.87971 133.586 5.89489 133.586 5.92524V13.3948C133.586 13.4216 133.572 13.4351 133.544 13.4351H133.106C133.095 13.4351 133.085 13.431 133.077 13.4237C133.069 13.4164 133.064 13.4063 133.064 13.3957C132.996 12.5332 132.924 11.6182 132.622 10.8136C132.432 10.3122 132.069 10.0416 131.531 10.0019C131.156 9.9739 130.797 9.96135 130.452 9.96427C130.422 9.96427 130.406 9.97974 130.406 10.0107V18.65C130.406 18.6821 130.423 18.6987 130.455 18.6999C130.741 18.7069 131.257 18.7104 132.001 18.7104C132.535 18.711 132.933 18.6582 133.195 18.5519C134.427 18.0546 134.879 16.6186 135.092 15.3815C135.239 14.524 135.342 13.7937 135.401 13.1908C135.402 13.1721 135.413 13.1627 135.431 13.1627H135.893C135.913 13.1627 135.923 13.1727 135.923 13.1925V19.3303C135.923 19.3384 135.92 19.3462 135.914 19.352C135.909 19.3577 135.901 19.361 135.893 19.361H126.327C126.293 19.361 126.275 19.3437 126.275 19.3093V18.9144C126.275 18.887 126.289 18.8695 126.315 18.8619C127.126 18.6369 127.66 18.5913 127.661 17.5757C127.663 11.7011 127.662 6.60002 127.659 2.27234C127.658 1.92911 127.528 1.65973 127.269 1.46418C127.047 1.29695 126.538 1.19363 126.326 1.13671C126.293 1.12738 126.276 1.11161 126.276 1.08943L126.275 0.677037C126.275 0.649019 126.289 0.63501 126.317 0.63501H135.597C135.611 0.63501 135.625 0.640729 135.635 0.65091C135.645 0.66109 135.651 0.674898 135.651 0.689295V6.80519C135.651 6.82329 135.642 6.83234 135.623 6.83234H135.148C135.135 6.83234 135.129 6.8265 135.127 6.81482C135.035 5.76997 134.886 4.80684 134.681 3.92542C134.392 2.67685 133.761 1.30395 132.275 1.28556C132.074 1.28323 131.467 1.28527 130.453 1.29169C130.422 1.29228 130.406 1.30804 130.406 1.33897V9.25068Z" fill="white"/>
<path d="M140.031 1.2933C139.707 1.27287 139.42 1.28279 139.169 1.32307C138.155 1.48505 137.637 3.00855 137.445 3.84823C137.232 4.78568 137.099 5.77391 137.049 6.81293C137.048 6.82635 137.041 6.83307 137.028 6.83307H136.55C136.531 6.83307 136.521 6.82314 136.521 6.8033V0.66989C136.521 0.660833 136.525 0.652148 136.531 0.645744C136.538 0.63934 136.547 0.635742 136.556 0.635742H146.318C146.336 0.635742 146.353 0.642753 146.366 0.655232C146.379 0.667712 146.386 0.684637 146.386 0.702286V6.80417C146.386 6.82344 146.376 6.83307 146.357 6.83307H145.898C145.875 6.83307 145.863 6.82198 145.862 6.79979C145.782 5.54597 145.637 4.33067 145.271 3.17229C145.111 2.66562 144.876 2.22462 144.566 1.84929C144.097 1.27929 143.553 1.25828 142.876 1.2933C142.843 1.29505 142.827 1.31198 142.827 1.34408C142.821 6.77966 142.822 12.2406 142.831 17.727C142.833 18.7374 143.776 18.6831 144.417 18.8617C144.444 18.8693 144.458 18.8871 144.458 18.9151V19.3074C144.458 19.3424 144.44 19.3599 144.405 19.3599H138.619C138.598 19.3599 138.587 19.3488 138.587 19.3267V18.8784C138.587 18.8597 138.596 18.8492 138.615 18.8468C139.456 18.7389 139.918 18.5013 140.004 18.1341C140.087 17.776 140.08 17.4582 140.081 17.0957C140.084 12.0868 140.083 6.83628 140.079 1.34408C140.079 1.31198 140.063 1.29505 140.031 1.2933Z" fill="white"/>
<path d="M155.162 2.68021C155.162 2.09358 155.18 1.54021 154.496 1.3397C154.323 1.28892 154.054 1.2215 153.689 1.13745C153.675 1.13427 153.662 1.12629 153.653 1.11483C153.644 1.10338 153.639 1.08912 153.638 1.07441V0.66989C153.638 0.660833 153.642 0.652148 153.649 0.645744C153.655 0.63934 153.664 0.635742 153.674 0.635742H159.215C159.248 0.635742 159.265 0.652378 159.265 0.68565V1.07265C159.265 1.10593 159.249 1.12694 159.217 1.1357C158.783 1.25477 158.532 1.32715 158.462 1.35284C157.98 1.53146 157.931 1.99726 157.931 2.44906C157.933 2.82556 157.933 6.99884 157.932 14.9689C157.931 17.3198 156.839 19.1594 154.384 19.4405C152.419 19.6655 150.932 18.3486 150.751 16.4294C150.661 15.4776 150.931 14.5626 151.797 14.1266C152.583 13.7309 153.584 14.0951 153.733 15.0276C153.853 15.7797 153.531 16.2849 152.944 16.7017C152.51 17.009 151.888 17.3654 152.252 17.9835C152.578 18.5378 153.211 18.8162 153.836 18.7453C154.786 18.6367 155.042 17.6272 155.107 16.8067C155.145 16.3211 155.165 15.869 155.165 15.4505C155.164 11.0119 155.163 6.75514 155.162 2.68021Z" fill="white"/>
<path d="M175.453 19.4998H175.252C174.966 19.4812 174.74 19.4599 174.573 19.4359C172.221 19.0918 171.153 17.2663 171.165 15.0344C171.165 15.0198 171.167 10.7514 171.17 2.22911C171.17 1.7744 170.965 1.47437 170.555 1.32902C170.501 1.30917 170.278 1.24642 169.887 1.14077C169.871 1.13673 169.858 1.12786 169.849 1.11552C169.839 1.10317 169.834 1.08805 169.834 1.07248V0.665334C169.834 0.657439 169.837 0.649867 169.843 0.644284C169.849 0.638701 169.856 0.635564 169.865 0.635564H175.472C175.5 0.635564 175.514 0.649574 175.514 0.677592V1.08824C175.514 1.11684 175.5 1.13406 175.471 1.1399C174.957 1.24321 174.628 1.32114 174.486 1.37367C174.003 1.55142 173.933 1.98833 173.933 2.44801C173.937 9.74856 173.939 13.7593 173.94 14.4802C173.94 15.7235 173.912 16.459 174.226 17.3862C174.574 18.415 175.545 18.6943 176.538 18.5262C178.195 18.2443 178.306 16.2112 178.308 14.8716C178.315 8.582 178.315 4.63053 178.307 3.01713C178.305 2.67653 178.254 1.97432 178.053 1.67838C177.778 1.27298 177.253 1.20994 176.828 1.13552C176.818 1.13386 176.808 1.12855 176.801 1.12053C176.794 1.11252 176.791 1.10231 176.79 1.09174V0.670587C176.79 0.661531 176.794 0.652845 176.8 0.646442C176.807 0.640038 176.816 0.63644 176.825 0.63644C180.923 0.637024 183.989 0.635856 186.022 0.632938C188.564 0.630311 190.702 2.29653 190.774 4.94515C190.831 7.06579 189.933 8.57178 188.079 9.46312C187.871 9.56381 187.505 9.69252 187.232 9.76607C187.177 9.78066 187.178 9.79467 187.233 9.8081C187.394 9.84604 187.575 9.89128 187.775 9.94381C188.854 10.224 189.526 10.9151 189.791 12.0172C189.922 12.56 190.005 13.0381 190.04 13.4514C190.126 14.4577 190.229 15.8761 190.349 17.7067C190.364 17.9378 190.404 18.4562 190.738 18.4597C191.351 18.4667 191.278 16.6963 191.272 16.3198C191.272 16.2999 191.282 16.29 191.302 16.29H191.804C191.83 16.29 191.844 16.3031 191.844 16.3294C191.866 17.0736 191.872 18.0718 191.444 18.7486C190.972 19.4928 189.918 19.5822 189.138 19.3703C187.724 18.9868 187.451 17.2102 187.395 15.9529C187.271 13.1937 187.205 11.7145 187.198 11.5155C187.188 11.2598 187.122 10.9761 187 10.6644C186.878 10.3562 186.631 10.1893 186.257 10.1636C185.973 10.1437 185.464 10.1399 184.731 10.1522C184.723 10.1524 184.716 10.1556 184.711 10.161C184.705 10.1664 184.702 10.1736 184.702 10.1811C184.692 12.4191 184.693 14.934 184.706 17.7259C184.709 18.291 184.988 18.6313 185.544 18.7469C185.737 18.7865 185.899 18.8242 186.031 18.8598C186.066 18.8697 186.084 18.8925 186.084 18.9281V19.3107C186.084 19.3434 186.067 19.3598 186.035 19.3598H180.627C180.607 19.3598 180.597 19.3498 180.597 19.33V18.8694C180.597 18.8502 180.607 18.8394 180.626 18.837C181.528 18.7401 181.979 18.3701 181.979 17.7268C181.981 13.7301 181.982 8.63745 181.981 2.44888C181.981 1.53741 181.539 1.20294 180.657 1.20732C179.931 1.21082 179.373 1.36229 179.211 2.18621C179.153 2.48449 179.125 2.82801 179.127 3.21676C179.13 3.71175 179.129 7.61449 179.125 14.925C179.123 17.0421 178.473 19.182 175.995 19.4517C175.815 19.4715 175.635 19.4876 175.453 19.4998ZM185.924 9.48501C187.441 9.44211 187.693 8.30123 187.812 7.04741C187.932 5.79183 187.899 4.58762 187.712 3.43478C187.56 2.49179 187.141 1.48925 186.096 1.31326C185.871 1.27532 185.42 1.27065 184.742 1.29925C184.713 1.30042 184.698 1.31589 184.698 1.34566V9.45174C184.698 9.47859 184.711 9.49201 184.738 9.49201C185.164 9.49785 185.56 9.49552 185.924 9.48501Z" fill="white"/>
<path d="M194.219 4.6704C194.205 10.5262 194.206 14.6385 194.22 17.0073C194.221 17.3254 194.268 17.6277 194.36 17.9144C194.579 18.5973 195.273 18.7855 195.902 18.8591C195.932 18.8626 195.947 18.8795 195.947 18.9099V19.3048C195.947 19.3415 195.929 19.3599 195.892 19.3599H191.992C191.966 19.3599 191.953 19.3468 191.953 19.3205V18.9099C191.953 18.8824 191.966 18.8667 191.993 18.8626C192.625 18.7628 193.123 18.6989 193.288 17.966C193.373 17.5889 193.416 17.1444 193.418 16.6325C193.422 15.2117 193.423 10.6097 193.421 2.82643C193.421 2.79064 193.412 2.75516 193.397 2.72224C193.215 2.32823 193 1.9494 192.753 1.58574C192.57 1.31782 192.26 1.22063 191.954 1.14007C191.938 1.13603 191.924 1.12896 191.914 1.12005C191.904 1.11113 191.898 1.1009 191.898 1.09104V0.665512C191.898 0.657617 191.902 0.650045 191.907 0.644462C191.913 0.638879 191.92 0.635742 191.928 0.635742H195.748C195.759 0.635711 195.769 0.63887 195.778 0.644806C195.787 0.650742 195.794 0.659179 195.797 0.669014L200.518 12.646C200.55 12.7283 200.566 12.7251 200.566 12.6364C200.568 8.87316 200.567 5.78413 200.564 3.36929C200.563 2.5051 200.564 1.52533 199.498 1.30118C199.064 1.21012 198.821 1.15729 198.772 1.1427C198.757 1.13849 198.743 1.12945 198.734 1.11696C198.724 1.10447 198.719 1.08922 198.719 1.07353V0.676019C198.719 0.649168 198.733 0.635742 198.759 0.635742H202.774C202.807 0.635742 202.823 0.651795 202.823 0.683899V1.08842C202.823 1.1176 202.809 1.1354 202.781 1.14183C202.103 1.31256 201.533 1.47104 201.437 2.25994C201.369 2.8168 201.341 3.39935 201.352 4.00758C201.353 4.02451 201.354 9.13087 201.356 19.3267C201.356 19.3355 201.352 19.3439 201.346 19.3502C201.34 19.3564 201.331 19.3599 201.322 19.3599H200.251C200.227 19.3599 200.21 19.3488 200.202 19.3267L194.244 4.66602C194.227 4.62399 194.219 4.62545 194.219 4.6704Z" fill="white"/>
<path d="M225.049 18.0344V18.2673C224.999 18.7039 224.812 19.0285 224.488 19.241C223.766 19.7147 222.887 19.2812 222.699 18.4801C222.587 17.9985 222.734 17.4671 223.116 17.1571C223.915 16.51 224.926 17.0809 225.049 18.0344Z" fill="white"/>
</svg>
