<svg width="213" height="38" viewBox="0 0 213 38" fill="none" xmlns="http://www.w3.org/2000/svg">
<path d="M21.3803 12.4364L16.5931 20.2248C16.5385 20.3158 16.564 20.3613 16.6696 20.3613H20.0422C20.1441 20.3613 20.1951 20.4132 20.1951 20.517V27.5845C20.1951 27.6573 20.1587 27.6937 20.0859 27.6937H11.8878C11.8563 27.6936 11.8252 27.7019 11.7974 27.7177C11.7697 27.7334 11.7463 27.7562 11.7294 27.7838L9.19245 31.9102C9.17744 31.9351 9.15648 31.9558 9.1316 31.9702C9.10672 31.9845 9.07876 31.9921 9.05044 31.9921H0.281632C0.27019 31.9921 0.258961 31.989 0.249159 31.9831C0.239356 31.9772 0.231353 31.9687 0.226012 31.9586C0.220671 31.9485 0.218196 31.9371 0.218854 31.9257C0.219512 31.9143 0.223278 31.9032 0.229746 31.8938L21.6889 0.0764642C21.7235 0.025488 21.7717 0 21.8336 0H29.2725C29.3051 0 29.3364 0.0126594 29.3594 0.0351935C29.3824 0.0577275 29.3954 0.0882901 29.3954 0.120158V32.1232C29.3954 32.2069 29.3535 32.2488 29.2698 32.2488H21.5906C21.5638 32.2488 21.5381 32.2384 21.5191 32.22C21.5002 32.2016 21.4895 32.1766 21.4895 32.1505V12.4691C21.4895 12.3271 21.4531 12.3162 21.3803 12.4364Z" fill="#CC3401"/>
<path d="M38.5184 13.4632V37.8443C38.5184 37.8648 38.5144 37.885 38.5065 37.9039C38.4987 37.9228 38.4872 37.9399 38.4728 37.9544C38.4583 37.9689 38.4412 37.9803 38.4223 37.9881C38.4034 37.996 38.3832 38 38.3627 38H30.7955C30.6844 38 30.6289 37.9436 30.6289 37.8307V6.56226C30.6289 6.53329 30.6404 6.5055 30.6609 6.48502C30.6814 6.46453 30.7092 6.45302 30.7381 6.45302C33.8659 6.44756 37.4597 6.44938 41.5196 6.45849C44.6492 6.46395 48.3331 7.64095 50.5287 9.91303C52.2255 11.6662 53.1221 13.9684 53.2186 16.8194C53.3743 21.4209 52.0171 25.8613 47.137 27.3605C46.3906 27.5899 45.1835 27.7037 43.5159 27.7019C41.668 27.6983 40.4509 27.6937 39.8647 27.6882C39.8028 27.6882 39.7718 27.6564 39.7718 27.5927V20.8529C39.7718 20.7728 39.8119 20.73 39.892 20.7245C40.6648 20.6754 41.8828 20.7873 42.6857 20.6044C44.2405 20.253 45.0725 19.1925 45.1817 17.4229C45.3592 14.5719 43.5841 13.2092 40.968 13.2884C40.673 13.2957 39.9148 13.2957 38.6932 13.2884C38.5766 13.2884 38.5184 13.3466 38.5184 13.4632Z" fill="#CC3401"/>
<path d="M65.5366 12.835C66.0446 12.8332 66.5443 12.8341 67.0359 12.8377C67.0568 12.8379 67.0772 12.8443 67.0942 12.856C67.1113 12.8677 67.1243 12.8842 67.1315 12.9033L72.8909 27.3605C72.8953 27.3712 72.8969 27.3828 72.8956 27.3944C72.8943 27.4059 72.8901 27.417 72.8834 27.4267C72.8767 27.4364 72.8676 27.4444 72.857 27.45C72.8464 27.4556 72.8346 27.4586 72.8226 27.4588H69.9087C69.8268 27.4588 69.7704 27.4206 69.7394 27.3441L68.5078 24.2555C68.4805 24.1881 68.4314 24.1535 68.3603 24.1517C67.9999 24.1426 67.0705 24.1399 65.5721 24.1435C64.072 24.149 63.1417 24.1572 62.7812 24.1681C62.7102 24.1699 62.661 24.2045 62.6337 24.2719L61.4212 27.3687C61.3903 27.4452 61.3338 27.4834 61.2519 27.4834L58.3381 27.4998C58.3264 27.4994 58.3149 27.4964 58.3046 27.491C58.2943 27.4856 58.2855 27.4779 58.2788 27.4685C58.2722 27.4592 58.2679 27.4485 58.2663 27.4373C58.2647 27.4261 58.2659 27.4148 58.2698 27.4042L63.9445 12.9115C63.9517 12.8924 63.9647 12.8759 63.9818 12.8642C63.9988 12.8525 64.0192 12.8461 64.0401 12.8459C64.5317 12.8405 65.0305 12.8368 65.5366 12.835ZM63.5568 21.5738C63.5519 21.587 63.5503 21.6011 63.5522 21.6151C63.554 21.629 63.5591 21.6423 63.5671 21.6538C63.5752 21.6654 63.5859 21.6748 63.5983 21.6813C63.6108 21.6878 63.6246 21.6912 63.6387 21.6912L67.3854 21.6776C67.3995 21.6775 67.4133 21.6741 67.4258 21.6676C67.4382 21.6611 67.4489 21.6517 67.457 21.6402C67.465 21.6287 67.4701 21.6154 67.472 21.6014C67.4738 21.5875 67.4722 21.5733 67.4674 21.5601L65.5776 16.4698C65.5714 16.4531 65.5602 16.4387 65.5456 16.4285C65.5309 16.4183 65.5135 16.4128 65.4957 16.4128C65.4778 16.4128 65.4604 16.4183 65.4458 16.4285C65.4311 16.4387 65.42 16.4531 65.4137 16.4698L63.5568 21.5738Z" fill="white"/>
<path d="M118.758 12.8374L116.158 12.8328C116.101 12.8327 116.055 12.8791 116.055 12.9364L116.05 15.3123C116.05 15.3696 116.097 15.4161 116.154 15.4162L118.754 15.4208C118.811 15.4209 118.858 15.3745 118.858 15.3172L118.862 12.9413C118.862 12.884 118.816 12.8375 118.758 12.8374Z" fill="white"/>
<path d="M154.247 26.1262C154.225 26.1426 154.115 26.2482 153.916 26.443C151.573 28.7615 148.192 27.7402 147.048 24.7744C146.103 22.3303 146.439 18.1548 149.388 16.9614C151.096 16.2714 152.659 16.6128 154.077 17.9855C154.084 17.992 154.092 17.9964 154.101 17.9982C154.11 17.9999 154.119 17.999 154.128 17.9955C154.136 17.992 154.144 17.9861 154.149 17.9785C154.154 17.9708 154.157 17.9619 154.157 17.9527V12.9798C154.157 12.8833 154.205 12.8351 154.301 12.8351H156.827C156.924 12.8351 156.972 12.8833 156.972 12.9798V27.1639C156.972 27.3769 156.865 27.4834 156.65 27.4834H154.662C154.442 27.4834 154.335 27.3733 154.342 27.153L154.372 26.1699C154.376 26.0771 154.334 26.0625 154.247 26.1262ZM149.479 22.131C149.476 23.6002 149.937 25.4845 151.816 25.4872C153.692 25.4899 154.159 23.6083 154.162 22.1364C154.165 20.6672 153.703 18.7829 151.824 18.7802C149.946 18.7774 149.481 20.659 149.479 22.131Z" fill="white"/>
<path d="M167.379 22.1446V27.3442C167.379 27.4334 167.335 27.478 167.248 27.478H164.599C164.482 27.478 164.424 27.4197 164.424 27.3032V12.917C164.424 12.8715 164.447 12.8487 164.492 12.8487C166.912 12.8123 169.23 12.8269 171.448 12.8924C172.982 12.9379 174.131 13.5196 174.894 14.6374C175.746 15.8909 175.877 17.9554 175.274 19.3291C173.854 22.5542 170.14 21.8524 167.526 21.9917C167.428 21.9971 167.379 22.0481 167.379 22.1446ZM167.365 15.4267L167.392 19.37C167.393 19.3927 167.403 19.4143 167.419 19.4301C167.435 19.4459 167.457 19.4547 167.48 19.4547L170.328 19.4356C170.626 19.4335 170.921 19.3814 171.195 19.2823C171.47 19.1831 171.719 19.0389 171.929 18.8579C172.138 18.6768 172.304 18.4624 172.416 18.227C172.529 17.9916 172.586 17.7397 172.584 17.4857V17.2345C172.58 16.7218 172.337 16.2318 171.909 15.8723C171.481 15.5128 170.902 15.3132 170.301 15.3174L167.452 15.3365C167.441 15.3365 167.429 15.3389 167.418 15.3435C167.407 15.348 167.398 15.3547 167.39 15.3631C167.381 15.3715 167.375 15.3815 167.371 15.3924C167.367 15.4033 167.365 15.415 167.365 15.4267Z" fill="white"/>
<path d="M131.026 19.0887L130.182 19.1188C130.002 19.126 129.912 19.0396 129.912 18.8593V17.1225C129.912 16.9441 130.001 16.8549 130.18 16.8549H131.095C131.169 16.8549 131.207 16.8166 131.207 16.7402V14.905C131.207 14.8592 131.219 14.8141 131.243 14.7743C131.266 14.7345 131.3 14.7014 131.34 14.6784L133.905 13.1955C133.917 13.1884 133.932 13.1848 133.947 13.1849C133.961 13.1851 133.976 13.1891 133.988 13.1966C134.001 13.204 134.012 13.2146 134.019 13.2274C134.026 13.2401 134.03 13.2545 134.03 13.2692V16.7156C134.03 16.8084 134.076 16.8549 134.167 16.8549H135.573C135.832 16.8549 135.961 16.9841 135.961 17.2427V18.7528C135.961 18.9859 135.845 19.1024 135.614 19.1024H134.197C134.095 19.1024 134.044 19.1524 134.044 19.2526C134.017 21.4063 134.019 23.155 134.052 24.4986C134.079 25.5636 134.961 25.509 135.693 25.1977C135.824 25.1412 135.902 25.184 135.925 25.326L136.188 27.0328C136.213 27.2003 136.146 27.3132 135.986 27.3714C134.704 27.8357 133.5 27.8329 132.373 27.3632C131.215 26.8799 131.179 25.113 131.207 23.8732C131.223 23.0667 131.223 21.5292 131.207 19.2608C131.205 19.1424 131.145 19.0851 131.026 19.0887Z" fill="white"/>
<path d="M75.5942 19.1952C75.5137 19.3147 75.4813 19.4602 75.5036 19.6025C75.5259 19.7449 75.6012 19.8735 75.7144 19.9626C75.9784 20.1665 76.3079 20.3167 76.7029 20.4132C78.4097 20.8256 81.0341 21.2379 81.8588 22.4341C83.2843 24.5013 81.7796 26.9864 79.5157 27.4807C76.7439 28.0842 73.5679 27.6336 72.5602 24.6652C72.5129 24.5232 72.5629 24.4412 72.7104 24.4194L75.1709 24.0398C75.2711 24.0252 75.3339 24.0662 75.3594 24.1627C75.7936 25.8121 77.7134 25.9951 78.9996 25.4107C79.7287 25.0803 79.8544 24.0316 78.9641 23.805C77.4421 23.4172 76.3689 23.1295 75.7444 22.942C74.9907 22.7181 74.125 22.3986 73.5843 21.7786C72.0577 20.0227 73.1392 17.4502 75.3484 16.8959C77.0124 16.4753 78.5699 16.5299 80.0209 17.0597C80.9494 17.4002 81.6194 18.1694 82.0309 19.3673C82.0545 19.4401 82.029 19.482 81.9544 19.4929L79.4502 19.878C79.4138 19.8834 79.3901 19.8689 79.3792 19.8343C79.1225 19.1042 78.5672 18.7146 77.7134 18.6655C77.0907 18.6272 75.9793 18.63 75.5942 19.1952Z" fill="white"/>
<path d="M85.9548 19.1952C85.8739 19.3141 85.8413 19.4594 85.8636 19.6018C85.8859 19.7443 85.9614 19.8732 86.0749 19.9626C86.3389 20.1665 86.6684 20.3167 87.0635 20.4132C88.7703 20.8255 91.3947 21.2379 92.2194 22.434C93.6449 24.5013 92.1402 26.9864 89.8763 27.4807C87.1045 28.0842 83.9312 27.6336 82.9235 24.6651C82.8762 24.5231 82.9262 24.4412 83.0737 24.4194L85.5315 24.0398C85.6316 24.0252 85.6944 24.0662 85.7199 24.1626C86.1541 25.8121 88.0739 25.9951 89.3602 25.4107C90.0893 25.0802 90.2149 24.0316 89.3247 23.8049C87.8027 23.4171 86.7294 23.1295 86.105 22.942C85.3512 22.718 84.4856 22.3985 83.9476 21.7786C82.421 20.0227 83.5024 17.4529 85.709 16.8985C87.373 16.478 88.9305 16.5326 90.3815 17.0624C91.31 17.401 91.98 18.1693 92.3914 19.3672C92.4151 19.4401 92.3896 19.4819 92.315 19.4929L89.8107 19.8779C89.7743 19.8834 89.7507 19.8688 89.7397 19.8342C89.483 19.1042 88.9278 18.7146 88.0739 18.6654C87.4513 18.6272 86.3398 18.6299 85.9548 19.1952Z" fill="white"/>
<path d="M98.1301 27.7009C96.6831 27.4665 95.3896 26.6595 94.5342 25.4574C93.6788 24.2553 93.3317 22.7566 93.569 21.2909C93.8064 19.8253 94.6089 18.5127 95.8 17.6421C96.9911 16.7714 98.4732 16.414 99.9203 16.6484C101.367 16.8827 102.661 17.6897 103.516 18.8918C104.372 20.0939 104.719 21.5927 104.481 23.0583C104.244 24.524 103.441 25.8365 102.25 26.7072C101.059 27.5778 99.5772 27.9353 98.1301 27.7009ZM99.0277 25.4653C99.3737 25.4659 99.7166 25.3814 100.037 25.2166C100.357 25.0518 100.648 24.8099 100.893 24.5047C101.138 24.1996 101.333 23.8372 101.466 23.4382C101.599 23.0391 101.668 22.6114 101.669 22.1792C101.669 21.7471 101.602 21.319 101.47 20.9196C101.339 20.5201 101.145 20.157 100.901 19.851C100.657 19.545 100.367 19.3021 100.047 19.1362C99.7277 18.9702 99.3852 18.8845 99.0391 18.8839C98.6931 18.8833 98.3502 18.9678 98.0302 19.1327C97.7102 19.2975 97.4193 19.5394 97.174 19.8445C96.9288 20.1496 96.734 20.5121 96.6009 20.9111C96.4678 21.3101 96.3989 21.7379 96.3981 22.17C96.3974 22.6022 96.4648 23.0302 96.5965 23.4297C96.7283 23.8292 96.9217 24.1923 97.1659 24.4983C97.4101 24.8042 97.7002 25.0471 98.0196 25.2131C98.3391 25.379 98.6816 25.4647 99.0277 25.4653Z" fill="white"/>
<path d="M112.153 20.3667C111.842 19.167 111.047 18.6791 109.769 18.903C107.768 19.2525 107.817 21.8605 108.112 23.4854C108.327 24.6706 109.13 25.4434 110.346 25.4216C111.572 25.397 112.009 24.6515 112.295 23.581C112.325 23.4736 112.395 23.429 112.506 23.4472L114.939 23.8541C115.035 23.8686 115.072 23.9241 115.048 24.0206C114.562 25.9195 113.497 27.0783 111.853 27.497C108.538 28.3409 105.64 26.8334 105.146 23.2423C104.769 20.5006 105.736 17.5376 108.661 16.833C111.383 16.1776 113.991 16.9723 114.895 19.8779C114.93 19.989 114.889 20.0536 114.772 20.0718L112.287 20.4541C112.216 20.4651 112.172 20.4359 112.153 20.3667Z" fill="white"/>
<path d="M126.651 26.4294C125.886 27.1885 124.956 27.6082 123.86 27.6883C121.699 27.8467 119.864 26.6396 119.993 24.3867C120.096 22.5543 121.41 21.7869 123.092 21.4264C124.387 21.1479 125.493 20.8821 126.41 20.629C126.501 20.6035 126.55 20.5443 126.558 20.4515C126.653 19.1543 126.012 18.8348 124.859 18.7775C123.798 18.7229 123.129 19.1416 122.852 20.0337C122.839 20.0719 122.813 20.0883 122.773 20.0828L120.342 19.6787C120.295 19.6696 120.278 19.6422 120.29 19.5967C120.784 17.8253 121.979 16.854 123.876 16.6829C125.621 16.5245 128.221 16.6201 128.988 18.3078C129.221 18.8266 129.331 19.5357 129.319 20.4351C129.286 22.7509 129.306 24.4231 129.379 25.4517C129.428 26.149 129.59 26.7498 129.865 27.2541C129.947 27.4052 129.902 27.4807 129.731 27.4807H127.426C127.277 27.4807 127.175 27.4116 127.12 27.2732L126.795 26.4594C126.79 26.4459 126.782 26.4339 126.771 26.4246C126.76 26.4152 126.746 26.4088 126.732 26.4058C126.718 26.4028 126.703 26.4034 126.689 26.4075C126.674 26.4116 126.661 26.4191 126.651 26.4294ZM126.476 22.4286C125.445 22.6671 124.578 22.8856 123.873 23.084C122.587 23.4473 122.418 24.84 123.499 25.5118C124.578 26.1836 126.334 25.3206 126.506 24.059C126.564 23.6275 126.583 23.1068 126.563 22.4969C126.561 22.4387 126.532 22.4159 126.476 22.4286Z" fill="white"/>
<path d="M139.551 22.9748C138.985 22.9748 138.807 23.2379 139.016 23.764L139.262 24.3784C139.371 24.6528 139.543 24.8977 139.764 25.0936C139.985 25.2895 140.249 25.4308 140.535 25.5063C141.769 25.8285 142.577 25.4144 142.96 24.2637C142.994 24.1563 143.068 24.1126 143.181 24.1327L145.68 24.5478C145.754 24.5605 145.779 24.6024 145.753 24.6734C144.735 27.5954 141.488 28.3409 138.888 27.295C136.201 26.2109 135.671 22.8437 136.299 20.2903C136.916 17.7725 139.06 16.377 141.66 16.6774C144.989 17.0625 145.996 19.8752 145.953 22.8519C145.951 22.9338 145.909 22.9748 145.827 22.9748H139.551ZM139.106 21.268H143.044C143.059 21.268 143.074 21.265 143.088 21.2593C143.102 21.2535 143.115 21.245 143.125 21.2344C143.136 21.2237 143.144 21.2111 143.15 21.1972C143.156 21.1833 143.159 21.1684 143.159 21.1533V21.0604C143.159 20.4578 142.946 19.8799 142.566 19.4538C142.187 19.0277 141.672 18.7884 141.135 18.7884H141.015C140.479 18.7884 139.964 19.0277 139.584 19.4538C139.205 19.8799 138.992 20.4578 138.992 21.0604V21.1533C138.992 21.1837 139.004 21.2129 139.025 21.2344C139.047 21.2559 139.076 21.268 139.106 21.268Z" fill="white"/>
<path d="M179.631 18.2067C179.717 18.132 179.803 18.0173 179.891 17.8626C180.666 16.4698 182.226 16.3442 183.618 17.0843C183.726 17.1407 183.759 17.2263 183.719 17.341L182.982 19.4192C182.937 19.5484 182.856 19.5776 182.742 19.5065C182.629 19.4374 182.456 19.3618 182.223 19.2799C180.431 18.6572 179.85 20.3422 179.79 21.7868C179.717 23.5892 179.698 25.4271 179.732 27.3004C179.734 27.4188 179.676 27.4779 179.558 27.4779H177.056C176.961 27.4779 176.914 27.4306 176.914 27.3359V17.1225C176.914 16.9441 177.003 16.8549 177.182 16.8549H179.203C179.414 16.8549 179.519 16.9596 179.519 17.1689V18.1548C179.519 18.2531 179.557 18.2704 179.631 18.2067Z" fill="white"/>
<path d="M186.65 22.9748C186.084 22.9748 185.905 23.2379 186.115 23.764L186.36 24.3784C186.47 24.6528 186.642 24.8977 186.863 25.0936C187.084 25.2895 187.348 25.4308 187.633 25.5063C188.867 25.8285 189.676 25.4144 190.058 24.2637C190.093 24.1563 190.166 24.1126 190.279 24.1327L192.778 24.5478C192.853 24.5605 192.877 24.6024 192.852 24.6734C191.833 27.5954 188.586 28.3409 185.986 27.295C183.299 26.2109 182.769 22.8437 183.4 20.2903C184.017 17.7725 186.161 16.377 188.761 16.6774C192.09 17.0625 193.097 19.8752 193.051 22.8519C193.049 22.9338 193.007 22.9748 192.925 22.9748H186.65ZM186.194 21.2734L190.154 21.268C190.182 21.268 190.209 21.2568 190.229 21.2368C190.249 21.2168 190.26 21.1897 190.26 21.1615V21.0905C190.26 20.7872 190.207 20.487 190.105 20.207C190.003 19.9271 189.853 19.6728 189.665 19.4587C189.477 19.2447 189.254 19.075 189.008 18.9595C188.762 18.844 188.499 18.785 188.234 18.7856H188.103C187.567 18.787 187.054 19.0311 186.676 19.4643C186.298 19.8975 186.086 20.4844 186.087 21.0959V21.1669C186.087 21.1952 186.099 21.2223 186.119 21.2423C186.138 21.2622 186.166 21.2734 186.194 21.2734Z" fill="white"/>
<path d="M202.938 25.5472C202.362 26.574 201.524 27.2139 200.422 27.467C197.599 28.1142 194.292 27.6227 193.385 24.5177C193.372 24.474 193.389 24.4485 193.434 24.4412L196.069 24.037C196.115 24.0297 196.145 24.047 196.16 24.0889C196.451 24.981 196.971 25.4917 197.719 25.6209C198.423 25.7438 200.343 25.752 200.428 24.6897C200.47 24.1581 200.186 23.8304 199.576 23.7066C198.378 23.4663 197.129 23.1231 195.829 22.6771C193.833 21.9916 193.098 19.8452 194.324 18.1274C194.898 17.3282 195.803 16.8567 197.039 16.7128C199.382 16.4398 201.941 16.6937 202.839 19.2143C202.894 19.3709 202.84 19.4628 202.678 19.4901L200.25 19.9162C200.222 19.922 200.185 19.8831 200.148 19.808C200.111 19.7328 200.077 19.6274 200.054 19.5147C199.824 18.3951 196.293 18.2558 196.364 19.6103C196.37 19.7007 196.403 19.7868 196.46 19.8561C196.635 20.0636 196.945 20.2257 197.391 20.3422C198.065 20.5224 199.005 20.7673 200.212 21.0768C201.793 21.4837 203.314 22.3029 203.235 24.1872C203.234 24.209 203.238 24.2308 203.246 24.251C203.255 24.2711 203.268 24.2891 203.284 24.3038C203.3 24.3184 203.319 24.3293 203.34 24.3356C203.361 24.3418 203.383 24.3434 203.405 24.3402L205.305 24.048C205.413 24.0297 205.483 24.0734 205.516 24.179C205.734 24.8982 206.143 25.3497 206.742 25.5335C207.572 25.7875 209.847 25.8449 209.735 24.4576C209.711 24.1699 209.55 23.9651 209.251 23.8431C208.238 23.4362 204.967 23.1304 203.803 21.8551C202.697 20.6426 202.842 18.7446 204.035 17.6632C205.557 16.2896 208.773 16.4343 210.363 17.1389C211.213 17.5157 211.818 18.2603 212.179 19.3727C212.183 19.3855 212.184 19.3989 212.183 19.4122C212.181 19.4255 212.177 19.4383 212.17 19.4497C212.163 19.4612 212.153 19.4709 212.142 19.4784C212.131 19.4858 212.118 19.4908 212.105 19.4929L209.617 19.8752C209.579 19.8807 209.553 19.8652 209.538 19.8288C209.036 18.4661 207.446 18.4934 206.258 18.832C205.715 18.9849 205.412 19.5966 205.928 20.0063C206.084 20.1319 206.338 20.242 206.687 20.3367C207.973 20.689 209.344 20.9593 210.62 21.4727C212.217 22.1118 212.954 23.4772 212.37 25.1785C211.507 27.6991 208.356 27.9859 206.043 27.538C204.765 27.2922 203.782 26.6268 203.096 25.5417C203.041 25.4544 202.989 25.4562 202.938 25.5472ZM202.998 25.2332C203.076 25.2295 203.149 25.0101 203.216 24.575C203.231 24.4803 203.191 24.4257 203.096 24.4112C203.054 24.4057 203.01 24.4039 202.962 24.4057C202.915 24.4075 202.87 24.413 202.828 24.4221C202.736 24.4458 202.7 24.5031 202.722 24.5941C202.826 25.0238 202.918 25.2368 202.998 25.2332Z" fill="white"/>
<path d="M118.748 16.8604H116.165C116.103 16.8604 116.053 16.9105 116.053 16.9723V27.366C116.053 27.4278 116.103 27.478 116.165 27.478H118.748C118.81 27.478 118.86 27.4278 118.86 27.366V16.9723C118.86 16.9105 118.81 16.8604 118.748 16.8604Z" fill="white"/>
</svg>
